<svg id="visual" viewBox="0 0 5200 4000" width="5200" height="4000" xmlns="http://www.w3.org/2000/svg" xmlns:xlink="http://www.w3.org/1999/xlink" version="1.1"><path d="M0 401L473 521L945 281L1418 441L1891 681L2364 601L2836 401L3309 481L3782 281L4255 561L4727 401L5200 281L5200 0L4727 0L4255 0L3782 0L3309 0L2836 0L2364 0L1891 0L1418 0L945 0L473 0L0 0Z" fill="#00cc8e"></path><path d="M0 921L473 1041L945 881L1418 1241L1891 1201L2364 1281L2836 681L3309 1041L3782 641L4255 1361L4727 881L5200 921L5200 279L4727 399L4255 559L3782 279L3309 479L2836 399L2364 599L1891 679L1418 439L945 279L473 519L0 399Z" fill="#00b98a"></path><path d="M0 1881L473 2321L945 2121L1418 2201L1891 2801L2364 2121L2836 1521L3309 2001L3782 2121L4255 2601L4727 2601L5200 2081L5200 919L4727 879L4255 1359L3782 639L3309 1039L2836 679L2364 1279L1891 1199L1418 1239L945 879L473 1039L0 919Z" fill="#00a784"></path><path d="M0 2561L473 2881L945 3001L1418 2761L1891 3361L2364 2721L2836 2561L3309 2521L3782 3121L4255 3041L4727 3321L5200 2961L5200 2079L4727 2599L4255 2599L3782 2119L3309 1999L2836 1519L2364 2119L1891 2799L1418 2199L945 2119L473 2319L0 1879Z" fill="#00957c"></path><path d="M0 4001L473 4001L945 4001L1418 4001L1891 4001L2364 4001L2836 4001L3309 4001L3782 4001L4255 4001L4727 4001L5200 4001L5200 2959L4727 3319L4255 3039L3782 3119L3309 2519L2836 2559L2364 2719L1891 3359L1418 2759L945 2999L473 2879L0 2559Z" fill="#038373"></path></svg>