<svg width="160" height="145" viewBox="0 0 160 145" fill="none" xmlns="http://www.w3.org/2000/svg">
<g clip-path="url(#clip0_123_622)">
<path d="M65.5476 0H0V145H65.5476V0Z" fill="#0063AF"/>
<path d="M160 0H65.5476V145H160V0Z" fill="#E73439"/>
<path d="M78.145 137.261C77.1855 137.712 76.385 137.917 75.487 137.917C73.3575 137.917 72.3569 136.422 72.3569 134.173C72.3569 131.925 73.4293 130.557 75.6563 130.557C76.7442 130.557 77.4369 130.819 77.9962 131.187L77.4061 132.227C77.0059 131.961 76.4055 131.776 75.6666 131.776C74.394 131.776 73.8142 132.744 73.8142 134.153C73.8142 135.827 74.4248 136.739 75.6255 136.739C76.0874 136.739 76.5338 136.647 76.8673 136.488V135.187H75.8872L75.8154 134.163H78.145V137.267V137.261Z" fill="white"/>
<path d="M83.9024 135.223C83.9024 136.98 83.0146 137.912 81.4752 137.912C79.9358 137.912 79.0533 136.985 79.0533 135.223C79.0533 133.707 79.8999 132.55 81.4752 132.55C83.0506 132.55 83.9024 133.707 83.9024 135.223ZM82.4861 135.223C82.4861 133.984 82.1167 133.548 81.4752 133.548C80.8338 133.548 80.4746 133.989 80.4746 135.223C80.4746 136.457 80.7979 136.903 81.4752 136.903C82.1526 136.903 82.4861 136.452 82.4861 135.223Z" fill="white"/>
<path d="M86.2064 133.185C86.4373 132.872 86.9966 132.555 87.5764 132.555C88.7874 132.555 89.6597 133.42 89.6597 135.228C89.6597 137.036 88.6078 137.922 87.4071 137.922C86.6682 137.922 86.2423 137.635 85.9087 137.195L85.6573 137.815H84.9235V130.562H86.3039V132.36L86.2115 133.19L86.2064 133.185ZM86.2987 136.381C86.5091 136.662 86.8683 136.903 87.2377 136.903C87.8381 136.903 88.2794 136.462 88.2794 135.223C88.2794 133.984 87.8894 133.559 87.2583 133.559C86.9093 133.559 86.5348 133.738 86.2987 133.968V136.375V136.381Z" fill="white"/>
<path d="M91.1273 137.809V133.666L90.5372 133.538V132.657H92.4974V137.809H91.1273ZM91.0862 130.557H92.4768V131.807H91.0862V130.557Z" fill="white"/>
<path d="M94.9347 135.602C94.9347 136.421 95.3966 136.872 96.2638 136.872C96.7974 136.872 97.3208 136.652 97.7724 136.432L98.0341 137.4C97.603 137.63 96.9154 137.917 96.0944 137.917C94.4832 137.917 93.5442 136.928 93.5442 135.223C93.5442 133.635 94.3036 132.55 95.9559 132.55C97.5158 132.55 98.1367 133.707 98.1367 135.003V135.602H94.9347ZM95.8943 133.558C95.2118 133.558 94.9347 134.178 94.9347 134.788H96.8179C96.8179 134.127 96.6076 133.558 95.8892 133.558" fill="white"/>
<path d="M102.113 133.804C101.944 133.753 101.713 133.722 101.472 133.722C101.103 133.722 100.779 133.881 100.543 134.071V137.809H99.1732V132.657H100.133C100.184 132.898 100.241 133.123 100.282 133.349H100.323C100.477 132.98 100.944 132.56 101.554 132.56C101.831 132.56 102.026 132.601 102.144 132.637C102.134 133.026 102.134 133.415 102.113 133.804Z" fill="white"/>
<path d="M106.147 137.809V134.752C106.147 133.973 105.849 133.605 105.218 133.605C104.859 133.605 104.551 133.763 104.31 133.922V137.809H102.929V132.657H103.879L104.089 133.246C104.382 132.898 104.951 132.555 105.721 132.555C107.024 132.555 107.542 133.323 107.542 134.629V137.814H106.142L106.147 137.809Z" fill="white"/>
<path d="M113.315 135.223C113.315 136.98 112.427 137.912 110.888 137.912C109.349 137.912 108.466 136.985 108.466 135.223C108.466 133.707 109.313 132.55 110.888 132.55C112.463 132.55 113.315 133.707 113.315 135.223ZM111.904 135.223C111.904 133.984 111.535 133.548 110.888 133.548C110.242 133.548 109.893 133.989 109.893 135.223C109.893 136.457 110.216 136.903 110.888 136.903C111.56 136.903 111.904 136.452 111.904 135.223Z" fill="white"/>
<path d="M120.012 133.057C119.924 132.76 119.883 132.498 119.883 132.109V130.552H121.253V137.804H120.135L119.976 137.236C119.765 137.548 119.268 137.907 118.606 137.907C117.436 137.907 116.497 137.067 116.497 135.223C116.497 133.518 117.466 132.539 118.718 132.539C119.278 132.539 119.719 132.729 120.006 133.046M119.878 133.825C119.668 133.697 119.344 133.574 118.944 133.574C118.293 133.574 117.882 134.019 117.882 135.218C117.882 136.416 118.272 136.908 118.929 136.908C119.273 136.908 119.622 136.744 119.883 136.468V133.83L119.878 133.825Z" fill="white"/>
<path d="M123.686 135.602C123.686 136.421 124.147 136.872 125.009 136.872C125.548 136.872 126.061 136.652 126.518 136.432L126.78 137.4C126.349 137.63 125.661 137.917 124.84 137.917C123.229 137.917 122.29 136.928 122.29 135.223C122.29 133.635 123.049 132.55 124.702 132.55C126.262 132.55 126.882 133.707 126.882 135.003V135.602H123.68H123.686ZM124.645 133.558C123.963 133.558 123.686 134.178 123.686 134.788H125.569C125.569 134.127 125.358 133.558 124.64 133.558" fill="white"/>
<path d="M133.163 137.917C131.162 137.917 130.1 136.57 130.1 134.204C130.1 132.027 131.152 130.552 133.163 130.552C134.133 130.552 135.005 130.762 135.585 131.151L135.057 132.242C134.687 131.971 134.046 131.761 133.307 131.761C132.127 131.761 131.537 132.637 131.537 134.189C131.537 135.827 132.127 136.703 133.281 136.703C133.979 136.703 134.677 136.411 135.159 136.053L135.601 137.159C134.898 137.64 134.097 137.917 133.158 137.917" fill="white"/>
<path d="M136.555 137.809V130.557H137.935V132.463C137.935 132.821 137.822 133.174 137.802 133.262C138.094 132.903 138.525 132.56 139.264 132.56C140.752 132.56 141.173 133.328 141.173 134.634V137.82H139.772V134.762C139.772 134.624 139.752 134.521 139.695 134.45C139.654 133.871 139.357 133.62 138.844 133.62C138.484 133.62 138.176 133.779 137.935 133.938V137.825H136.555V137.809Z" fill="white"/>
<path d="M142.713 137.809V133.666L142.122 133.538V132.657H144.083V137.809H142.713ZM142.671 130.557H144.062V131.807H142.671V130.557Z" fill="white"/>
<path d="M145.335 136.442V130.552H146.694V136.365C146.694 136.795 146.956 136.862 147.526 136.862V137.83C147.526 137.83 147.125 137.912 146.766 137.912C145.714 137.912 145.335 137.354 145.335 136.442Z" fill="white"/>
<path d="M149.614 135.602C149.614 136.421 150.076 136.872 150.938 136.872C151.477 136.872 151.99 136.652 152.447 136.432L152.708 137.4C152.277 137.63 151.595 137.917 150.774 137.917C149.163 137.917 148.224 136.928 148.224 135.223C148.224 133.635 148.983 132.55 150.635 132.55C152.195 132.55 152.816 133.707 152.816 135.003V135.602H149.614ZM150.574 133.558C149.886 133.558 149.614 134.178 149.614 134.788H151.497C151.497 134.127 151.287 133.558 150.569 133.558" fill="white"/>
<path d="M34.1439 19.8919C34.2876 19.7741 34.5903 19.5129 34.3491 19.0213C34.2311 18.7908 33.9232 18.7703 34.0566 18.7396C35.6987 18.3555 36.5813 15.9586 36.5299 15.0418C37.3766 15.8203 39.2701 16.0405 40.6453 14.8728C41.533 14.0175 41.964 11.7743 40.44 10.6527C39.6652 10.0791 38.2849 10.0279 37.4228 10.6937C37.1508 10.2379 36.6788 9.9101 36.1708 9.90498C36.1656 9.74621 36.1913 8.66558 35.5499 7.96393C34.7288 7.06767 32.4198 7.00109 31.5782 7.97929C29.9208 7.56445 27.7656 8.32756 27.8837 10.9242C26.7188 10.4632 26.0518 10.4581 25.436 10.5144C24.8562 10.5708 24.0813 11.088 23.8145 11.4414C23.6914 11.6002 23.5528 11.8204 23.4553 12.015C23.2655 12.3889 23.1218 12.8755 23.1731 13.4235C23.2603 14.3453 23.717 15.1238 24.3892 15.4925C25.3129 15.9996 26.4879 15.9279 26.9087 15.8613C27.232 15.7896 27.5758 15.6718 27.9401 15.2928C28.0479 15.1852 28.1248 15.0111 28.2839 15.006C28.2839 15.2416 28.1967 16.481 29.5873 17.0751C29.5924 17.1365 29.6129 17.1929 29.6283 17.2799C30.0696 18.9905 31.2242 18.7805 31.2395 18.8983C30.7264 19.2056 30.9471 19.6563 31.0651 19.8868C31.845 19.6461 32.4249 19.6153 32.6096 19.6153C32.7943 19.6153 33.3742 19.6461 34.1541 19.8868L34.1439 19.8919Z" fill="white"/>
<path d="M38.0437 25.0595C38.0437 23.3438 39.1982 22.0173 39.2136 22.0019C39.3419 21.8585 39.3522 21.7254 39.347 21.6332C39.3214 21.4744 39.1982 21.3669 39.1777 21.3617C38.8442 21.1364 38.1001 20.6857 38.1001 20.6857L38.0386 20.6345H37.977C37.8949 20.6345 37.8333 20.6806 37.7307 20.7574C37.5254 20.9162 37.1406 21.2132 36.4735 21.2132C36.3555 21.2132 36.2323 21.203 36.104 21.1876C35.7551 21.1415 35.1701 20.8394 35.1701 20.8394C34.9803 20.742 34.7391 20.6345 34.6416 20.5935L34.6006 20.5782C33.641 20.1838 32.8251 20.1479 32.5993 20.1479C32.3736 20.1479 31.5577 20.1787 30.5981 20.5782L30.5519 20.5935C30.5006 20.6191 30.4134 20.655 30.3108 20.7011L29.7258 20.9776C29.5308 21.0647 29.2794 21.162 29.0895 21.1876C28.9664 21.203 28.8432 21.2132 28.7201 21.2132C28.053 21.2132 27.6681 20.9162 27.4629 20.7574C27.3603 20.6806 27.2987 20.6345 27.2217 20.6345H27.1653L27.1293 20.6652C27.1293 20.6652 26.3648 21.1313 26.0518 21.3515C26.0005 21.372 25.8824 21.4744 25.8568 21.6383C25.8465 21.7305 25.8568 21.8637 25.9902 22.0019C26.0364 22.0583 27.1653 23.3643 27.1601 25.0851C27.1909 25.2797 27.273 26.3142 26.3904 27.8353C26.3494 27.9121 25.3796 29.6842 26.4417 31.236C26.4417 31.2514 27.2422 32.6956 29.5616 32.6956C29.7515 32.6956 31.4653 32.7264 32.0554 33.8224C32.0811 33.8633 32.3582 34.3038 32.4659 34.5189L32.5993 34.7801L32.7276 34.5189C32.8405 34.3038 33.1125 33.8736 33.1484 33.8121C33.7282 32.7315 35.4421 32.6956 35.632 32.6956C37.9205 32.6956 38.7415 31.2565 38.7415 31.2565C39.8294 29.6637 38.8134 27.8404 38.8031 27.8302C37.9205 26.3091 38.0078 25.2746 38.0386 25.0543L38.0437 25.0595ZM37.1457 25.0441L34.149 27.1849L35.2933 30.5702L32.4146 28.3936L29.5411 30.5702L30.6854 27.1849L27.6887 25.0441H27.6784H31.3781L32.4146 21.6178L33.4511 25.0441H37.1457Z" fill="white"/>
<path d="M58.0867 39.2716C57.7121 38.8158 56.7166 39.0412 56.7166 39.0412C57.2503 37.4484 55.7776 37.0284 55.7776 37.0284C55.249 36.8901 54.9052 36.9875 54.6795 37.1411C54.6795 37.1411 54.6692 37.1462 54.6641 37.1513C54.6641 37.1513 54.6538 37.1565 54.6538 37.1616C54.6128 37.1872 54.582 37.2128 54.5512 37.2487C54.4178 37.3869 54.3357 37.5764 54.3357 37.7762C54.3357 38.1961 54.6795 38.5393 55.1054 38.5393C55.2696 38.5393 55.4184 38.4881 55.5467 38.401C55.7006 38.2934 55.8084 38.1295 55.8494 37.9452C56.0547 38.0732 56.1316 38.3037 56.1316 38.3037C56.5627 39.6609 55.0335 40.1474 55.0335 40.1474C51.6622 41.1564 49.5995 39.4202 49.5995 39.4202L50.1896 39.1078C50.3948 39.0207 50.5795 38.99 50.7232 38.99C50.7181 39.0156 50.713 39.0565 50.713 39.0873C50.713 39.4509 51.0157 39.7479 51.38 39.7479C51.7443 39.7479 52.0471 39.4509 52.0471 39.0873C52.0471 38.8107 51.9137 38.6775 51.9137 38.6775C51.5186 38.0835 50.1588 38.4778 50.1588 38.4778C50.6103 37.3613 50.2049 36.5624 50.2049 36.5624C49.5738 35.2769 48.0908 35.6764 48.0908 35.6764C47.5726 35.8351 47.4648 36.2909 47.4648 36.2909C47.2647 37.3101 48.1114 37.3972 48.1114 37.3972C48.722 37.4279 48.7271 36.9362 48.7271 36.9362C48.8041 36.4599 48.1319 36.4343 48.1319 36.4343C48.7015 35.4356 50.4923 37.0745 49.3224 38.5188C49.1992 38.6622 49.0863 38.5649 49.0863 38.5649C46.9876 37.5252 45.9459 36.8492 45.4328 36.4651C45.3815 35.8966 44.8838 35.6046 44.9761 35.451C45.0582 35.4152 45.3558 35.5637 45.52 35.3178C45.5816 35.2257 45.7202 34.3243 45.8279 33.6841C47.6855 34.5291 49.271 34.2731 49.5892 34.1706C49.7534 34.104 49.8817 33.9863 49.8868 33.7455C49.9176 33.0388 48.0806 28.8852 48.0344 27.4205C48.9016 27.8507 49.4352 26.514 49.5943 26.1094C50.7591 26.6369 51.1594 37.4177 52.0574 37.7813C52.5038 37.9605 52.6834 37.2282 52.7244 37.095C54.1663 32.291 54.2125 27.61 54.1202 26.0428C53.9765 23.5845 53.7764 21.3822 53.1811 19.3592C52.8168 18.1147 52.1087 15.5693 50.4615 15.2211C49.6918 15.0572 49.1068 15.7742 49.1171 16.4195C49.1274 16.9777 49.5173 17.2492 49.3429 17.7972C49.1376 18.1557 48.9324 18.5449 48.8298 18.9495C48.7323 19.349 49.0863 19.5129 48.9734 19.938C48.4552 19.8611 48.1935 20.317 47.3725 20.107C47.9061 19.8611 47.9112 18.3401 47.2596 18.0789C47.1621 18.0379 47.0492 18.0225 47.0338 17.9355C47.0338 17.9355 47.2442 17.7101 47.3519 17.495C47.7265 16.7268 47.7265 16.0507 47.4289 15.5386C47.7009 15.5642 47.9831 15.0623 48.019 14.6679H48.0241C48.0241 14.6679 48.0241 14.6475 48.0241 14.6372C48.0293 14.5297 48.0139 14.1814 48.1678 13.8587C48.2191 13.7512 48.1678 13.6334 48.0754 13.5822C47.9831 13.5412 47.8599 13.5822 47.8035 13.6846C47.6444 14.0278 47.2544 13.8331 47.4186 13.4951C47.4648 13.3876 47.4186 13.2698 47.3263 13.2237C47.2339 13.1827 47.1108 13.2134 47.0594 13.321C46.9055 13.6488 46.5309 13.4644 46.6849 13.1366C46.7362 13.0291 46.6849 12.9113 46.5976 12.8652C46.5104 12.8242 46.3821 12.8549 46.3308 12.9676C46.1717 13.3056 45.7817 13.1161 45.9408 12.7832C45.9921 12.6706 45.9408 12.5528 45.8484 12.5067C45.7561 12.4657 45.6381 12.5067 45.5816 12.6091C45.4123 12.9676 45.2891 13.1161 45.1095 13.2595C44.7452 13.3261 44.8427 13.7409 44.8838 14.0278C44.2013 13.8792 43.6882 14.3965 43.6676 14.8626H43.5907C43.0262 14.8779 42.4874 15.1647 42.5285 15.6871C42.549 15.979 42.8928 16.3478 43.0262 16.3529C43.0878 16.3324 42.9954 16.0405 43.2879 16.02C43.5547 16.0047 43.955 16.2351 44.0012 16.4861C44.0576 16.7729 43.8216 17.4694 44.7401 17.5718C44.7401 17.5718 44.735 17.7152 44.7196 17.8638C44.3912 17.8433 44.3039 17.8228 43.9755 17.874C43.3957 17.9662 42.6003 18.294 42.4053 18.8676C42.3694 18.9649 42.354 19.1646 42.3694 19.3029C42.3797 19.4207 42.4926 19.5692 42.4772 19.7126C42.4669 19.7843 42.3438 19.9277 42.2976 19.9738C42.0564 20.2299 41.6048 20.4706 41.2097 20.4911C40.7684 20.5116 40.3425 20.2299 40.1681 19.9943C39.5831 19.2107 40.3425 17.8535 40.3271 17.3465C40.2912 15.9995 38.5876 16.8036 37.9154 17.1519C37.1098 17.5718 36.4684 18.253 35.9296 18.9188C35.632 19.2824 35.2984 19.7434 35.1342 20.1326C35.1034 20.2043 35.0419 20.2145 34.97 20.2145C35.3138 20.3682 35.9245 20.5986 36.4068 20.6038C36.4068 20.6038 37.3458 20.7318 38.0232 20.1684C38.0232 20.1684 38.1207 20.0865 38.2541 20.0865C38.3516 20.0865 38.4388 20.1275 38.5106 20.194C38.5158 20.2043 38.603 20.2709 38.7056 20.3528C38.7672 20.3989 38.8391 20.4604 38.9212 20.5218C38.9622 20.5525 39.0033 20.5833 39.0443 20.6191C39.1572 20.7062 39.2752 20.7984 39.3984 20.8957C39.4189 20.9111 39.4394 20.9315 39.4651 20.9469C39.5985 21.0493 39.7319 21.1518 39.8448 21.2388C39.9833 21.3413 40.1168 21.4386 40.1937 21.4898H40.1989C40.1989 21.4898 40.245 21.541 40.2553 21.5922C40.2553 21.6434 40.2348 21.7049 40.1886 21.7612C40.1886 21.7612 40.1168 21.8432 40.009 21.9763C39.7832 22.2631 39.4035 22.8214 39.111 23.5077C39.4292 24.0608 39.9628 24.7163 40.7274 24.7266C41.338 24.7317 41.5894 24.4295 41.6818 24.0352C41.6921 24.0454 41.7229 24.0864 41.728 24.0864C41.7998 24.0198 42.1385 25.8431 42.5849 26.3398C42.1693 26.5345 41.5227 27.1849 41.8717 28.9877C41.5279 28.7111 40.8967 28.2348 40.594 27.9224C40.4144 27.5485 40.0552 26.6727 39.0392 26.5857C39.188 27.0364 39.3984 27.5434 39.7268 28.1119C39.7319 28.1273 40.3528 29.2693 40.1629 30.5651C40.5888 30.1298 40.5221 28.9262 40.5221 28.9262C40.5375 28.9108 40.5991 28.8904 40.6145 28.8852C40.7017 28.8801 41.1276 29.7149 41.8665 29.8891C42.8312 31.5331 43.9139 32.5778 44.9607 33.2334C44.9402 33.6329 44.9915 34.5803 44.735 34.5803C43.9088 34.7647 43.1494 34.2065 42.4258 34.2475C42.3643 34.2167 42.2976 34.1911 42.2976 34.1911C39.1726 32.6905 35.0573 35.9119 34.3697 36.5368C34.0105 36.8697 33.5897 36.4138 33.5897 36.4138C33.3434 36.1014 33.0201 35.9632 32.702 35.999C32.389 35.9632 32.0606 36.1014 31.8194 36.4138C31.8194 36.4138 31.3986 36.8697 31.0394 36.5368C30.3878 35.9427 26.6573 33.0593 23.6093 34.0426C23.599 33.8787 23.1885 33.7916 23.0756 33.7507C22.8344 33.6841 22.6189 33.4895 22.4701 33.4178C22.1366 33.2539 21.5978 33.3563 21.2181 33.3102C21.0693 33.2897 20.864 33.2129 20.7357 33.131C20.2482 32.8288 19.6889 32.4652 19.381 32.0247C19.3297 31.953 19.2117 31.7891 19.1861 31.7584C19.0321 31.5689 18.9603 31.4255 18.8423 31.1131C18.6781 30.5139 18.9346 29.8686 19.0219 29.2591C19.0886 28.8084 19.0732 28.7777 19.1142 28.2963C21.0487 27.6305 21.8441 26.1811 22.2956 25.4077C22.3367 25.3463 22.4598 25.1004 22.4598 25.1004C22.5471 25.1107 22.6292 25.1209 22.7267 25.1261C23.5015 25.1261 24.0198 24.701 24.8716 24.8034C24.8716 24.8495 24.9845 25.208 25.5335 25.4282C25.5489 25.9813 25.59 26.4423 25.8003 26.8725C25.8465 26.9493 25.903 27.0108 25.9492 27.0722C26.3135 26.1811 26.4058 25.4897 26.4161 25.0697C26.3904 25.0339 26.3648 24.9826 26.3494 24.9007C26.1698 23.9583 25.7285 23.7023 25.3129 23.4616C25.1076 23.3489 24.8818 23.3182 24.6868 23.1748C24.3841 22.9699 24.066 22.7497 23.8658 22.3604C23.8658 22.3604 23.9633 22.2683 24.0711 22.1351C24.6099 21.5717 24.8818 20.7369 25.082 19.8253C25.4976 19.2619 26.647 19.4822 27.0832 19.559C27.1961 19.5743 27.3859 19.6153 27.4732 19.6819C27.5963 19.769 27.6271 19.9636 27.7964 20.0353C27.976 20.1121 28.1813 20.0558 28.4019 20.0353C28.484 20.1275 28.5251 20.2555 28.5867 20.3682C28.5867 20.3682 28.6482 20.4757 28.7611 20.5935C29.2999 20.5833 30.0183 20.3016 30.321 20.148C30.2851 20.1223 30.2543 20.1019 30.2389 20.0762C29.9978 19.769 29.6334 19.4309 29.2948 19.3746C28.8689 19.3029 28.7765 18.9239 28.366 18.842C28.2634 18.8112 27.8991 18.76 27.7759 18.801C26.8677 18.9188 26.2314 18.5756 25.3796 18.5142C24.574 18.4579 24.5483 19.0059 24.2558 19.4617C24.1481 19.6307 24.0198 19.8304 23.8864 19.9585C23.6657 20.1736 23.404 20.1787 23.1372 20.3835L23.014 20.0506C22.9371 19.7741 22.8344 19.4822 22.6548 19.2107C22.2187 18.5244 21.7158 17.9918 20.746 17.7716C20.5613 17.6948 20.5305 17.6845 20.4073 17.5872C20.2482 17.4643 20.3611 17.3158 20.4073 17.3055C20.6844 17.1467 21.1616 17.2031 21.4798 17.0597C22.2546 16.7012 21.9826 16.0405 21.6799 15.9893C21.2899 15.9176 20.5869 15.7332 20.4484 15.6513C20.2585 15.5335 19.9352 14.9445 19.6274 14.796C19.2887 14.7038 19.4067 14.1507 19.0886 14.0278C18.9551 14.0021 18.755 14.0738 18.5344 14.1814C18.519 14.0636 18.4369 13.4337 18.088 13.2288C17.8263 13.0803 17.7339 13.3107 17.7442 13.4644C17.7595 13.5975 18.1239 13.7819 18.1957 14.3811C18.1341 14.4221 18.0726 14.458 18.0059 14.4989C17.9545 14.2531 17.8468 13.8741 17.5902 13.7205C17.3285 13.5719 17.2362 13.8024 17.2464 13.9509C17.2567 14.079 17.58 14.248 17.6826 14.7499C17.6056 14.8113 17.5338 14.8779 17.4619 14.9445C16.9385 14.8011 16.8 14.4477 16.6717 14.4221C16.5229 14.3914 16.2869 14.4631 16.41 14.7396C16.5383 15.0162 16.9283 15.1647 17.1643 15.2364C17.113 15.2928 17.0668 15.3491 17.0206 15.4054C16.4151 15.2825 16.2663 14.8933 16.1329 14.8626C15.9841 14.837 15.7429 14.9087 15.8661 15.1801C16.0406 15.5642 16.7282 15.7127 16.7897 15.723C16.6922 15.8869 16.6307 16.0354 16.6512 16.1429C16.1791 16.0866 15.3478 16.3427 15.5069 16.8958C15.6608 17.0085 16.2201 16.5527 16.7282 16.8087C17.0668 17.3311 17.6056 17.3516 17.7288 17.4489C17.9186 17.5974 17.9443 17.8689 18.0315 18.1096C18.1803 18.5603 18.4985 18.9239 18.7653 19.3234C19.0526 19.7638 19.3554 20.2248 19.6581 20.6038C19.6941 20.7062 19.73 20.8137 19.7095 20.9776C19.3657 21.5256 18.3291 22.1658 17.9084 22.5602C17.4825 22.9597 13.4338 26.0377 12.9258 27.3744C12.8129 27.6766 12.7462 28.0607 12.7668 28.4602C12.5205 28.5933 11.9765 28.8033 11.8072 28.5626C11.4942 28.1273 12.1048 27.7995 11.9714 27.3795C11.9098 27.2207 11.6738 27.1081 11.525 27.2207C10.5192 27.9429 11.0375 29.2181 11.6738 29.5101C12.3768 29.802 12.4743 29.0491 13.0182 29.3513C13.1465 29.423 14.4293 30.5702 14.2138 31.4767C14.1984 31.5228 14.1522 31.656 14.1266 31.6867C13.8443 32.035 13.3774 32.3064 13.0541 32.6342C12.387 33.0541 13.6904 35.7122 13.5775 37.0796C13.5005 37.5969 14.0085 37.5355 14.3216 38.3498C14.0034 38.36 13.6955 38.4368 13.5365 38.6724C13.5365 38.6724 13.403 38.8056 13.403 39.0821C13.403 39.4458 13.7007 39.7428 14.0701 39.7428C14.4396 39.7428 14.7372 39.4458 14.7372 39.0821C14.7372 39.0463 14.7372 39.0105 14.7321 38.9848C14.8757 38.9848 15.0656 39.0104 15.2657 39.1026L15.8558 39.415C15.8558 39.415 13.793 41.1512 10.4217 40.1423C10.4217 40.1423 8.89261 39.6558 9.32364 38.2986C9.32364 38.2986 9.40061 38.0732 9.60586 37.9401C9.64692 38.1244 9.7598 38.2883 9.90861 38.3959C10.0318 38.4829 10.1857 38.5341 10.3499 38.5341C10.7707 38.5341 11.1145 38.191 11.1145 37.771C11.1145 37.5662 11.0375 37.3818 10.9041 37.2435C10.8733 37.2128 10.8374 37.1872 10.7963 37.1565V37.1513C10.7861 37.1411 10.7809 37.1411 10.7809 37.1411C10.55 36.9823 10.2062 36.885 9.6777 37.0233C9.6777 37.0233 8.20501 37.4484 8.73867 39.0361C8.73867 39.0361 7.74319 38.8107 7.3686 39.2665C7.3686 39.2665 7.24032 39.4099 7.25058 39.6404V39.6558C7.26085 39.7479 7.2865 39.8555 7.35834 39.9784C7.46097 40.1269 7.63543 40.2242 7.83042 40.2242C8.01002 40.2242 8.16909 40.1423 8.28198 40.0091C8.28198 40.004 8.28198 40.004 8.28198 40.004C8.32303 39.9528 8.44618 39.8811 8.62578 40.0706C10.863 42.3958 14.5063 41.438 16.528 39.8811C16.528 39.8811 17.6467 38.7544 18.8987 38.0681C19.3862 38.2781 19.8993 38.4317 20.4022 38.611C20.3663 39.3331 20.5151 40.3728 21.3258 41.5763C21.3258 41.5763 20.7562 42.6262 19.7916 42.0526C19.7916 42.0526 19.0783 41.5046 19.6838 40.8491C19.6838 40.8491 20.0892 40.511 20.2636 40.9361C20.0584 40.9464 19.889 41.1154 19.889 41.3254C19.889 41.5354 20.0635 41.7146 20.279 41.7146C20.4945 41.7146 20.6587 41.5507 20.669 41.3459C20.6895 41.1871 20.6998 40.7825 20.3509 40.4906C20.3509 40.4906 20.043 40.1577 19.4632 40.2498C18.6165 40.383 18.1341 42.1499 19.8121 42.8874C19.8121 42.8874 21.1308 43.4866 21.8082 42.5033C21.8082 42.5033 21.7979 42.3599 22.0545 42.6057C23.4502 43.9527 26.5598 43.5635 27.7964 42.6467C27.7964 42.6467 28.1094 42.447 28.4532 42.2882C28.4686 42.8055 28.8945 43.2306 29.4231 43.2306C29.9516 43.2306 30.3878 42.7952 30.3878 42.2626C30.3878 41.7863 30.044 41.3919 29.5873 41.31C29.5667 41.3049 28.9458 41.1256 28.0479 41.6736C28.0479 41.6736 27.0934 42.2728 27.1499 42.1807C27.4732 41.6788 27.6681 40.9976 27.8067 40.2703C29.1614 40.4189 30.5571 40.5162 31.999 40.552C31.9836 40.972 31.922 41.4841 31.7629 41.8734C31.7629 41.8734 31.2549 42.0834 31.2396 42.4419C31.2396 42.4419 31.1831 42.7031 31.6347 43.0667C31.6347 43.0667 31.9631 43.4303 32.0606 43.712C32.0606 43.712 32.0862 44.1063 32.6301 44.1063C32.6712 44.1063 32.702 44.1063 32.7328 44.0961C32.7687 44.1012 32.7995 44.1063 32.8354 44.1063C33.3793 44.1063 33.405 43.712 33.405 43.712C33.5025 43.4303 33.8309 43.0667 33.8309 43.0667C34.2824 42.7031 34.226 42.4419 34.226 42.4419C34.2157 42.0834 33.7026 41.8734 33.7026 41.8734C33.5435 41.4841 33.4819 40.972 33.4665 40.552C34.9085 40.5213 36.3042 40.424 37.6588 40.2755C37.7974 41.0027 37.9975 41.6788 38.3157 42.1858C38.3721 42.278 37.4177 41.6787 37.4177 41.6787C36.5146 41.1307 35.8885 41.31 35.8731 41.3151C35.4165 41.3971 35.0778 41.7914 35.0778 42.2677C35.0778 42.8004 35.5088 43.2357 36.0425 43.2357C36.5761 43.2357 36.9969 42.8106 37.0123 42.2933C37.3561 42.4572 37.6691 42.6518 37.6691 42.6518C38.9006 43.5686 42.0153 43.9578 43.4111 42.6109C43.6625 42.365 43.6522 42.5084 43.6522 42.5084C44.3296 43.4866 45.6483 42.8925 45.6483 42.8925C47.3211 42.1602 46.8388 40.3881 45.9973 40.255C45.4174 40.1628 45.1044 40.4957 45.1044 40.4957C44.7606 40.7876 44.7657 41.1922 44.7863 41.351C44.7965 41.5558 44.9659 41.7197 45.1762 41.7197C45.3866 41.7197 45.5662 41.5507 45.5662 41.3305C45.5662 41.1103 45.3969 40.9515 45.1916 40.9413C45.3661 40.5213 45.7715 40.8542 45.7715 40.8542C46.377 41.5149 45.6637 42.0577 45.6637 42.0577C44.7042 42.6365 44.1295 41.5814 44.1295 41.5814C44.9351 40.3779 45.089 39.3433 45.0531 38.6212C45.556 38.442 46.0742 38.2832 46.5617 38.0732C47.8086 38.7646 48.9221 39.8862 48.9221 39.8862C50.9439 41.4432 54.5871 42.406 56.8244 40.0757C57.004 39.8913 57.1271 39.9579 57.163 40.0091C57.163 40.0091 57.163 40.0091 57.163 40.0143C57.2708 40.1423 57.4299 40.2294 57.6146 40.2294C57.8096 40.2294 57.9789 40.1269 58.0867 39.9835C58.1534 39.8606 58.1842 39.7531 58.1944 39.6609V39.6455C58.2047 39.415 58.0764 39.2716 58.0764 39.2716H58.0867ZM16.369 38.57C16.369 38.57 16.2561 38.6673 16.138 38.5239C14.963 37.0796 16.7589 35.4459 17.3285 36.4395C17.3285 36.4395 16.6512 36.4651 16.7282 36.9414C16.7282 36.9414 16.7384 37.433 17.349 37.4023C17.349 37.4023 18.1957 37.3152 17.9956 36.2961C17.9956 36.2961 17.8878 35.8351 17.3696 35.6815C17.3696 35.6815 15.8866 35.2769 15.2555 36.5675C15.2555 36.5675 15.1272 36.8748 15.1067 37.346C14.9322 37.2077 14.7423 37.1001 14.5268 37.0643C14.2497 36.7724 13.7622 34.4113 14.0753 33.1924C16.3433 32.7212 17.0412 30.8468 17.1489 30.3193C17.6107 30.4678 17.8776 31.0004 17.8981 31.2206C17.934 31.5279 17.7903 31.8455 17.9699 32.0964C18.2368 32.4652 18.8217 32.7981 19.1809 33.0439C19.3041 33.1207 20.9666 34.4062 21.1821 34.4523C21.4182 34.5035 21.567 34.3243 21.7722 34.3601C21.8441 34.3755 21.8954 34.4267 21.9518 34.4728C21.9518 34.4728 22.0699 34.5906 22.2392 34.7135C21.803 35.0003 21.2335 35.4152 20.4792 36.0809C20.4792 36.0809 19.9044 36.8236 16.3638 38.5751L16.369 38.57ZM21.9467 40.1782C21.9467 40.1782 21.803 40.7979 21.6901 40.9361C21.6901 40.9361 21.1924 40.045 21.1514 38.8875C21.5259 39.0104 21.9005 39.1436 22.2854 39.2512C22.1622 39.5431 22.0339 39.8299 21.9467 40.1833V40.1782ZM26.3904 42.2882C26.3904 42.2882 24.0198 43.2152 22.3931 41.5456C22.3931 41.5456 22.506 40.4957 22.9525 39.4048C24.2712 39.7428 25.6464 39.9938 27.0627 40.1782C26.9652 41.0795 26.7702 42.237 26.3904 42.2933V42.2882ZM24.0454 37.6891C24.5175 37.2486 25.1179 36.9465 25.8773 36.9362C25.8773 36.9362 26.9344 36.9209 27.1294 38.2422C25.9799 38.0783 24.9331 37.894 24.0454 37.6891ZM26.4058 36.1885C26.2776 36.2141 24.7228 36.3217 23.4348 37.5355C22.7215 37.3562 22.0801 37.1821 21.5773 37.0233C21.6799 36.8236 21.7876 36.6238 21.9416 36.4292C21.9416 36.4292 23.9531 33.9965 27.5553 35.3639C27.6271 35.3895 27.3962 35.9683 26.4058 36.1885ZM28.0581 38.3703C28.2069 36.9362 28.3147 35.7276 28.8381 35.7327C28.8381 35.7327 29.2127 35.7429 29.4692 36.0963C29.9208 36.7211 31.1369 37.4689 31.6962 38.6058C30.3929 38.57 29.1614 38.4983 28.0581 38.3703ZM33.759 38.6058C34.3132 37.4689 35.5345 36.7211 35.986 36.0963C36.2426 35.7429 36.6172 35.7327 36.6172 35.7327C37.1406 35.7327 37.2432 36.9362 37.3971 38.3703C36.2939 38.4983 35.0624 38.5751 33.759 38.6058ZM37.9 35.3639C41.5022 33.9965 43.5086 36.4292 43.5086 36.4292C43.6676 36.6238 43.7703 36.8287 43.878 37.0284C43.3751 37.1872 42.7337 37.3613 42.0256 37.5406C40.7376 36.3217 39.1777 36.2192 39.0494 36.1885C38.0591 35.9683 37.8282 35.3895 37.9 35.3639ZM39.578 36.9311C40.3425 36.9414 40.9429 37.2435 41.415 37.6891C40.5221 37.894 39.4805 38.0835 38.3259 38.2422C38.5209 36.9158 39.578 36.9311 39.578 36.9311ZM39.0648 42.2831C38.6902 42.2268 38.4901 41.0693 38.3926 40.173C39.814 39.9887 41.1841 39.7377 42.5079 39.4048C42.9492 40.4957 43.0621 41.5405 43.0621 41.5405C41.4304 43.2152 39.0648 42.2831 39.0648 42.2831ZM43.7651 40.9259C43.6522 40.7927 43.5086 40.1679 43.5086 40.1679C43.4213 39.8196 43.2982 39.5328 43.175 39.2409C43.5599 39.1334 43.9293 39.0053 44.3039 38.8824C44.2629 40.0347 43.7651 40.9208 43.7651 40.9208V40.9259Z" fill="white"/>
<path d="M73.7167 16.0968H72.0439L74.4402 7.28271H77.2932L79.6074 16.0968H77.6832L77.2265 14.1097H74.1888L73.7167 16.0968ZM75.4716 8.78332L74.5018 12.7269H76.9084L76.0052 8.78332H75.4665H75.4716Z" fill="white"/>
<path d="M86.2217 9.69493L86.1961 10.9599C85.8933 10.9446 85.4264 10.8831 84.9902 10.7397C85.2776 11.0009 85.5803 11.3287 85.6316 11.7435C85.6316 13.3107 84.0768 13.9355 82.989 13.9355C82.7427 13.9355 82.4399 13.8843 82.1628 13.8177C81.9678 13.8843 81.8498 14.0021 81.8498 14.1711C81.8498 14.8625 85.919 14.0533 85.919 16.4553C85.919 17.9559 84.4822 18.7805 82.871 18.7805C81.5214 18.7805 80.1616 18.1915 80.1616 17.0187C80.1616 16.1941 80.8133 15.7639 81.8601 15.6103C81.0596 15.5181 80.2642 15.2722 80.2642 14.5245C80.2642 13.9867 80.762 13.5975 81.4804 13.5463C80.839 13.1929 80.331 12.6603 80.331 11.7435C80.331 10.0432 81.9422 9.56177 82.9736 9.56177C83.6663 9.56177 85.1082 9.67956 86.2166 9.68981L86.2217 9.69493ZM82.7273 15.7281C82.1269 15.7793 81.7472 16.1173 81.7472 16.6704C81.7472 17.2235 82.2552 17.6384 82.9531 17.6384C83.7228 17.6384 84.2359 17.2491 84.2359 16.5782C84.2359 16.0149 83.7382 15.81 82.7324 15.7281H82.7273ZM84.1127 11.7333C84.1127 10.9753 83.4713 10.7807 82.9736 10.7807C82.4758 10.7807 81.8242 10.9753 81.8242 11.7333C81.8242 12.5425 82.4399 12.7371 82.9736 12.7371C83.5072 12.7371 84.1127 12.5425 84.1127 11.7333Z" fill="white"/>
<path d="M88.6694 13.3517C88.6694 14.3709 89.2441 14.9291 90.3165 14.9291C90.9682 14.9291 91.6404 14.6833 92.1997 14.3965L92.5281 15.6C91.9945 15.8868 91.117 16.2248 90.1061 16.2248C88.1306 16.2248 86.9555 14.9957 86.9555 12.8805C86.9555 10.9087 87.9099 9.56177 89.9625 9.56177C91.897 9.56177 92.6564 10.9958 92.6564 12.6039V13.3466H88.6642L88.6694 13.3517ZM89.8752 10.8165C89.0234 10.8165 88.6694 11.5848 88.6694 12.3427H91.0093C91.0093 11.5182 90.7578 10.8165 89.8701 10.8165H89.8752Z" fill="white"/>
<path d="M97.8031 16.0968V12.2967C97.8031 11.3287 97.4388 10.8729 96.6537 10.8729C96.2073 10.8729 95.8276 11.0675 95.53 11.2672V16.0968H93.8161V9.70006H94.9912L95.2529 10.4324C95.6172 10.0022 96.3253 9.57202 97.2797 9.57202C98.9012 9.57202 99.5427 10.5246 99.5427 12.143V16.1019H97.8031V16.0968Z" fill="white"/>
<path d="M105.916 15.6666C105.551 15.8612 104.684 16.23 103.72 16.23C101.811 16.23 100.656 15.1442 100.656 12.901C100.656 10.8114 101.806 9.57202 103.704 9.57202C104.556 9.57202 105.29 9.74103 105.9 10.0944L105.454 11.257C104.997 10.9804 104.407 10.8678 103.843 10.8678C102.955 10.8678 102.391 11.467 102.391 12.9061C102.391 14.3453 102.929 14.9445 103.858 14.9445C104.525 14.9445 105.182 14.6986 105.598 14.4631L105.911 15.6769L105.916 15.6666Z" fill="white"/>
<path d="M107.45 16.0969V10.9241L106.706 10.7654V9.69498H109.154V16.0917H107.455L107.45 16.0969ZM107.399 7.08813H109.128V8.63995H107.399V7.08813Z" fill="white"/>
<path d="M114.526 16.0968L114.29 15.3388C113.962 15.7844 113.32 16.2248 112.417 16.2248C111.134 16.2248 110.272 15.4003 110.272 14.1762C110.272 12.9522 111.15 12.2813 112.694 12.2813H114.044V11.9535C114.044 11.1289 113.572 10.8678 112.92 10.8678C112.161 10.8678 111.519 11.0624 110.996 11.298L110.565 10.0842C111.206 9.8076 112.084 9.56177 113.089 9.56177C114.906 9.56177 115.691 10.3966 115.691 12.0303V16.0917H114.526V16.0968ZM114.044 13.3005H112.982C112.273 13.3005 111.95 13.6385 111.95 14.125C111.95 14.714 112.263 15.0674 112.905 15.0674C113.31 15.0674 113.731 14.883 114.044 14.6372V13.3056V13.3005Z" fill="white"/>
<path d="M76.9751 29.6688L74.2298 22.7343H74.1785L74.2965 29.6688H72.752V20.8547H75.3792L78.1655 27.9327H78.2168L78.0988 20.8547H79.6844V29.6688H76.9751Z" fill="white"/>
<path d="M85.1493 29.6688L84.9132 28.9108C84.5848 29.3564 83.9434 29.7969 83.0403 29.7969C81.7575 29.7969 80.8954 28.9723 80.8954 27.7483C80.8954 26.5242 81.7729 25.8533 83.3174 25.8533H84.6669V25.5255C84.6669 24.701 84.1949 24.4398 83.5432 24.4398C82.7837 24.4398 82.1423 24.6344 81.6189 24.87L81.1879 23.6562C81.8293 23.3796 82.7068 23.1338 83.7125 23.1338C85.529 23.1338 86.3141 23.9686 86.3141 25.6024V29.6637H85.1493V29.6688ZM84.6669 26.8725H83.6048C82.8966 26.8725 82.5734 27.2105 82.5734 27.6971C82.5734 28.286 82.8864 28.6394 83.5278 28.6394C83.9332 28.6394 84.3539 28.455 84.6669 28.2092V26.8776V26.8725Z" fill="white"/>
<path d="M92.7796 29.2386C92.4152 29.4332 91.5481 29.802 90.5834 29.802C88.6745 29.802 87.52 28.7162 87.52 26.473C87.52 24.3834 88.6694 23.144 90.568 23.144C91.4198 23.144 92.1484 23.3131 92.7642 23.6664L92.3178 24.829C91.8611 24.5525 91.271 24.4398 90.7065 24.4398C89.8188 24.4398 89.2544 25.039 89.2544 26.4781C89.2544 27.9173 89.788 28.5165 90.7219 28.5165C91.389 28.5165 92.0458 28.2707 92.4614 28.0351L92.7744 29.2489L92.7796 29.2386Z" fill="white"/>
<path d="M94.3087 29.6689V24.4962L93.5647 24.3374V23.267H96.0123V29.6638H94.3138L94.3087 29.6689ZM94.2574 20.6602H95.9867V22.212H94.2574V20.6602Z" fill="white"/>
<path d="M103.196 26.4577C103.196 28.6394 102.098 29.802 100.189 29.802C98.2804 29.802 97.1823 28.6548 97.1823 26.4577C97.1823 24.5781 98.229 23.1389 100.189 23.1389C102.149 23.1389 103.196 24.5729 103.196 26.4577ZM101.441 26.4577C101.441 24.9161 100.985 24.3834 100.184 24.3834C99.3836 24.3834 98.9423 24.9314 98.9423 26.4577C98.9423 27.9839 99.3477 28.5472 100.184 28.5472C101.02 28.5472 101.441 27.9839 101.441 26.4577Z" fill="white"/>
<path d="M108.322 29.6688V25.8687C108.322 24.9007 107.958 24.4449 107.173 24.4449C106.727 24.4449 106.347 24.6395 106.049 24.8393V29.6688H104.335V23.2721H105.51L105.772 24.0045C106.136 23.5742 106.845 23.144 107.799 23.144C109.42 23.144 110.062 24.0966 110.062 25.715V29.674H108.322V29.6688Z" fill="white"/>
<path d="M115.286 29.6688L115.05 28.9108C114.721 29.3564 114.08 29.7969 113.177 29.7969C111.894 29.7969 111.032 28.9723 111.032 27.7483C111.032 26.5242 111.909 25.8533 113.454 25.8533H114.803V25.5255C114.803 24.701 114.331 24.4398 113.679 24.4398C112.92 24.4398 112.279 24.6344 111.755 24.87L111.324 23.6562C111.966 23.3796 112.843 23.1338 113.849 23.1338C115.665 23.1338 116.45 23.9686 116.45 25.6024V29.6637H115.286V29.6688ZM114.803 26.8725H113.741C113.033 26.8725 112.71 27.2105 112.71 27.6971C112.71 28.286 113.023 28.6394 113.664 28.6394C114.069 28.6394 114.49 28.455 114.803 28.2092V26.8776V26.8725Z" fill="white"/>
<path d="M117.826 27.9685V20.655H119.514V27.8763C119.514 28.409 119.842 28.4909 120.545 28.4909V29.6945C120.545 29.6945 120.047 29.7969 119.601 29.7969C118.293 29.7969 117.82 29.1055 117.82 27.9685H117.826Z" fill="white"/>
<path d="M128.422 23.7638C128.319 23.4002 128.263 23.0724 128.263 22.591V20.6602H129.961V29.6689H128.576L128.381 28.9621C128.119 29.3513 127.503 29.7969 126.682 29.7969C125.23 29.7969 124.065 28.7521 124.065 26.4679C124.065 24.3528 125.271 23.139 126.826 23.139C127.519 23.139 128.068 23.3746 128.422 23.7638ZM128.263 24.7318C128.001 24.573 127.596 24.4193 127.098 24.4193C126.287 24.4193 125.774 24.9673 125.774 26.4577C125.774 27.9481 126.256 28.5626 127.067 28.5626C127.498 28.5626 127.929 28.3527 128.258 28.0146V24.7369L128.263 24.7318Z" fill="white"/>
<path d="M132.845 26.9237C132.845 27.9429 133.42 28.5011 134.492 28.5011C135.144 28.5011 135.816 28.2553 136.375 27.9685L136.704 29.172C136.17 29.4588 135.293 29.7969 134.282 29.7969C132.306 29.7969 131.131 28.5677 131.131 26.4525C131.131 24.4807 132.086 23.1338 134.138 23.1338C136.073 23.1338 136.832 24.5678 136.832 26.176V26.9186H132.84L132.845 26.9237ZM134.051 24.3886C133.199 24.3886 132.845 25.1568 132.845 25.9148H135.185C135.185 25.0902 134.933 24.3886 134.046 24.3886H134.051Z" fill="white"/>
<path d="M72.9316 43.2409V34.4268H74.6454V43.2409H72.9316Z" fill="white"/>
<path d="M80.3207 43.2409V39.4407C80.3207 38.4727 79.9564 38.0169 79.1713 38.0169C78.7248 38.0169 78.3451 38.2115 78.0475 38.4113V43.2409H76.3336V36.8441H77.5087L77.7704 37.5765C78.1347 37.1463 78.8429 36.7161 79.7973 36.7161C81.4188 36.7161 82.0602 37.6687 82.0602 39.2871V43.246H80.3207V43.2409Z" fill="white"/>
<path d="M87.0735 43.2408H84.5746L82.6503 36.844H84.5746L85.9241 42.2113H85.9754L87.3096 36.844H89.0388L87.0787 43.2408H87.0735Z" fill="white"/>
<path d="M91.235 40.4957C91.235 41.5149 91.8097 42.0731 92.8822 42.0731C93.539 42.0731 94.2061 41.8273 94.7654 41.5405L95.0938 42.7441C94.555 43.0309 93.6827 43.3689 92.6718 43.3689C90.6963 43.3689 89.5212 42.1397 89.5212 40.0245C89.5212 38.0528 90.4756 36.7058 92.5281 36.7058C94.4627 36.7058 95.2221 38.1398 95.2221 39.748V40.4906H91.2299L91.235 40.4957ZM92.4409 37.9606C91.5891 37.9606 91.235 38.7288 91.235 39.4868H93.5749C93.5749 38.6622 93.3286 37.9606 92.4358 37.9606H92.4409Z" fill="white"/>
<path d="M97.8698 38.524C97.8698 39.5175 100.646 39.2154 100.646 41.3049C100.646 42.4675 99.7838 43.3689 98.1213 43.3689C97.3516 43.3689 96.6281 43.1487 96.197 42.8977L96.5511 41.7095C96.8538 41.9195 97.4799 42.1551 98.07 42.1551C98.6601 42.1551 99.0141 41.8427 99.0141 41.4483C99.0141 40.3011 96.2791 40.6801 96.2791 38.4983C96.2791 37.556 96.9975 36.7109 98.7268 36.7109C99.3938 36.7109 100.087 36.839 100.533 37.0233L100.297 38.2628C99.8659 38.0681 99.3169 37.935 98.7524 37.935C98.188 37.935 97.875 38.1552 97.875 38.524H97.8698Z" fill="white"/>
<path d="M104.228 43.369C103.088 43.369 102.344 42.8363 102.344 41.2282V38.0529H101.39V36.8391H102.344V35.7277L104.033 35.1797V36.8391H105.746V38.0529H104.033V41.1872C104.033 41.6328 104.253 41.9196 104.715 41.9196C105.069 41.9196 105.433 41.8172 105.695 41.684L105.957 42.9388C105.577 43.159 104.91 43.369 104.228 43.369Z" fill="white"/>
<path d="M107.45 43.2409V38.0682L106.706 37.9094V36.839H109.154V43.2358H107.455L107.45 43.2409ZM107.399 34.2322H109.128V35.784H107.399V34.2322Z" fill="white"/>
<path d="M116.384 36.839L116.358 38.104C116.055 38.0886 115.588 38.0272 115.152 37.8838C115.44 38.145 115.742 38.4727 115.794 38.8876C115.794 40.4548 114.239 41.0796 113.151 41.0796C112.905 41.0796 112.602 41.0284 112.325 40.9618C112.13 41.0284 112.012 41.1462 112.012 41.3152C112.012 42.0066 116.081 41.1974 116.081 43.5994C116.081 45.1 114.644 45.9245 113.033 45.9245C111.683 45.9245 110.324 45.3355 110.324 44.1627C110.324 43.3382 110.98 42.908 112.022 42.7543C111.227 42.6621 110.426 42.4163 110.426 41.6685C110.426 41.1308 110.924 40.7416 111.642 40.6903C111.001 40.337 110.493 39.8043 110.493 38.8876C110.493 37.1872 112.104 36.7058 113.136 36.7058C113.828 36.7058 115.27 36.8236 116.379 36.8338L116.384 36.839ZM112.889 42.8721C112.289 42.9233 111.909 43.2613 111.909 43.8145C111.909 44.3676 112.422 44.7824 113.115 44.7824C113.885 44.7824 114.398 44.3932 114.398 43.7223C114.398 43.1589 113.9 42.954 112.894 42.8721H112.889ZM114.275 38.8773C114.275 38.1193 113.633 37.9247 113.136 37.9247C112.638 37.9247 111.986 38.1193 111.986 38.8773C111.986 39.6865 112.602 39.8811 113.136 39.8811C113.669 39.8811 114.275 39.6865 114.275 38.8773Z" fill="white"/>
<path d="M121.315 43.2408L121.079 42.4829C120.75 42.9284 120.109 43.3689 119.206 43.3689C117.923 43.3689 117.061 42.5443 117.061 41.3203C117.061 40.0962 117.938 39.4253 119.483 39.4253H120.833V39.0976C120.833 38.273 120.36 38.0118 119.709 38.0118C118.949 38.0118 118.308 38.2064 117.785 38.442L117.354 37.2282C117.995 36.9516 118.872 36.7058 119.878 36.7058C121.695 36.7058 122.48 37.5406 122.48 39.1744V43.2357H121.315V43.2408ZM120.833 40.4445H119.77C119.062 40.4445 118.739 40.7825 118.739 41.2691C118.739 41.858 119.052 42.2114 119.693 42.2114C120.099 42.2114 120.52 42.0271 120.833 41.7812V40.4496V40.4445Z" fill="white"/>
<path d="M128.945 42.8107C128.581 43.0053 127.714 43.374 126.749 43.374C124.84 43.374 123.686 42.2883 123.686 40.045C123.686 37.9555 124.835 36.7161 126.734 36.7161C127.585 36.7161 128.314 36.8851 128.93 37.2385L128.483 38.401C128.027 38.1245 127.437 38.0118 126.872 38.0118C125.984 38.0118 125.42 38.611 125.42 40.0502C125.42 41.4893 125.954 42.0885 126.888 42.0885C127.555 42.0885 128.211 41.8427 128.627 41.6071L128.94 42.8209L128.945 42.8107Z" fill="white"/>
<path d="M130.474 43.2409V38.0682L129.73 37.9094V36.839H132.178V43.2358H130.479L130.474 43.2409ZM130.423 34.2322H132.152V35.784H130.423V34.2322Z" fill="white"/>
<path d="M139.362 40.0297C139.362 42.2114 138.264 43.374 136.355 43.374C134.446 43.374 133.348 42.2268 133.348 40.0297C133.348 38.1501 134.395 36.7109 136.355 36.7109C138.315 36.7109 139.362 38.1449 139.362 40.0297ZM134.769 35.8505L134.6 34.8723L137.91 33.9453L138.13 35.2001L134.769 35.8505ZM137.607 40.0297C137.607 38.4881 137.15 37.9555 136.35 37.9555C135.549 37.9555 135.108 38.5035 135.108 40.0297C135.108 41.5559 135.513 42.1192 136.35 42.1192C137.186 42.1192 137.607 41.5559 137.607 40.0297Z" fill="white"/>
<path d="M144.488 43.2409V39.4407C144.488 38.4727 144.124 38.0169 143.339 38.0169C142.892 38.0169 142.512 38.2115 142.215 38.4113V43.2409H140.501V36.8441H141.676L141.938 37.5765C142.302 37.1463 143.01 36.7161 143.965 36.7161C145.586 36.7161 146.227 37.6687 146.227 39.2871V43.246H144.488V43.2409Z" fill="white"/>
<path d="M75.0867 56.6694L73.8963 56.8794L71.9874 50.416H73.9117L75.2715 55.7833H75.2971L76.6723 50.416H78.3708L76.3952 56.9715C75.8462 58.8153 74.9174 59.4913 73.5935 59.4913C72.8751 59.4913 72.0644 59.0867 71.7873 58.8511L72.3261 57.6885H72.4852C72.5365 57.7295 73.0753 58.1444 73.6756 58.1444C74.3581 58.1444 74.7994 57.6732 75.0354 56.8537L75.0867 56.6694Z" fill="white"/>
<path d="M85.1236 56.9409C83.8408 56.9409 82.794 56.7053 81.9832 56.4697V47.9937H84.9286C87.4943 47.9937 89.1158 49.0384 89.1158 52.3162C89.1158 55.174 87.874 56.9409 85.1236 56.9409ZM84.8619 49.3816H83.6971V55.3225C83.9999 55.4147 84.5848 55.5069 85.216 55.5069C86.3654 55.5069 87.2942 54.8411 87.2942 52.306C87.2942 50.1754 86.6271 49.3816 84.8619 49.3816Z" fill="white"/>
<path d="M91.9021 54.0677C91.9021 55.0869 92.4768 55.6452 93.5493 55.6452C94.2061 55.6452 94.8731 55.3993 95.4325 55.1125L95.7609 56.3161C95.2221 56.6029 94.3497 56.9409 93.3389 56.9409C91.3633 56.9409 90.1882 55.7117 90.1882 53.5966C90.1882 51.6248 91.1427 50.2778 93.1952 50.2778C95.1297 50.2778 95.8891 51.7119 95.8891 53.32V54.0626H91.897L91.9021 54.0677ZM93.108 51.5326C92.2562 51.5326 91.9021 52.3008 91.9021 53.0588H94.242C94.242 52.2342 93.9957 51.5326 93.1028 51.5326H93.108Z" fill="white"/>
<path d="M98.5369 52.096C98.5369 53.0895 101.313 52.7874 101.313 54.8769C101.313 56.0395 100.451 56.9409 98.7884 56.9409C98.0187 56.9409 97.2951 56.7207 96.8641 56.4697L97.2182 55.2815C97.5209 55.4915 98.1469 55.7271 98.737 55.7271C99.3271 55.7271 99.6812 55.4147 99.6812 55.0203C99.6812 53.8731 96.9462 54.2521 96.9462 52.0704C96.9462 51.128 97.6646 50.283 99.3938 50.283C100.061 50.283 100.754 50.411 101.2 50.5954L100.964 51.8348C100.533 51.6402 99.984 51.507 99.4195 51.507C98.8551 51.507 98.542 51.7272 98.542 52.096H98.5369Z" fill="white"/>
<path d="M106.48 56.8129L106.244 56.0549C105.916 56.5005 105.274 56.9409 104.371 56.9409C103.088 56.9409 102.226 56.1163 102.226 54.8923C102.226 53.6683 103.104 52.9974 104.648 52.9974H105.998V52.6696C105.998 51.845 105.526 51.5838 104.874 51.5838C104.115 51.5838 103.473 51.7784 102.95 52.014L102.519 50.8002C103.16 50.5237 104.038 50.2778 105.043 50.2778C106.86 50.2778 107.645 51.1126 107.645 52.7464V56.8077H106.48V56.8129ZM105.998 54.0165H104.936C104.228 54.0165 103.904 54.3546 103.904 54.8411C103.904 55.4301 104.217 55.7834 104.859 55.7834C105.264 55.7834 105.685 55.5991 105.998 55.3532V54.0217V54.0165Z" fill="white"/>
<path d="M112.643 51.8348C112.433 51.7682 112.13 51.7324 111.842 51.7324C111.386 51.7324 110.98 51.927 110.693 52.1626V56.8129H108.995V50.4161H110.185L110.37 51.2765H110.411C110.606 50.8207 111.181 50.2983 111.94 50.2983C112.279 50.2983 112.54 50.3496 112.684 50.3905L112.643 51.8399V51.8348Z" fill="white"/>
<path d="M117.184 51.8348C116.974 51.7682 116.676 51.7324 116.384 51.7324C115.927 51.7324 115.522 51.927 115.234 52.1626V56.8129H113.536V50.4161H114.726L114.911 51.2765H114.952C115.147 50.8207 115.722 50.2983 116.481 50.2983C116.82 50.2983 117.082 50.3496 117.225 50.3905L117.184 51.8399V51.8348Z" fill="white"/>
<path d="M123.516 53.6017C123.516 55.7835 122.418 56.946 120.509 56.946C118.6 56.946 117.502 55.7988 117.502 53.6017C117.502 51.7221 118.549 50.283 120.509 50.283C122.469 50.283 123.516 51.717 123.516 53.6017ZM121.761 53.6017C121.761 52.0601 121.305 51.5275 120.504 51.5275C119.704 51.5275 119.262 52.0755 119.262 53.6017C119.262 55.1279 119.668 55.6913 120.504 55.6913C121.341 55.6913 121.761 55.1279 121.761 53.6017Z" fill="white"/>
<path d="M124.681 55.1126V47.7991H126.369V55.0204C126.369 55.553 126.698 55.635 127.401 55.635V56.8385C127.401 56.8385 126.903 56.941 126.456 56.941C125.148 56.941 124.676 56.2496 124.676 55.1126H124.681Z" fill="white"/>
<path d="M128.396 55.1126V47.7991H130.084V55.0204C130.084 55.553 130.413 55.635 131.116 55.635V56.8385C131.116 56.8385 130.618 56.941 130.172 56.941C128.863 56.941 128.391 56.2496 128.391 55.1126H128.396Z" fill="white"/>
<path d="M137.858 53.6017C137.858 55.7835 136.76 56.946 134.851 56.946C132.942 56.946 131.844 55.7988 131.844 53.6017C131.844 51.7221 132.891 50.283 134.851 50.283C136.812 50.283 137.858 51.717 137.858 53.6017ZM136.103 53.6017C136.103 52.0601 135.647 51.5275 134.846 51.5275C134.046 51.5275 133.604 52.0755 133.604 53.6017C133.604 55.1279 134.01 55.6913 134.846 55.6913C135.683 55.6913 136.103 55.1279 136.103 53.6017Z" fill="white"/>
<path d="M76.8519 72.7051L76.7493 68.6181H76.7185C76.6313 69.1354 76.544 69.5092 76.4825 69.7858L75.7949 72.7051H74.4094L73.7475 69.7858C73.6808 69.5041 73.5987 69.1354 73.5012 68.6181H73.4704L73.4037 72.7051H72.5416L72.7263 67.8601H74.3427C74.3427 67.8601 74.8764 70.2979 75.1534 71.8651H75.174C75.4972 70.3082 76.1284 67.8601 76.1284 67.8601H77.7191L77.9038 72.7051H76.8417H76.8519Z" fill="white"/>
<path d="M79.0122 72.7049V69.8625L78.6017 69.7754V69.1865H79.9461V72.6998H79.0122V72.7049ZM78.9814 67.7524H79.9307V68.6077H78.9814V67.7524Z" fill="white"/>
<path d="M82.9839 72.7049V70.6154C82.9839 70.0827 82.7837 69.8318 82.3527 69.8318C82.1064 69.8318 81.9011 69.9393 81.7369 70.0469V72.6998H80.7979V69.1864H81.4445L81.5881 69.5859C81.7883 69.3503 82.1782 69.1147 82.7016 69.1147C83.5945 69.1147 83.9434 69.6371 83.9434 70.5283V72.6998H82.989L82.9839 72.7049Z" fill="white"/>
<path d="M84.9953 72.7049V69.8625L84.5848 69.7754V69.1865H85.9293V72.6998H84.9953V72.7049ZM84.9646 67.7524H85.9139V68.6077H84.9646V67.7524Z" fill="white"/>
<path d="M87.5969 70.1186C87.5969 70.6614 89.1209 70.4976 89.1209 71.6448C89.1209 72.285 88.6489 72.7766 87.7355 72.7766C87.3096 72.7766 86.9145 72.6537 86.6784 72.5206L86.8734 71.8701C87.0376 71.9828 87.3814 72.1159 87.7047 72.1159C88.028 72.1159 88.223 71.9418 88.223 71.7267C88.223 71.0968 86.7195 71.3016 86.7195 70.1032C86.7195 69.5859 87.1146 69.1199 88.0639 69.1199C88.4282 69.1199 88.8131 69.1916 89.0542 69.294L88.926 69.9752C88.6899 69.8676 88.3872 69.7959 88.0793 69.7959C87.7714 69.7959 87.5969 69.9188 87.5969 70.1186Z" fill="white"/>
<path d="M91.1581 72.7767C90.532 72.7767 90.1215 72.4848 90.1215 71.5988V69.8574H89.5981V69.1917H90.1215V68.5822L91.0503 68.28V69.1917H91.9893V69.8574H91.0503V71.5783C91.0503 71.8241 91.1735 71.9777 91.4249 71.9777C91.6199 71.9777 91.82 71.9214 91.9637 71.8497L92.1074 72.536C91.897 72.6589 91.5327 72.7716 91.1581 72.7716V72.7767Z" fill="white"/>
<path d="M93.3338 71.1992C93.3338 71.7574 93.6519 72.0647 94.2369 72.0647C94.5961 72.0647 94.9655 71.9265 95.2734 71.7728L95.453 72.4335C95.1605 72.5922 94.6782 72.7766 94.124 72.7766C93.0361 72.7766 92.3896 72.1006 92.3896 70.938C92.3896 69.8574 92.913 69.1147 94.0419 69.1147C95.1041 69.1147 95.5248 69.9035 95.5248 70.7844V71.1941H93.3338V71.1992ZM93.9957 69.8062C93.5287 69.8062 93.3338 70.2312 93.3338 70.6461H94.6217C94.6217 70.1954 94.4832 69.8062 93.9957 69.8062Z" fill="white"/>
<path d="M98.2342 69.9752C98.1213 69.9393 97.952 69.9188 97.798 69.9188C97.5466 69.9188 97.3259 70.0264 97.1669 70.1544V72.7101H96.233V69.1967H96.8847L96.9873 69.6679H97.0078C97.1156 69.4169 97.4337 69.1301 97.8493 69.1301C98.0341 69.1301 98.1778 69.1609 98.2599 69.1813L98.2393 69.9752H98.2342Z" fill="white"/>
<path d="M99.0911 72.7049V69.8625L98.6806 69.7754V69.1865H100.025V72.6998H99.0911V72.7049ZM99.0603 67.7524H100.01V68.6077H99.0603V67.7524Z" fill="white"/>
<path d="M104.043 70.9431C104.043 72.1416 103.437 72.7817 102.391 72.7817C101.344 72.7817 100.738 72.1518 100.738 70.9431C100.738 69.9086 101.313 69.1199 102.391 69.1199C103.468 69.1199 104.043 69.9086 104.043 70.9431ZM103.078 70.9431C103.078 70.0981 102.827 69.801 102.391 69.801C101.954 69.801 101.708 70.1032 101.708 70.9431C101.708 71.7831 101.929 72.0903 102.391 72.0903C102.852 72.0903 103.078 71.7831 103.078 70.9431Z" fill="white"/>
<path d="M108.599 69.463C108.543 69.2633 108.512 69.084 108.512 68.8177V67.7576H109.446V72.7101H108.682L108.574 72.3208C108.43 72.5359 108.091 72.7818 107.64 72.7818C106.845 72.7818 106.203 72.2081 106.203 70.9534C106.203 69.7908 106.865 69.125 107.722 69.125C108.102 69.125 108.404 69.253 108.599 69.4681V69.463ZM108.512 69.9957C108.369 69.9086 108.148 69.8215 107.871 69.8215C107.424 69.8215 107.147 70.1237 107.147 70.938C107.147 71.7523 107.414 72.0955 107.861 72.0955C108.097 72.0955 108.333 71.9828 108.512 71.7933V69.9905V69.9957Z" fill="white"/>
<path d="M111.098 71.1992C111.098 71.7574 111.417 72.0647 112.002 72.0647C112.361 72.0647 112.73 71.9265 113.038 71.7728L113.218 72.4335C112.925 72.5922 112.443 72.7766 111.889 72.7766C110.801 72.7766 110.154 72.1006 110.154 70.938C110.154 69.8574 110.678 69.1147 111.807 69.1147C112.869 69.1147 113.29 69.9035 113.29 70.7844V71.1941H111.098V71.1992ZM111.76 69.8062C111.293 69.8062 111.098 70.2312 111.098 70.6461H112.386C112.386 70.1954 112.248 69.8062 111.76 69.8062Z" fill="white"/>
<path d="M117.574 72.7767C116.209 72.7767 115.475 71.8753 115.475 70.2569C115.475 68.7512 116.204 67.7883 117.574 67.7883C118.236 67.7883 118.831 67.9317 119.226 68.1981L118.867 68.9612C118.616 68.7665 118.18 68.6231 117.672 68.6231C116.866 68.6231 116.466 69.1916 116.466 70.2518C116.466 71.3734 116.866 71.947 117.661 71.947C118.133 71.947 118.611 71.7473 118.939 71.5014L119.242 72.2645C118.759 72.5923 118.216 72.7818 117.574 72.7818V72.7767Z" fill="white"/>
<path d="M119.986 72.7049V69.8625L119.575 69.7754V69.1865H120.92V72.6998H119.986V72.7049ZM119.955 67.7524H120.904V68.6077H119.955V67.7524Z" fill="white"/>
<path d="M122.582 71.1992C122.582 71.7574 122.9 72.0647 123.485 72.0647C123.845 72.0647 124.214 71.9265 124.522 71.7728L124.702 72.4335C124.409 72.5922 123.927 72.7766 123.373 72.7766C122.285 72.7766 121.638 72.1006 121.638 70.938C121.638 69.8574 122.162 69.1147 123.29 69.1147C124.353 69.1147 124.773 69.9035 124.773 70.7844V71.1941H122.582V71.1992ZM123.244 69.8062C122.777 69.8062 122.582 70.2312 122.582 70.6461H123.87C123.87 70.1954 123.732 69.8062 123.244 69.8062Z" fill="white"/>
<path d="M127.667 72.7049V70.6154C127.667 70.0827 127.467 69.8318 127.036 69.8318C126.79 69.8318 126.585 69.9393 126.421 70.0469V72.6998H125.482V69.1864H126.128L126.272 69.5859C126.472 69.3503 126.862 69.1147 127.385 69.1147C128.278 69.1147 128.627 69.6371 128.627 70.5283V72.6998H127.673L127.667 72.7049Z" fill="white"/>
<path d="M132.193 72.4693C131.993 72.5769 131.516 72.7766 130.987 72.7766C129.941 72.7766 129.304 72.1825 129.304 70.9482C129.304 69.801 129.936 69.1199 130.977 69.1199C131.444 69.1199 131.85 69.2121 132.183 69.4067L131.937 70.0469C131.685 69.8983 131.362 69.8318 131.054 69.8318C130.567 69.8318 130.259 70.1595 130.259 70.9534C130.259 71.7472 130.551 72.0699 131.064 72.0699C131.429 72.0699 131.788 71.9316 132.019 71.8035L132.193 72.4693Z" fill="white"/>
<path d="M133.107 72.7049V69.8625L132.696 69.7754V69.1865H134.041V72.6998H133.107V72.7049ZM133.076 67.7524H134.025V68.6077H133.076V67.7524Z" fill="white"/>
<path d="M137.063 72.7049L136.935 72.2901C136.755 72.5359 136.401 72.7766 135.908 72.7766C135.205 72.7766 134.728 72.3259 134.728 71.6499C134.728 70.9739 135.211 70.6102 136.057 70.6102H136.796V70.431C136.796 69.9803 136.54 69.8369 136.175 69.8369C135.76 69.8369 135.406 69.9444 135.118 70.0725L134.882 69.4067C135.236 69.2582 135.713 69.1199 136.268 69.1199C137.268 69.1199 137.699 69.5808 137.699 70.4771V72.71H137.058L137.063 72.7049ZM136.796 71.1685H136.216C135.826 71.1685 135.647 71.3528 135.647 71.6192C135.647 71.9418 135.821 72.1364 136.17 72.1364C136.391 72.1364 136.622 72.034 136.796 71.9008V71.1685Z" fill="white"/>
<path d="M138.433 71.696H139.382V72.7664C139.382 73.3708 139.039 73.6217 138.433 73.6832V73.1966C138.561 73.1659 138.654 73.0481 138.654 72.7101L138.433 72.6025V71.7012V71.696Z" fill="white"/>
<path d="M74.4197 77.8776V81.9236H73.4396V77.8776H72.2697V77.0837H75.6255V77.8776H74.4197Z" fill="white"/>
<path d="M76.1746 80.418C76.1746 80.9762 76.4927 81.2835 77.0777 81.2835C77.4369 81.2835 77.8064 81.1452 78.1142 80.9916L78.2938 81.6522C78.0014 81.811 77.519 81.9954 76.9648 81.9954C75.877 81.9954 75.2304 81.3193 75.2304 80.1568C75.2304 79.0761 75.7538 78.3335 76.8827 78.3335C77.9449 78.3335 78.3657 79.1222 78.3657 80.0031V80.4128H76.1746V80.418ZM76.8365 79.0249C76.3696 79.0249 76.1746 79.45 76.1746 79.8648H77.4626C77.4626 79.4141 77.324 79.0249 76.8365 79.0249Z" fill="white"/>
<path d="M81.8806 81.6881C81.6805 81.7956 81.2033 81.9954 80.6748 81.9954C79.6229 81.9954 78.9917 81.4013 78.9917 80.167C78.9917 79.0198 79.6229 78.3386 80.6645 78.3386C81.1315 78.3386 81.5368 78.4308 81.8704 78.6254L81.6241 79.2656C81.3726 79.1171 81.0494 79.0505 80.7415 79.0505C80.254 79.0505 79.9461 79.3783 79.9461 80.1721C79.9461 80.9659 80.2386 81.2886 80.7517 81.2886C81.1161 81.2886 81.4753 81.1503 81.7062 81.0223L81.8806 81.6881Z" fill="white"/>
<path d="M84.6875 81.9237V79.8341C84.6875 79.3015 84.4874 79.0505 84.0563 79.0505C83.81 79.0505 83.6048 79.1581 83.4354 79.2656V81.9185H82.4964V78.4052H83.1429L83.2866 78.8047C83.4867 78.5691 83.8767 78.3335 84.4001 78.3335C85.293 78.3335 85.6419 78.8559 85.6419 79.747V81.9185H84.6875V81.9237Z" fill="white"/>
<path d="M89.5725 80.1619C89.5725 81.3603 88.967 82.0005 87.9202 82.0005C86.8734 82.0005 86.2679 81.3706 86.2679 80.1619C86.2679 79.1273 86.8426 78.3386 87.9202 78.3386C88.9978 78.3386 89.5725 79.1273 89.5725 80.1619ZM88.6078 80.1619C88.6078 79.3168 88.3564 79.0198 87.9202 79.0198C87.484 79.0198 87.2377 79.322 87.2377 80.1619C87.2377 81.0018 87.4584 81.3091 87.9202 81.3091C88.382 81.3091 88.6078 81.0018 88.6078 80.1619Z" fill="white"/>
<path d="M90.2806 80.9916V76.9763H91.2094V80.9455C91.2094 81.2374 91.389 81.2835 91.779 81.2835V81.9442C91.779 81.9442 91.507 82.0005 91.2607 82.0005C90.5423 82.0005 90.2806 81.6215 90.2806 80.9967V80.9916Z" fill="white"/>
<path d="M95.5505 80.1619C95.5505 81.3603 94.945 82.0005 93.8982 82.0005C92.8514 82.0005 92.2459 81.3706 92.2459 80.1619C92.2459 79.1273 92.8206 78.3386 93.8982 78.3386C94.9758 78.3386 95.5505 79.1273 95.5505 80.1619ZM94.5858 80.1619C94.5858 79.3168 94.3344 79.0198 93.8982 79.0198C93.462 79.0198 93.2157 79.322 93.2157 80.1619C93.2157 81.0018 93.4364 81.3091 93.8982 81.3091C94.36 81.3091 94.5858 81.0018 94.5858 80.1619Z" fill="white"/>
<path d="M99.4452 78.4103L99.4298 79.1068C99.2656 79.1017 99.0039 79.0659 98.7678 78.9839C98.9269 79.1273 99.0911 79.3066 99.1219 79.5371C99.1219 80.3975 98.265 80.7406 97.6697 80.7406C97.5312 80.7406 97.367 80.7099 97.2182 80.674C97.1104 80.7099 97.0437 80.7765 97.0437 80.8686C97.0437 81.2476 99.281 80.8021 99.281 82.1234C99.281 82.948 98.4908 83.3987 97.6082 83.3987C96.8693 83.3987 96.1201 83.076 96.1201 82.4307C96.1201 81.98 96.4793 81.7444 97.054 81.6574C96.6178 81.6061 96.1765 81.473 96.1765 81.0633C96.1765 80.7713 96.4485 80.5511 96.8436 80.5255C96.4895 80.3309 96.2124 80.039 96.2124 79.5371C96.2124 78.6049 97.095 78.3386 97.6646 78.3386C98.0443 78.3386 98.8346 78.4052 99.4452 78.4103ZM97.5261 81.7239C97.1977 81.7547 96.9873 81.939 96.9873 82.2412C96.9873 82.5434 97.2695 82.7738 97.6492 82.7738C98.0751 82.7738 98.3522 82.5587 98.3522 82.1951C98.3522 81.8878 98.0802 81.77 97.5261 81.7291V81.7239ZM98.2906 79.5268C98.2906 79.112 97.9366 79.0044 97.6646 79.0044C97.3927 79.0044 97.0335 79.112 97.0335 79.5268C97.0335 79.9724 97.3721 80.0799 97.6646 80.0799C97.9571 80.0799 98.2906 79.9724 98.2906 79.5268Z" fill="white"/>
<path d="M99.83 77.8675L99.7377 77.3298L101.554 76.8176L101.677 77.5039L99.83 77.8624V77.8675ZM100.338 81.9289V79.0864L99.9275 78.9994V78.4104H101.272V81.9238H100.338V81.9289Z" fill="white"/>
<path d="M104.315 81.9237L104.187 81.5088C104.007 81.7547 103.653 81.9954 103.16 81.9954C102.457 81.9954 101.98 81.5447 101.98 80.8686C101.98 80.1926 102.462 79.829 103.309 79.829H104.048V79.6497C104.048 79.199 103.791 79.0556 103.427 79.0556C103.011 79.0556 102.657 79.1632 102.37 79.2912L102.134 78.6254C102.488 78.4769 102.965 78.3386 103.519 78.3386C104.52 78.3386 104.951 78.7996 104.951 79.6958V81.9288H104.31L104.315 81.9237ZM104.048 80.3872H103.468C103.078 80.3872 102.899 80.5716 102.899 80.8379C102.899 81.1606 103.073 81.3552 103.422 81.3552C103.643 81.3552 103.874 81.2528 104.048 81.1196V80.3872Z" fill="white"/>
<path d="M105.685 80.9148H106.634V81.9852C106.634 82.5895 106.29 82.8405 105.685 82.9019V82.4154C105.813 82.3847 105.906 82.2669 105.906 81.9289L105.685 81.8213V80.9199V80.9148Z" fill="white"/>
<path d="M110.965 81.9954C109.6 81.9954 108.866 81.094 108.866 79.4756C108.866 77.9699 109.595 77.0071 110.965 77.0071C111.627 77.0071 112.222 77.1505 112.617 77.4168L112.258 78.1799C112.007 77.9853 111.571 77.8419 111.063 77.8419C110.257 77.8419 109.857 78.4104 109.857 79.4705C109.857 80.5921 110.257 81.1657 111.052 81.1657C111.524 81.1657 112.002 80.966 112.33 80.7202L112.633 81.4833C112.15 81.8111 111.606 82.0005 110.965 82.0005V81.9954Z" fill="white"/>
<path d="M116.178 80.1619C116.178 81.3603 115.573 82.0005 114.526 82.0005C113.479 82.0005 112.874 81.3706 112.874 80.1619C112.874 79.1273 113.449 78.3386 114.526 78.3386C115.604 78.3386 116.178 79.1273 116.178 80.1619ZM115.214 80.1619C115.214 79.3168 114.962 79.0198 114.526 79.0198C114.09 79.0198 113.844 79.322 113.844 80.1619C113.844 81.0018 114.064 81.3091 114.526 81.3091C114.988 81.3091 115.214 81.0018 115.214 80.1619Z" fill="white"/>
<path d="M119.067 81.9237V79.8341C119.067 79.3015 118.867 79.0505 118.436 79.0505C118.19 79.0505 117.985 79.1581 117.815 79.2656V81.9185H116.876V78.4052H117.523L117.667 78.8047C117.867 78.5691 118.257 78.3335 118.78 78.3335C119.673 78.3335 120.022 78.8559 120.022 79.747V81.9185H119.067V81.9237Z" fill="white"/>
<path d="M123.952 80.1619C123.952 81.3603 123.347 82.0005 122.3 82.0005C121.253 82.0005 120.648 81.3706 120.648 80.1619C120.648 79.1273 121.223 78.3386 122.3 78.3386C123.378 78.3386 123.952 79.1273 123.952 80.1619ZM122.988 80.1619C122.988 79.3168 122.736 79.0198 122.3 79.0198C121.864 79.0198 121.618 79.322 121.618 80.1619C121.618 81.0018 121.838 81.3091 122.3 81.3091C122.762 81.3091 122.988 81.0018 122.988 80.1619Z" fill="white"/>
<path d="M127.457 81.6881C127.257 81.7956 126.78 81.9954 126.251 81.9954C125.204 81.9954 124.568 81.4013 124.568 80.167C124.568 79.0198 125.199 78.3386 126.241 78.3386C126.708 78.3386 127.113 78.4308 127.447 78.6254L127.201 79.2656C126.949 79.1171 126.626 79.0505 126.318 79.0505C125.83 79.0505 125.523 79.3783 125.523 80.1721C125.523 80.9659 125.815 81.2886 126.328 81.2886C126.693 81.2886 127.052 81.1503 127.283 81.0223L127.457 81.6881Z" fill="white"/>
<path d="M128.37 81.9237V79.0813L127.96 78.9942V78.4052H129.304V81.9186H128.37V81.9237ZM128.34 76.9712H129.289V77.8265H128.34V76.9712Z" fill="white"/>
<path d="M133.271 79.7522V81.9237H132.322V79.8341C132.322 79.3015 132.127 79.0505 131.69 79.0505C131.444 79.0505 131.259 79.1581 131.095 79.2656V81.9185H130.156V78.4052H130.787L130.946 78.8149C131.147 78.5691 131.49 78.3335 131.988 78.3335C132.563 78.3335 132.907 78.5076 133.086 78.8303C133.297 78.5793 133.661 78.3335 134.148 78.3335C135.154 78.3335 135.452 78.8559 135.452 79.747V81.9185H134.497V79.829C134.497 79.2963 134.277 79.0454 133.835 79.0454C133.604 79.0454 133.399 79.1529 133.24 79.2605C133.271 79.4039 133.276 79.5678 133.276 79.7419L133.271 79.7522Z" fill="white"/>
<path d="M136.493 81.9237V79.0813L136.083 78.9942V78.4052H137.427V81.9186H136.493V81.9237ZM136.463 76.9712H137.412V77.8265H136.463V76.9712Z" fill="white"/>
<path d="M139.09 80.418C139.09 80.9762 139.408 81.2835 139.993 81.2835C140.352 81.2835 140.722 81.1452 141.029 80.9916L141.209 81.6522C140.917 81.811 140.434 81.9954 139.88 81.9954C138.792 81.9954 138.146 81.3193 138.146 80.1568C138.146 79.0761 138.669 78.3335 139.798 78.3335C140.86 78.3335 141.281 79.1222 141.281 80.0031V80.4128H139.09V80.418ZM139.752 79.0249C139.285 79.0249 139.09 79.45 139.09 79.8648H140.378C140.378 79.4141 140.239 79.0249 139.752 79.0249Z" fill="white"/>
<path d="M144.175 81.9237V79.8341C144.175 79.3015 143.975 79.0505 143.544 79.0505C143.298 79.0505 143.092 79.1581 142.928 79.2656V81.9185H141.989V78.4052H142.636L142.779 78.8047C142.979 78.5691 143.369 78.3335 143.893 78.3335C144.786 78.3335 145.135 78.8559 145.135 79.747V81.9185H144.18L144.175 81.9237Z" fill="white"/>
<path d="M147.197 81.9955C146.571 81.9955 146.161 81.7035 146.161 80.8175V79.0762H145.637V78.4104H146.161V77.8009L147.09 77.4988V78.4104H148.029V79.0762H147.09V80.797C147.09 81.0429 147.213 81.1965 147.464 81.1965C147.659 81.1965 147.859 81.1402 148.003 81.0685L148.147 81.7547C147.936 81.8777 147.572 81.9903 147.197 81.9903V81.9955Z" fill="white"/>
<path d="M151.733 80.1619C151.733 81.3603 151.128 82.0005 150.081 82.0005C149.034 82.0005 148.429 81.3706 148.429 80.1619C148.429 79.1273 149.004 78.3386 150.081 78.3386C151.159 78.3386 151.733 79.1273 151.733 80.1619ZM150.769 80.1619C150.769 79.3168 150.517 79.0198 150.081 79.0198C149.645 79.0198 149.399 79.322 149.399 80.1619C149.399 81.0018 149.619 81.3091 150.081 81.3091C150.543 81.3091 150.769 81.0018 150.769 80.1619Z" fill="white"/>
<path d="M73.3934 89.6367C73.3934 90.1949 73.7116 90.5022 74.2965 90.5022C74.6557 90.5022 75.0252 90.364 75.3331 90.2103L75.5127 90.871C75.2202 91.0297 74.7378 91.2141 74.1836 91.2141C73.0958 91.2141 72.4492 90.5381 72.4492 89.3755C72.4492 88.2949 72.9726 87.5522 74.1015 87.5522C75.1637 87.5522 75.5845 88.341 75.5845 89.2219V89.6316H73.3934V89.6367ZM74.0554 88.2437C73.5884 88.2437 73.3934 88.6687 73.3934 89.0836H74.6814C74.6814 88.6329 74.5428 88.2437 74.0554 88.2437Z" fill="white"/>
<path d="M78.0321 91.1423V86.2974H78.9712V91.1423H78.0321Z" fill="white"/>
<path d="M82.168 91.1424V89.0529C82.168 88.5202 81.9679 88.2693 81.5368 88.2693C81.2905 88.2693 81.0853 88.3768 80.9159 88.4844V91.1373H79.9769V87.6239H80.6234L80.7671 88.0234C80.9672 87.7878 81.3572 87.5522 81.8806 87.5522C82.7735 87.5522 83.1224 88.0746 83.1224 88.9658V91.1373H82.168V91.1424Z" fill="white"/>
<path d="M86.0729 91.1424V89.0529C86.0729 88.5202 85.8728 88.2693 85.4418 88.2693C85.1955 88.2693 84.9902 88.3768 84.826 88.4844V91.1373H83.887V87.6239H84.5335L84.6772 88.0234C84.8773 87.7878 85.2673 87.5522 85.7907 87.5522C86.6836 87.5522 87.0325 88.0746 87.0325 88.9658V91.1373H86.0781L86.0729 91.1424Z" fill="white"/>
<path d="M90.958 89.3806C90.958 90.5791 90.3525 91.2192 89.3057 91.2192C88.2589 91.2192 87.6534 90.5893 87.6534 89.3806C87.6534 88.3461 88.2281 87.5574 89.3057 87.5574C90.3832 87.5574 90.958 88.3461 90.958 89.3806ZM89.9933 89.3806C89.9933 88.5356 89.7418 88.2385 89.3057 88.2385C88.8695 88.2385 88.6232 88.5407 88.6232 89.3806C88.6232 90.2206 88.8438 90.5278 89.3057 90.5278C89.7675 90.5278 89.9933 90.2206 89.9933 89.3806Z" fill="white"/>
<path d="M93.7186 91.1423H92.3486L91.2915 87.6289H92.3486L93.0875 90.5789H93.1183L93.852 87.6289H94.8013L93.7237 91.1423H93.7186Z" fill="white"/>
<path d="M97.4388 91.1424L97.3105 90.7276C97.1309 90.9734 96.7769 91.2141 96.2843 91.2141C95.5813 91.2141 95.1041 90.7634 95.1041 90.0874C95.1041 89.4114 95.5864 89.0477 96.4331 89.0477H97.172V88.8685C97.172 88.4178 96.9154 88.2744 96.5511 88.2744C96.1355 88.2744 95.7814 88.3819 95.4941 88.51L95.258 87.8442C95.6121 87.6957 96.0893 87.5574 96.6435 87.5574C97.6441 87.5574 98.0751 88.0183 98.0751 88.9146V91.1475H97.4337L97.4388 91.1424ZM97.172 89.606H96.5922C96.2022 89.606 96.0226 89.7903 96.0226 90.0567C96.0226 90.3793 96.197 90.5739 96.546 90.5739C96.7666 90.5739 96.9975 90.4715 97.172 90.3383V89.606Z" fill="white"/>
<path d="M101.698 90.9068C101.498 91.0144 101.021 91.2141 100.492 91.2141C99.4452 91.2141 98.8089 90.62 98.8089 89.3857C98.8089 88.2385 99.4401 87.5574 100.482 87.5574C100.949 87.5574 101.354 87.6496 101.688 87.8442L101.441 88.4844C101.19 88.3358 100.867 88.2693 100.559 88.2693C100.071 88.2693 99.7633 88.597 99.7633 89.3909C99.7633 90.1847 100.056 90.5074 100.569 90.5074C100.933 90.5074 101.298 90.3691 101.523 90.241L101.698 90.9068Z" fill="white"/>
<path d="M102.611 91.1424V88.3L102.201 88.2129V87.624H103.545V91.1373H102.611V91.1424ZM102.58 86.1899H103.53V87.0452H102.58V86.1899Z" fill="white"/>
<path d="M107.558 89.3805C107.558 90.5789 106.952 91.2191 105.906 91.2191C104.859 91.2191 104.253 90.5891 104.253 89.3805C104.253 88.3459 104.828 87.5572 105.906 87.5572C106.983 87.5572 107.558 88.3459 107.558 89.3805ZM105.033 87.086L104.941 86.5483L106.757 86.0361L106.88 86.7224L105.033 87.0809V87.086ZM106.593 89.3805C106.593 88.5354 106.342 88.2384 105.906 88.2384C105.469 88.2384 105.223 88.5405 105.223 89.3805C105.223 90.2204 105.444 90.5277 105.906 90.5277C106.367 90.5277 106.593 90.2204 106.593 89.3805Z" fill="white"/>
<path d="M110.447 91.1424V89.0529C110.447 88.5202 110.247 88.2693 109.816 88.2693C109.569 88.2693 109.364 88.3768 109.195 88.4844V91.1373H108.256V87.6239H108.902L109.046 88.0234C109.246 87.7878 109.636 87.5522 110.159 87.5522C111.052 87.5522 111.401 88.0746 111.401 88.9658V91.1373H110.447V91.1424Z" fill="white"/>
</g>
<defs>
<clipPath id="clip0_123_622">
<rect width="160" height="145" fill="white"/>
</clipPath>
</defs>
</svg>
