<svg width="390" height="91" viewBox="0 0 390 91" fill="none" xmlns="http://www.w3.org/2000/svg">
<g clip-path="url(#clip0_123_611)">
<path d="M381.014 30.3962C370.601 35.0147 364.81 39.9339 361.829 52.0387C358.29 68.0745 351.448 69.299 342.172 69.836H363.995C378.697 69.836 390 58.3435 390 43.618V17.9585C390 17.9585 389.185 26.7766 381.024 30.3855" fill="#00945E"/>
<path d="M347.534 42.9089L350.569 49.16L357.443 50.2126L352.435 55.0459L353.582 61.9199L347.438 58.644L341.271 61.8555L342.472 54.9922L337.529 50.0945L344.413 49.1278L347.534 42.9089Z" fill="#002169"/>
<path d="M361.196 40.6321L358.086 37.6461L353.85 38.5269L355.716 34.6495L353.582 30.8903L357.85 31.4595L360.746 28.2695L361.518 32.5121L365.453 34.2843L361.657 36.3358L361.196 40.6321Z" fill="#414786"/>
<path d="M372.07 29.0321L371.298 26.3254L368.649 25.4125L370.976 23.8551L371.019 21.041L373.217 22.7917L375.898 21.9647L374.922 24.5962L376.542 26.8839L373.754 26.7765L372.07 29.0321Z" fill="#8786B2"/>
<path d="M382.826 22.5555L381.764 21.2881L380.124 21.4599L381.003 20.0529L380.338 18.5492L381.947 18.9466L383.169 17.8511L383.287 19.4944L384.703 20.3322L383.18 20.9444L382.826 22.5555Z" fill="#B5B4D0"/>
<path d="M125.36 59.8578C125.028 59.557 124.588 59.3207 124.084 59.1596C123.569 58.9985 122.958 58.9233 122.293 58.9233H119.022V69.8359H120.695V65.8403H122.293C122.947 65.8403 123.537 65.7544 124.03 65.5933C124.545 65.4215 124.974 65.1744 125.317 64.8629C125.66 64.5515 125.929 64.1863 126.111 63.7566C126.293 63.327 126.379 62.8437 126.379 62.3389C126.379 61.8341 126.293 61.3507 126.132 60.9318C125.961 60.513 125.703 60.1478 125.371 59.847M122.293 64.4548H120.695V60.2874H122.293C123.108 60.2874 123.719 60.47 124.116 60.8352C124.513 61.1896 124.706 61.6944 124.706 62.3389C124.706 62.6504 124.652 62.9404 124.545 63.1981C124.438 63.4559 124.288 63.6815 124.084 63.8641C123.88 64.0466 123.623 64.197 123.333 64.3044C123.033 64.4118 122.679 64.4548 122.283 64.4548" fill="#002169"/>
<path d="M131.43 61.9951C131.248 61.9414 131.054 61.9199 130.829 61.9199C130.293 61.9199 129.821 62.0703 129.424 62.3925C129.114 62.6288 128.845 62.9403 128.631 63.3162L128.567 62.5214C128.545 62.3603 128.502 62.2421 128.416 62.1777C128.341 62.1025 128.213 62.0703 128.041 62.0703H127.162V69.8465H128.727V64.9488C128.92 64.4655 129.167 64.1003 129.457 63.8425C129.746 63.5955 130.1 63.4666 130.54 63.4666C130.786 63.4666 130.979 63.4881 131.108 63.531C131.258 63.5847 131.376 63.6062 131.462 63.6062C131.634 63.6062 131.752 63.5095 131.805 63.3269L131.987 62.2529L131.923 62.2099C131.773 62.124 131.612 62.0595 131.43 62.0058" fill="#002169"/>
<path d="M138.518 63.0262C138.186 62.6718 137.8 62.3925 137.339 62.2207C136.877 62.0273 136.352 61.9307 135.805 61.9307C135.258 61.9307 134.733 62.0273 134.272 62.2207C133.821 62.4033 133.424 62.6718 133.092 63.0262C132.77 63.3699 132.524 63.7995 132.341 64.2936C132.17 64.7769 132.084 65.3462 132.084 65.9369C132.084 66.5277 132.17 67.0969 132.341 67.5803C132.513 68.0743 132.77 68.504 133.092 68.8477C133.424 69.2021 133.821 69.4706 134.272 69.6532C134.722 69.8358 135.237 69.9325 135.805 69.9325C136.373 69.9325 136.888 69.8358 137.339 69.6532C137.789 69.4706 138.186 69.2021 138.518 68.8477C138.84 68.504 139.087 68.0743 139.258 67.5803C139.43 67.0969 139.516 66.5384 139.516 65.9369C139.516 65.3355 139.43 64.7769 139.258 64.2936C139.087 63.7995 138.84 63.3807 138.518 63.0262ZM135.805 63.2088C136.513 63.2088 137.028 63.4451 137.381 63.9177C137.725 64.3903 137.907 65.0777 137.907 65.9477C137.907 66.8177 137.735 67.4943 137.381 67.9777C137.038 68.4503 136.513 68.6758 135.805 68.6758C135.451 68.6758 135.13 68.6114 134.872 68.4932C134.604 68.3643 134.39 68.1925 134.218 67.9669C134.036 67.7414 133.907 67.4621 133.821 67.1184C133.725 66.7747 133.682 66.388 133.682 65.9477C133.682 65.5073 133.725 65.1206 133.821 64.7769C133.907 64.444 134.046 64.154 134.218 63.9177C134.39 63.6921 134.615 63.5203 134.872 63.3914C135.14 63.2732 135.451 63.2088 135.805 63.2088Z" fill="#002169"/>
<path d="M144.373 62.0273C144.073 61.9629 143.751 61.9199 143.43 61.9199C142.99 61.9199 142.604 61.9736 142.25 62.0918C141.875 62.2207 141.564 62.3925 141.306 62.6073C141.038 62.8221 140.835 63.0907 140.684 63.4129C140.534 63.7351 140.459 64.0788 140.459 64.4655C140.459 64.9488 140.577 65.3784 140.792 65.7329C140.974 66.0336 141.231 66.2914 141.532 66.4955C141.435 66.5599 141.349 66.6243 141.263 66.6888C141.135 66.7962 141.028 66.9143 140.942 67.0325C140.856 67.1506 140.792 67.2795 140.738 67.4084C140.695 67.5373 140.674 67.6662 140.674 67.7843C140.674 68.0851 140.749 68.3428 140.888 68.5147C140.974 68.6328 141.092 68.7403 141.221 68.8262C140.888 68.9766 140.631 69.1591 140.427 69.3847C140.17 69.664 140.041 70.0077 140.041 70.4158C140.041 70.6951 140.116 70.9636 140.255 71.2213C140.406 71.4791 140.62 71.7154 140.91 71.898C141.188 72.0913 141.542 72.2417 141.971 72.3599C142.389 72.4673 142.893 72.521 143.451 72.521C144.009 72.521 144.513 72.4458 144.974 72.3062C145.424 72.1558 145.81 71.9517 146.121 71.7154C146.432 71.4684 146.679 71.1784 146.851 70.8562C147.022 70.5339 147.108 70.201 147.108 69.8465C147.108 69.4921 147.033 69.1699 146.872 68.9228C146.722 68.6865 146.507 68.4932 146.25 68.3536C145.993 68.2247 145.714 68.128 145.403 68.0743C145.092 68.0099 144.781 67.9884 144.459 67.9884H143.537C143.247 67.9884 142.99 67.9669 142.743 67.9347C142.518 67.8917 142.347 67.8273 142.218 67.7414C142.1 67.6662 142.057 67.5695 142.057 67.4192C142.057 67.3332 142.089 67.2366 142.164 67.1399C142.229 67.0432 142.325 66.9466 142.454 66.8714C143.162 67.054 143.955 67.0217 144.599 66.8069C144.952 66.6888 145.263 66.5169 145.532 66.2914C145.789 66.0658 146.003 65.7973 146.153 65.4751C146.304 65.1636 146.379 64.8092 146.379 64.4225C146.379 64.0681 146.314 63.7351 146.186 63.4344L146.893 63.3377C147.247 63.2625 147.301 63.0262 147.301 62.9081V62.3066H145.167C144.92 62.167 144.663 62.0595 144.384 61.9844M143.505 71.3073C143.151 71.3073 142.84 71.2751 142.572 71.2213C142.314 71.1676 142.1 71.0817 141.928 70.9851C141.767 70.8884 141.65 70.7702 141.564 70.6414C141.489 70.5125 141.446 70.3728 141.446 70.2225C141.446 69.9862 141.521 69.7821 141.682 69.5995C141.843 69.4277 142.046 69.2773 142.293 69.1484C142.529 69.2128 142.786 69.2451 143.044 69.2451H143.826C144.062 69.2451 144.298 69.2558 144.556 69.288C144.792 69.3203 144.985 69.3632 145.145 69.4169C145.306 69.4706 145.435 69.5565 145.521 69.664C145.607 69.7499 145.649 69.8788 145.649 70.0506C145.649 70.2332 145.607 70.3943 145.51 70.5447C145.424 70.6951 145.285 70.8347 145.103 70.9421C144.91 71.0602 144.684 71.1462 144.416 71.2106C144.137 71.2643 143.837 71.3073 143.483 71.3073M144.942 64.4547C144.942 64.6695 144.91 64.8629 144.845 65.0347C144.781 65.2066 144.684 65.3569 144.566 65.4751C144.438 65.5932 144.277 65.6899 144.095 65.7651C143.708 65.9047 143.129 65.9047 142.765 65.7651C142.572 65.7006 142.422 65.5932 142.293 65.4751C142.164 65.3569 142.068 65.2066 142.003 65.0347C141.939 64.8629 141.896 64.6695 141.896 64.4547C141.896 64.0251 142.025 63.6921 142.282 63.4451C142.54 63.1873 142.915 63.0584 143.419 63.0584C143.923 63.0584 144.298 63.1873 144.566 63.4451C144.824 63.7029 144.952 64.0251 144.952 64.4547" fill="#002169"/>
<path d="M152.491 61.9951C152.309 61.9414 152.116 61.9199 151.891 61.9199C151.354 61.9199 150.883 62.0703 150.486 62.3925C150.186 62.6288 149.918 62.9403 149.692 63.3162L149.628 62.5214C149.607 62.3603 149.553 62.2421 149.478 62.1777C149.403 62.1025 149.274 62.0703 149.103 62.0703H148.223V69.8465H149.778V64.9488C149.971 64.4655 150.229 64.1003 150.518 63.8425C150.808 63.5955 151.161 63.4666 151.601 63.4666C151.848 63.4666 152.041 63.4881 152.169 63.531C152.32 63.5847 152.438 63.6062 152.534 63.6062C152.706 63.6062 152.824 63.5095 152.877 63.3269L153.06 62.2529L152.995 62.2099C152.845 62.124 152.684 62.0595 152.502 62.0058" fill="#002169"/>
<path d="M158.7 62.747C158.464 62.4892 158.185 62.2851 157.832 62.1347C157.499 61.9951 157.102 61.9199 156.663 61.9199C156.062 61.9199 155.515 62.0273 155.022 62.2314C154.529 62.4247 154.068 62.747 153.639 63.1551L153.574 63.2195L153.853 63.7244C153.896 63.7995 153.96 63.864 154.046 63.9392C154.239 64.0681 154.518 64.0573 154.765 63.8855C154.883 63.7995 155.011 63.7136 155.172 63.6169C155.322 63.5203 155.494 63.4344 155.73 63.3484C155.934 63.2732 156.191 63.2303 156.502 63.2303C156.963 63.2303 157.295 63.3699 157.521 63.6492C157.746 63.9284 157.875 64.3473 157.875 64.9166V65.3892C157.06 65.3892 156.362 65.4643 155.794 65.5932C155.172 65.7436 154.7 65.9262 154.336 66.141C153.95 66.3666 153.671 66.6243 153.499 66.9251C153.328 67.2258 153.242 67.5266 153.242 67.8488C153.242 68.2032 153.295 68.5147 153.413 68.794C153.531 69.0517 153.692 69.2773 153.896 69.4599C154.1 69.6317 154.336 69.7606 154.604 69.8465C154.872 69.9217 155.161 69.9754 155.462 69.9754C155.762 69.9754 156.041 69.954 156.277 69.9002C156.523 69.8465 156.749 69.7714 156.963 69.6747C157.188 69.5673 157.381 69.4491 157.574 69.3095C157.724 69.2021 157.875 69.084 158.014 68.9551L158.121 69.4491C158.153 69.6103 158.228 69.7284 158.336 69.7821C158.432 69.8358 158.55 69.8573 158.7 69.8573H159.408V64.9166C159.408 64.4869 159.354 64.0788 159.226 63.7136C159.108 63.3484 158.925 63.0262 158.7 62.7684M157.875 66.474V67.8703C157.735 68.0099 157.596 68.1388 157.456 68.2462C157.317 68.3643 157.156 68.461 156.984 68.5469C156.824 68.6328 156.641 68.6973 156.459 68.7403C156.116 68.8262 155.73 68.8477 155.397 68.751C155.269 68.708 155.151 68.6436 155.054 68.5684C154.958 68.4825 154.883 68.3858 154.829 68.2462C154.775 68.1173 154.743 67.9562 154.743 67.7736C154.743 67.591 154.797 67.4192 154.904 67.2688C155.022 67.1077 155.194 66.9788 155.44 66.8606C155.698 66.7425 156.03 66.6458 156.459 66.5706C156.856 66.4955 157.338 66.4632 157.885 66.4525" fill="#002169"/>
<path d="M170.797 62.7149C170.571 62.4571 170.293 62.2638 169.96 62.1349C169.445 61.9201 168.77 61.8664 168.094 62.0275C167.848 62.092 167.601 62.1886 167.376 62.3283C167.161 62.4679 166.957 62.6397 166.775 62.8438C166.657 62.9834 166.55 63.1338 166.464 63.3057C166.314 62.9297 166.11 62.629 165.842 62.3927C165.51 62.092 165.07 61.9416 164.534 61.9416C164.051 61.9416 163.622 62.049 163.269 62.2853C162.979 62.4679 162.711 62.6934 162.475 62.9512L162.411 62.4142C162.346 62.1779 162.185 62.0597 161.939 62.0597H161.038V69.836H162.593V64.1327C162.807 63.8534 163.054 63.6386 163.311 63.4668C163.569 63.3057 163.858 63.2197 164.159 63.2197C164.588 63.2197 164.909 63.3486 165.134 63.6279C165.36 63.9071 165.478 64.3368 165.478 64.906V69.836H167.033V64.906C167.033 64.6268 167.075 64.3797 167.161 64.1649C167.236 63.9501 167.344 63.7782 167.483 63.6386C167.622 63.499 167.783 63.3916 167.966 63.3271C168.148 63.252 168.33 63.2197 168.545 63.2197C168.995 63.2197 169.338 63.3594 169.585 63.6386C169.821 63.9179 169.949 64.3475 169.949 64.906V69.836H171.504V64.906C171.504 64.4442 171.44 64.0253 171.333 63.6601C171.215 63.2949 171.043 62.9727 170.807 62.7149" fill="#002169"/>
<path d="M178.175 62.747C177.949 62.4892 177.66 62.2851 177.306 62.1347C176.973 61.9951 176.577 61.9199 176.137 61.9199C175.536 61.9199 174.99 62.0273 174.496 62.2314C174.003 62.4247 173.542 62.747 173.113 63.1551L173.049 63.2195L173.338 63.7244C173.381 63.7995 173.435 63.864 173.531 63.9392C173.724 64.0681 174.003 64.0573 174.239 63.8855C174.357 63.7995 174.486 63.7136 174.646 63.6169C174.797 63.5203 174.968 63.4344 175.204 63.3484C175.408 63.2732 175.665 63.2303 175.976 63.2303C176.437 63.2303 176.77 63.3699 176.995 63.6492C177.231 63.9284 177.349 64.3473 177.349 64.9166V65.3892C176.545 65.3892 175.837 65.4643 175.268 65.5932C174.657 65.7436 174.175 65.9262 173.81 66.141C173.435 66.3666 173.145 66.6243 172.974 66.9251C172.802 67.2258 172.716 67.5266 172.716 67.8488C172.716 68.2032 172.77 68.5147 172.898 68.794C173.016 69.0517 173.177 69.2773 173.381 69.4599C173.574 69.6317 173.821 69.7606 174.089 69.8465C174.357 69.9217 174.646 69.9754 174.947 69.9754C175.247 69.9754 175.515 69.954 175.751 69.9002C175.998 69.8465 176.223 69.7714 176.448 69.6747C176.673 69.5673 176.866 69.4491 177.059 69.3095C177.209 69.2021 177.349 69.084 177.499 68.9551L177.606 69.4491C177.638 69.6103 177.713 69.7284 177.821 69.7821C177.917 69.8358 178.035 69.8573 178.185 69.8573H178.882V64.9166C178.882 64.4869 178.829 64.0788 178.711 63.7136C178.593 63.3484 178.41 63.0262 178.185 62.7684M177.36 66.474V67.8703C177.22 68.0099 177.081 68.1388 176.941 68.2462C176.802 68.3643 176.641 68.461 176.469 68.5469C176.309 68.6328 176.126 68.6973 175.944 68.7403C175.601 68.8262 175.215 68.8477 174.882 68.751C174.754 68.708 174.636 68.6436 174.539 68.5684C174.443 68.4825 174.368 68.3858 174.303 68.2462C174.25 68.1173 174.217 67.9562 174.217 67.7736C174.217 67.591 174.271 67.4192 174.378 67.2688C174.496 67.1077 174.679 66.9788 174.925 66.8606C175.183 66.7425 175.515 66.6458 175.933 66.5706C176.341 66.4955 176.813 66.4632 177.349 66.4525" fill="#002169"/>
<path d="M188.008 62.6396C187.794 62.4462 187.558 62.2851 187.29 62.1562C186.957 61.9951 186.539 61.9092 186.056 61.9092C185.531 61.9092 185.059 62.0166 184.63 62.2207C184.212 62.4355 183.858 62.7255 183.569 63.0799C183.279 63.4559 183.054 63.8747 182.904 64.3688C182.754 64.8629 182.668 65.3892 182.668 65.9584C182.668 66.6029 182.743 67.1721 182.871 67.6555C183.011 68.1495 183.215 68.5684 183.472 68.9014C183.729 69.2343 184.051 69.4921 184.416 69.664C184.78 69.8466 185.188 69.9217 185.638 69.9217C186.196 69.9217 186.689 69.7929 187.118 69.5566C187.472 69.3525 187.794 69.0947 188.083 68.7832L188.169 69.4599C188.233 69.6962 188.394 69.8143 188.641 69.8143H189.542V58.6011H187.987V62.6181L188.008 62.6396ZM188.008 63.9929V67.5695C187.751 67.9025 187.472 68.171 187.172 68.3536C186.861 68.5469 186.496 68.6436 186.089 68.6436C185.799 68.6436 185.542 68.5899 185.316 68.4932C185.091 68.3966 184.909 68.2355 184.759 68.0314C184.598 67.8166 184.491 67.5481 184.405 67.2044C184.319 66.8714 184.276 66.4525 184.276 65.9692C184.276 65.0777 184.459 64.3688 184.823 63.8855C185.177 63.4129 185.681 63.1873 186.346 63.1873C186.689 63.1873 187 63.2518 187.268 63.3699C187.536 63.4881 187.772 63.6922 187.997 63.9929" fill="#002169"/>
<path d="M197.67 65.9047C197.735 65.8188 197.756 65.6684 197.756 65.4214C197.756 64.8736 197.67 64.3795 197.509 63.9392C197.348 63.5095 197.123 63.1444 196.834 62.8329C196.544 62.5429 196.201 62.3173 195.804 62.1455C195.407 61.9951 194.968 61.9199 194.507 61.9199C193.949 61.9199 193.434 62.0166 192.995 62.2099C192.544 62.4032 192.158 62.6825 191.836 63.0262C191.526 63.3807 191.279 63.7888 191.118 64.2506C190.957 64.7232 190.871 65.2388 190.871 65.7651C190.871 66.4203 190.957 67.0217 191.15 67.5373C191.332 68.0529 191.59 68.4932 191.922 68.8477C192.255 69.2021 192.652 69.4706 193.102 69.6532C193.552 69.8358 194.046 69.9217 194.592 69.9217C194.871 69.9217 195.161 69.9002 195.44 69.8465C195.751 69.7928 196.019 69.7284 196.265 69.6317C196.555 69.5243 196.802 69.4062 197.016 69.2558C197.252 69.1054 197.456 68.9228 197.627 68.7188L197.692 68.6436L197.263 68.0851C197.113 67.881 196.877 67.8273 196.544 68.0421C196.437 68.1173 196.308 68.1925 196.115 68.2891C195.954 68.3751 195.751 68.4503 195.515 68.5362C195.279 68.6114 195.011 68.6436 194.689 68.6436C194.357 68.6436 194.046 68.5899 193.767 68.4717C193.499 68.3643 193.263 68.2032 193.07 67.9777C192.877 67.7521 192.716 67.4729 192.598 67.1399C192.491 66.8284 192.437 66.4525 192.416 66.0443H197.316C197.488 66.0443 197.606 65.9906 197.67 65.8832M192.48 64.981C192.576 64.4118 192.791 63.9606 193.113 63.6384C193.456 63.2947 193.938 63.1229 194.539 63.1229C194.828 63.1229 195.086 63.1766 195.3 63.2625C195.515 63.3592 195.708 63.4881 195.858 63.6707C196.008 63.8425 196.126 64.0573 196.201 64.2936C196.265 64.4977 196.308 64.734 196.319 64.981H192.469H192.48Z" fill="#002169"/>
<path d="M207.44 65.4C207.44 65.5074 207.482 65.6148 207.557 65.6899C207.633 65.7651 207.74 65.8081 207.868 65.8081H209.402V67.9777C209.209 68.0744 209.048 68.1388 208.909 68.2033C208.726 68.2785 208.533 68.3429 208.319 68.3966C208.115 68.4503 207.89 68.4933 207.654 68.5148C207.418 68.547 207.161 68.5577 206.871 68.5577C206.314 68.5577 205.799 68.461 205.338 68.2677C204.887 68.0851 204.48 67.8059 204.147 67.4514C203.815 67.097 203.558 66.6674 203.364 66.1518C203.182 65.6362 203.086 65.0455 203.086 64.3796C203.086 63.7137 203.171 63.1766 203.354 62.6718C203.536 62.1777 203.783 61.7374 204.115 61.3829C204.448 61.0285 204.855 60.76 205.316 60.5774C205.788 60.3841 206.324 60.2874 206.903 60.2874C207.3 60.2874 207.643 60.3196 207.954 60.3841C208.244 60.4485 208.501 60.5237 208.716 60.6096C208.93 60.7063 209.112 60.7922 209.263 60.8889C209.423 60.9963 209.563 61.0822 209.681 61.1466C209.799 61.2111 209.895 61.2433 210.002 61.2433C210.12 61.2433 210.292 61.2003 210.431 60.9855L210.893 60.2444L210.817 60.18C210.592 59.9759 210.335 59.7826 210.067 59.6C209.799 59.4281 209.498 59.2778 209.187 59.1596C208.866 59.0415 208.512 58.9448 208.158 58.8804C207.793 58.8159 207.386 58.7837 206.957 58.7837C206.11 58.7837 205.338 58.9233 204.651 59.1811C203.976 59.4496 203.375 59.8363 202.893 60.3196C202.41 60.8029 202.035 61.4044 201.767 62.0811C201.509 62.7685 201.381 63.5311 201.381 64.3581C201.381 65.1851 201.509 65.937 201.777 66.6136C202.045 67.3011 202.421 67.8918 202.893 68.3751C203.364 68.8585 203.944 69.2451 204.598 69.5244C205.252 69.7929 205.981 69.9325 206.764 69.9325C207.214 69.9325 207.633 69.911 208.008 69.8681C208.383 69.8251 208.748 69.7499 209.091 69.6425C209.434 69.5459 209.756 69.417 210.045 69.2773C210.335 69.1377 210.624 68.9551 210.903 68.7618L210.957 68.7296V64.444H207.45V65.3892L207.44 65.4Z" fill="#002169"/>
<path d="M218.753 65.9047C218.807 65.8188 218.839 65.6684 218.839 65.4214C218.839 64.8736 218.753 64.3795 218.592 63.9392C218.431 63.5095 218.206 63.1444 217.917 62.8329C217.627 62.5429 217.284 62.3173 216.887 62.1455C216.49 61.9951 216.051 61.9199 215.59 61.9199C215.032 61.9199 214.517 62.0166 214.067 62.2099C213.616 62.4032 213.23 62.6825 212.919 63.0262C212.608 63.3807 212.362 63.7888 212.201 64.2506C212.04 64.7232 211.954 65.2388 211.954 65.7651C211.954 66.4203 212.04 67.0217 212.233 67.5373C212.415 68.0529 212.683 68.4932 213.005 68.8477C213.338 69.2021 213.734 69.4706 214.185 69.6532C214.624 69.8358 215.128 69.9217 215.665 69.9217C215.943 69.9217 216.233 69.9002 216.512 69.8465C216.823 69.7928 217.091 69.7284 217.338 69.6317C217.627 69.5243 217.874 69.4062 218.099 69.2558C218.335 69.1054 218.539 68.9228 218.71 68.7188L218.764 68.6436L218.335 68.0851C218.185 67.881 217.949 67.8273 217.627 68.0421C217.52 68.1173 217.38 68.1925 217.198 68.2891C217.027 68.3751 216.823 68.4503 216.598 68.5362C216.362 68.6114 216.094 68.6436 215.772 68.6436C215.429 68.6436 215.118 68.5899 214.85 68.4717C214.582 68.3643 214.346 68.2032 214.153 67.9777C213.96 67.7521 213.799 67.4729 213.681 67.1399C213.573 66.8284 213.52 66.4525 213.498 66.0443H218.399C218.571 66.0443 218.689 65.9906 218.753 65.8832M213.563 64.981C213.659 64.4118 213.874 63.9606 214.195 63.6384C214.539 63.2947 215.021 63.1229 215.622 63.1229C215.911 63.1229 216.169 63.1766 216.383 63.2625C216.598 63.3592 216.791 63.4881 216.941 63.6707C217.091 63.8425 217.209 64.0573 217.284 64.2936C217.348 64.4977 217.391 64.734 217.402 64.981H213.552H213.563Z" fill="#002169"/>
<path d="M224.469 65.9906C224.276 65.8403 224.061 65.7114 223.815 65.604C223.579 65.4966 223.332 65.4106 223.085 65.3247C222.839 65.2388 222.603 65.1636 222.367 65.0992C222.131 65.024 221.938 64.9381 221.756 64.8521C221.595 64.7662 221.455 64.6695 221.348 64.5514C221.252 64.444 221.209 64.3044 221.209 64.1432C221.209 64.0036 221.241 63.8855 221.295 63.7673C221.348 63.6492 221.434 63.5525 221.552 63.4558C221.67 63.3699 221.809 63.2947 221.97 63.241C222.356 63.1229 222.828 63.1336 223.171 63.241C223.375 63.3055 223.525 63.3699 223.643 63.4236C223.772 63.4881 223.89 63.5418 223.986 63.6062C224.297 63.7888 224.555 63.7029 224.673 63.4881L225.016 62.9188L224.951 62.8544C224.651 62.5644 224.286 62.3388 223.89 62.1777C223.482 62.0166 223.01 61.9307 222.517 61.9307C222.077 61.9307 221.681 61.9951 221.337 62.1133C220.994 62.2314 220.694 62.4033 220.458 62.6073C220.211 62.8221 220.029 63.0692 219.911 63.3484C219.793 63.6277 219.729 63.9284 219.729 64.2292C219.729 64.5729 219.783 64.8629 219.9 65.1099C220.018 65.3569 220.19 65.561 220.372 65.7114C220.565 65.8725 220.78 66.0014 221.037 66.1195C221.273 66.2162 221.52 66.3129 221.766 66.3988L222.002 66.474C222.163 66.5277 222.335 66.5814 222.496 66.6351C222.71 66.6995 222.914 66.7747 223.107 66.8714C223.278 66.968 223.418 67.0755 223.514 67.1936C223.611 67.3117 223.654 67.4514 223.654 67.634C223.654 67.7843 223.622 67.924 223.568 68.0636C223.504 68.2032 223.429 68.3214 223.311 68.418C223.193 68.5254 223.043 68.6006 222.871 68.6651C222.689 68.7295 222.463 68.7617 222.228 68.7617C221.949 68.7617 221.702 68.7188 221.509 68.6651C221.316 68.6006 221.155 68.5254 221.016 68.4395C220.876 68.3643 220.758 68.2891 220.662 68.214C220.415 68.0421 220.169 68.0636 220.04 68.1603C219.965 68.2032 219.911 68.2677 219.858 68.3536L219.493 68.9443L219.568 69.0088C219.868 69.2773 220.244 69.5136 220.683 69.6962C221.112 69.868 221.616 69.9539 222.163 69.9539C222.646 69.9539 223.064 69.8895 223.418 69.7606C223.793 69.621 224.093 69.4491 224.351 69.2236C224.608 68.998 224.801 68.7295 224.93 68.418C225.059 68.1066 225.123 67.7629 225.123 67.4084C225.123 67.0862 225.059 66.8177 224.941 66.5814C224.823 66.3451 224.662 66.1518 224.469 65.9906Z" fill="#002169"/>
<path d="M230.335 68.2786L230.131 68.3538L229.949 68.4719C229.884 68.5149 229.798 68.5578 229.702 68.5901C229.616 68.6223 229.509 68.6438 229.38 68.6438C229.166 68.6438 228.994 68.5686 228.865 68.4397C228.737 68.3108 228.672 68.096 228.672 67.8167V63.4023H230.828V62.2101H228.672V59.6108H227.89C227.772 59.6108 227.675 59.6431 227.6 59.7075C227.525 59.772 227.482 59.8579 227.461 59.9653L227.171 62.2101L225.927 62.3712V63.0049C225.927 63.1445 225.97 63.2412 226.045 63.3164C226.12 63.3916 226.217 63.413 226.324 63.413H227.118V67.9241C227.118 68.5793 227.289 69.0949 227.632 69.4386C227.975 69.793 228.469 69.9756 229.091 69.9756C229.455 69.9756 229.798 69.9112 230.131 69.7823C230.463 69.6534 230.753 69.4815 231 69.256L231.064 69.1915L230.624 68.4719C230.528 68.3323 230.41 68.3001 230.345 68.3001" fill="#002169"/>
<path d="M233.788 62.0596H232.233V69.8358H233.788V62.0596Z" fill="#002169"/>
<path d="M233.777 59.0415C233.68 58.9448 233.562 58.8696 233.434 58.8159C233.176 58.7085 232.855 58.7085 232.608 58.8159C232.479 58.8696 232.372 58.9448 232.276 59.0415C232.179 59.1381 232.104 59.2455 232.04 59.3744C231.986 59.5141 231.954 59.6429 231.954 59.7933C231.954 59.9329 231.986 60.0726 232.04 60.2015C232.093 60.3196 232.168 60.427 232.276 60.5344C232.372 60.6311 232.479 60.7063 232.608 60.76C232.726 60.8137 232.876 60.8459 233.016 60.8459C233.166 60.8459 233.305 60.8244 233.423 60.76C233.552 60.7063 233.67 60.6311 233.766 60.5237C233.873 60.4163 233.949 60.3089 234.002 60.1907C234.056 60.0618 234.088 59.9329 234.088 59.7826C234.088 59.6322 234.067 59.4926 234.002 59.3637C233.938 59.2348 233.863 59.1166 233.766 59.0307" fill="#002169"/>
<path d="M241.627 63.0262C241.305 62.6718 240.908 62.3925 240.458 62.2207C239.997 62.0273 239.471 61.9307 238.924 61.9307C238.377 61.9307 237.852 62.0273 237.391 62.2207C236.94 62.4033 236.544 62.6718 236.211 63.0262C235.89 63.3699 235.643 63.7995 235.461 64.2936C235.289 64.7769 235.203 65.3462 235.203 65.9369C235.203 66.5277 235.289 67.0969 235.461 67.5803C235.632 68.0743 235.89 68.504 236.211 68.8477C236.544 69.2021 236.94 69.4706 237.391 69.6532C237.841 69.8358 238.367 69.9325 238.924 69.9325C239.482 69.9325 240.007 69.8358 240.458 69.6532C240.908 69.4706 241.305 69.2021 241.627 68.8477C241.948 68.504 242.195 68.0743 242.367 67.5803C242.538 67.0969 242.624 66.5384 242.624 65.9369C242.624 65.3355 242.538 64.7769 242.367 64.2936C242.195 63.8103 241.948 63.3807 241.627 63.0262ZM238.914 63.2088C239.621 63.2088 240.136 63.4451 240.49 63.9177C240.844 64.3903 241.015 65.0777 241.015 65.9477C241.015 66.8177 240.833 67.4943 240.49 67.9777C240.147 68.4503 239.632 68.6758 238.914 68.6758C238.549 68.6758 238.238 68.6114 237.981 68.4932C237.713 68.3643 237.498 68.1925 237.327 67.9669C237.144 67.7414 237.016 67.4621 236.93 67.1184C236.844 66.7747 236.79 66.388 236.79 65.9477C236.79 65.5073 236.833 65.1206 236.93 64.7769C237.016 64.444 237.155 64.154 237.327 63.9177C237.498 63.6921 237.723 63.5203 237.981 63.3914C238.249 63.2732 238.56 63.2088 238.914 63.2088Z" fill="#002169"/>
<path d="M239.203 61.1037C239.278 61.0715 239.353 61.007 239.439 60.9211L241.348 58.8052H239.793C239.611 58.8052 239.471 58.8374 239.364 58.9018C239.267 58.9663 239.182 59.063 239.107 59.1918L237.895 61.1681H238.892C239.01 61.1681 239.117 61.1466 239.203 61.1144" fill="#002169"/>
<path d="M249.723 62.7577C249.498 62.4892 249.219 62.2851 248.887 62.1455C248.565 61.9951 248.179 61.9307 247.75 61.9307C247.203 61.9307 246.71 62.0488 246.292 62.2851C245.948 62.4677 245.627 62.7147 245.326 63.0047L245.251 62.414C245.187 62.1777 245.026 62.0596 244.79 62.0596H243.879V69.8358H245.434V64.2077C245.691 63.9177 245.991 63.6814 246.313 63.4988C246.635 63.327 246.989 63.2303 247.353 63.2303C247.846 63.2303 248.222 63.3699 248.458 63.6599C248.694 63.9499 248.822 64.3688 248.822 64.9166V69.8465H250.388V64.9166C250.388 64.4762 250.334 64.0788 250.216 63.7136C250.098 63.3484 249.938 63.0262 249.712 62.7684" fill="#002169"/>
<path d="M259.514 62.6396C259.299 62.4462 259.063 62.2851 258.795 62.1562C258.452 61.9951 258.045 61.9092 257.562 61.9092C257.037 61.9092 256.554 62.0166 256.136 62.2207C255.718 62.4355 255.364 62.7255 255.074 63.0799C254.774 63.4559 254.56 63.8747 254.409 64.3688C254.259 64.8629 254.184 65.3892 254.184 65.9584C254.184 66.6029 254.259 67.1721 254.388 67.6555C254.527 68.1495 254.72 68.5684 254.978 68.9014C255.235 69.2343 255.557 69.4921 255.921 69.664C256.286 69.8466 256.694 69.9217 257.144 69.9217C257.702 69.9217 258.195 69.7929 258.624 69.5566C258.978 69.3525 259.299 69.0947 259.589 68.7832L259.675 69.4599C259.739 69.6962 259.911 69.8143 260.147 69.8143H261.047V58.6011H259.492V62.6181L259.514 62.6396ZM259.514 63.9929V67.5695C259.256 67.9025 258.967 68.171 258.677 68.3536C258.366 68.5469 258.002 68.6436 257.605 68.6436C257.316 68.6436 257.058 68.5899 256.833 68.4932C256.608 68.3966 256.425 68.2355 256.275 68.0314C256.125 67.8166 256.007 67.5481 255.921 67.2044C255.836 66.8714 255.803 66.4525 255.803 65.9692C255.803 65.0777 255.986 64.3688 256.35 63.8855C256.704 63.4129 257.208 63.1873 257.884 63.1873C258.216 63.1873 258.527 63.2518 258.806 63.3699C259.063 63.4881 259.31 63.6922 259.535 63.9929" fill="#002169"/>
<path d="M269.026 65.9047C269.079 65.8188 269.112 65.6684 269.112 65.4214C269.112 64.8736 269.026 64.3795 268.865 63.9392C268.704 63.5095 268.479 63.1444 268.189 62.8329C267.9 62.5429 267.557 62.3173 267.16 62.1455C266.763 61.9951 266.323 61.9199 265.862 61.9199C265.305 61.9199 264.79 62.0166 264.35 62.2099C263.9 62.4032 263.514 62.6825 263.192 63.0262C262.881 63.3807 262.645 63.7888 262.474 64.2506C262.302 64.7232 262.227 65.2388 262.227 65.7651C262.227 66.4203 262.323 67.0217 262.506 67.5373C262.688 68.0529 262.956 68.4932 263.278 68.8477C263.61 69.2021 264.007 69.4706 264.457 69.6532C264.897 69.8358 265.401 69.9217 265.937 69.9217C266.216 69.9217 266.495 69.9002 266.785 69.8465C267.096 69.7928 267.364 69.7284 267.61 69.6317C267.889 69.5243 268.136 69.4062 268.361 69.2558C268.597 69.1054 268.801 68.9228 268.983 68.7188L269.047 68.6436L268.618 68.0851C268.468 67.881 268.232 67.8273 267.9 68.0421C267.793 68.1173 267.664 68.1925 267.471 68.2891C267.31 68.3751 267.096 68.4503 266.87 68.5362C266.634 68.6114 266.356 68.6436 266.045 68.6436C265.701 68.6436 265.401 68.5899 265.122 68.4717C264.854 68.3643 264.618 68.2032 264.425 67.9777C264.232 67.7521 264.071 67.4729 263.953 67.1399C263.846 66.8284 263.793 66.4525 263.771 66.0443H268.672C268.843 66.0443 268.961 65.9906 269.026 65.8832M263.836 64.981C263.932 64.4118 264.136 63.9606 264.457 63.6384C264.801 63.2947 265.283 63.1229 265.894 63.1229C266.184 63.1229 266.431 63.1766 266.656 63.2625C266.87 63.3592 267.063 63.4881 267.213 63.6707C267.374 63.8425 267.482 64.0573 267.567 64.2936C267.632 64.4977 267.675 64.734 267.685 64.981H263.846H263.836Z" fill="#002169"/>
<path d="M272.125 58.6226H270.57V69.8358H272.125V58.6226Z" fill="#002169"/>
<path d="M284.329 67.5373C284.146 67.6985 283.964 67.8488 283.782 67.9562C283.578 68.0851 283.396 68.1818 283.203 68.2462C283.01 68.3214 282.795 68.3751 282.527 68.4181C282.28 68.4503 281.991 68.4718 281.691 68.4718C281.187 68.4718 280.715 68.3751 280.275 68.1925C279.835 68.0099 279.46 67.7414 279.138 67.3977C278.817 67.0433 278.559 66.6136 278.377 66.1088C278.195 65.604 278.098 65.0133 278.098 64.3688C278.098 63.7244 278.195 63.1659 278.377 62.6503C278.559 62.1455 278.827 61.7159 279.149 61.3615C279.481 61.007 279.878 60.7385 280.329 60.5559C280.79 60.3733 281.304 60.2659 281.851 60.2659C282.141 60.2659 282.42 60.2981 282.666 60.3411C282.902 60.3841 283.106 60.4378 283.288 60.5129C283.471 60.5774 283.621 60.6526 283.75 60.7278C283.878 60.8029 283.996 60.8781 284.093 60.9533C284.189 61.0178 284.275 61.0822 284.35 61.1252C284.543 61.254 284.758 61.2326 284.875 61.1466L285.026 60.9963L285.551 60.2444L285.476 60.1692C285.026 59.7504 284.511 59.4067 283.932 59.1596C283.342 58.9126 282.645 58.7837 281.851 58.7837C281.058 58.7837 280.296 58.9233 279.632 59.1918C278.967 59.4604 278.388 59.847 277.894 60.3411C277.412 60.8352 277.036 61.4259 276.768 62.1133C276.511 62.79 276.372 63.5526 276.372 64.3688C276.372 65.1851 276.49 65.937 276.736 66.6244C276.983 67.3011 277.337 67.9025 277.787 68.3859C278.238 68.8692 278.784 69.2559 279.428 69.5351C280.061 69.8036 280.79 69.9433 281.562 69.9433C282.452 69.9433 283.224 69.7929 283.867 69.5136C284.5 69.2236 285.047 68.8155 285.497 68.2999L285.562 68.214L284.929 67.5159C284.758 67.3333 284.511 67.3333 284.307 67.5159" fill="#002169"/>
<path d="M291.546 62.747C291.32 62.4892 291.031 62.2851 290.677 62.1347C290.345 61.9951 289.948 61.9199 289.508 61.9199C288.908 61.9199 288.35 62.0273 287.857 62.2314C287.363 62.4247 286.902 62.747 286.473 63.1551L286.409 63.2195L286.688 63.7244C286.731 63.7995 286.795 63.864 286.881 63.9392C287.074 64.0681 287.342 64.0573 287.599 63.8855C287.717 63.7995 287.846 63.7136 288.007 63.6169C288.146 63.5203 288.329 63.4344 288.554 63.3484C288.757 63.2732 289.026 63.2303 289.337 63.2303C289.798 63.2303 290.13 63.3699 290.355 63.6492C290.591 63.9284 290.709 64.3473 290.709 64.9166V65.3892C289.905 65.3892 289.197 65.4643 288.629 65.5932C288.018 65.7436 287.535 65.9262 287.16 66.141C286.784 66.3666 286.506 66.6243 286.334 66.9251C286.152 67.2258 286.066 67.5266 286.066 67.8488C286.066 68.2032 286.119 68.5147 286.248 68.794C286.366 69.0517 286.527 69.2773 286.72 69.4599C286.924 69.6317 287.16 69.7606 287.428 69.8465C287.696 69.9217 287.985 69.9754 288.286 69.9754C288.586 69.9754 288.865 69.954 289.101 69.9002C289.347 69.8465 289.573 69.7714 289.787 69.6747C290.012 69.5673 290.216 69.4491 290.409 69.3095C290.548 69.2021 290.698 69.084 290.849 68.9551L290.956 69.4491C290.988 69.6103 291.063 69.7284 291.17 69.7821C291.267 69.8358 291.385 69.8573 291.535 69.8573H292.232V64.9166C292.232 64.4869 292.168 64.0788 292.06 63.7136C291.942 63.3484 291.76 63.0262 291.524 62.7684M290.698 66.474V67.8703C290.559 68.0099 290.42 68.1388 290.28 68.2462C290.141 68.3643 289.991 68.461 289.819 68.5469C289.658 68.6328 289.476 68.6973 289.294 68.7403C288.951 68.8262 288.564 68.8477 288.232 68.751C288.103 68.708 287.985 68.6436 287.889 68.5684C287.792 68.4825 287.717 68.3858 287.664 68.2462C287.61 68.1173 287.578 67.9562 287.578 67.7736C287.578 67.591 287.632 67.4192 287.739 67.2688C287.857 67.1077 288.028 66.9788 288.275 66.8606C288.532 66.7425 288.865 66.6458 289.283 66.5706C289.68 66.4955 290.162 66.4632 290.698 66.4525" fill="#002169"/>
<path d="M298.151 61.9951C297.969 61.9414 297.776 61.9199 297.551 61.9199C297.015 61.9199 296.543 62.0703 296.146 62.3925C295.835 62.6288 295.567 62.9403 295.342 63.3162L295.277 62.5214C295.256 62.3603 295.202 62.2421 295.138 62.1777C295.063 62.1025 294.934 62.0703 294.752 62.0703H293.873V69.8465H295.428V64.9488C295.621 64.4655 295.867 64.1003 296.168 63.8425C296.457 63.5955 296.811 63.4666 297.251 63.4666C297.497 63.4666 297.69 63.4881 297.819 63.531C297.969 63.5847 298.087 63.6062 298.173 63.6062C298.344 63.6062 298.462 63.5095 298.516 63.3269L298.698 62.2529L298.634 62.2099C298.484 62.124 298.323 62.0595 298.141 62.0058" fill="#002169"/>
<path d="M305.797 62.9618C305.54 62.6181 305.218 62.3603 304.854 62.1885C304.489 62.0166 304.071 61.9307 303.621 61.9307C303.084 61.9307 302.602 62.0381 302.173 62.2744C301.84 62.457 301.54 62.6825 301.272 62.9618V58.6226H299.706V69.8358H300.682C300.929 69.8358 301.09 69.7069 301.143 69.4492L301.176 69.041C301.39 69.2881 301.637 69.4814 301.926 69.6425C302.28 69.8358 302.72 69.9432 303.224 69.9432C303.728 69.9432 304.221 69.8358 304.65 69.6318C305.068 69.4277 305.422 69.1377 305.712 68.7725C306.001 68.4073 306.226 67.9777 306.377 67.4836C306.527 67.0003 306.602 66.4633 306.602 65.894C306.602 65.271 306.527 64.691 306.398 64.2077C306.259 63.7136 306.055 63.2948 305.808 62.9618M305.004 65.894C305.004 66.7962 304.822 67.4944 304.457 67.9669C304.103 68.4395 303.588 68.6758 302.923 68.6758C302.58 68.6758 302.269 68.6114 302.001 68.4825C301.733 68.3536 301.486 68.1388 301.272 67.8488V64.2722C301.529 63.9392 301.808 63.6707 302.108 63.4988C302.419 63.3055 302.773 63.2088 303.181 63.2088C303.47 63.2088 303.728 63.2625 303.942 63.3592C304.157 63.4559 304.35 63.6062 304.5 63.821C304.661 64.0359 304.779 64.3151 304.854 64.6481C304.94 65.0025 304.982 65.4107 304.982 65.894" fill="#002169"/>
<path d="M313.711 63.0262C313.39 62.6718 312.993 62.3925 312.532 62.2207C312.071 62.0273 311.556 61.9307 310.998 61.9307C310.441 61.9307 309.926 62.0273 309.465 62.2207C309.014 62.4033 308.618 62.6718 308.285 63.0262C307.964 63.3699 307.717 63.7995 307.535 64.2936C307.363 64.7769 307.277 65.3462 307.277 65.9369C307.277 66.5277 307.363 67.0969 307.535 67.5803C307.706 68.0743 307.964 68.504 308.285 68.8477C308.618 69.2021 309.014 69.4706 309.465 69.6532C309.926 69.8358 310.441 69.9325 310.998 69.9325C311.556 69.9325 312.081 69.8358 312.532 69.6532C312.982 69.4706 313.379 69.2021 313.711 68.8477C314.022 68.504 314.28 68.0743 314.451 67.5803C314.623 67.0969 314.709 66.5384 314.709 65.9369C314.709 65.3355 314.623 64.7769 314.451 64.2936C314.28 63.7995 314.033 63.3807 313.711 63.0262ZM310.998 63.2088C311.706 63.2088 312.221 63.4451 312.575 63.9177C312.929 64.3903 313.1 65.0777 313.1 65.9477C313.1 66.8177 312.929 67.4943 312.575 67.9777C312.232 68.4503 311.717 68.6758 310.998 68.6758C310.634 68.6758 310.323 68.6114 310.065 68.4932C309.797 68.3643 309.583 68.1925 309.411 67.9669C309.229 67.7414 309.1 67.4621 309.014 67.1184C308.929 66.7747 308.875 66.388 308.875 65.9477C308.875 65.5073 308.918 65.1206 309.014 64.7769C309.1 64.444 309.24 64.154 309.411 63.9177C309.583 63.6921 309.808 63.5203 310.065 63.3914C310.323 63.2732 310.644 63.2088 310.998 63.2088Z" fill="#002169"/>
<path d="M321.808 62.7577C321.583 62.4892 321.304 62.2851 320.971 62.1455C320.639 61.9951 320.264 61.9307 319.835 61.9307C319.288 61.9307 318.795 62.0488 318.376 62.2851C318.033 62.4677 317.711 62.7147 317.422 63.0047L317.347 62.414C317.283 62.1777 317.122 62.0596 316.886 62.0596H315.974V69.8358H317.54V64.2077C317.797 63.9177 318.098 63.6814 318.419 63.4988C318.741 63.327 319.095 63.2303 319.459 63.2303C319.953 63.2303 320.328 63.3699 320.564 63.6599C320.811 63.9499 320.929 64.3688 320.929 64.9166V69.8465H322.484V64.9166C322.484 64.4762 322.43 64.0788 322.312 63.7136C322.205 63.3484 322.033 63.0262 321.808 62.7684" fill="#002169"/>
<path d="M330.709 64.2936C330.537 63.7995 330.29 63.3807 329.969 63.0262C329.636 62.6718 329.25 62.3925 328.8 62.2207C328.328 62.0273 327.813 61.9307 327.266 61.9307C326.719 61.9307 326.194 62.0273 325.733 62.2207C325.282 62.4033 324.875 62.6718 324.553 63.0262C324.231 63.3699 323.985 63.7995 323.803 64.2936C323.631 64.7769 323.545 65.3462 323.545 65.9369C323.545 66.5277 323.631 67.0969 323.803 67.5803C323.985 68.0743 324.231 68.504 324.553 68.8477C324.886 69.2021 325.282 69.4706 325.733 69.6532C326.183 69.8358 326.698 69.9325 327.266 69.9325C327.835 69.9325 328.349 69.8358 328.8 69.6532C329.25 69.4706 329.636 69.2021 329.969 68.8477C330.28 68.504 330.537 68.0743 330.709 67.5803C330.88 67.0969 330.966 66.5384 330.966 65.9369C330.966 65.3355 330.88 64.7769 330.709 64.2936ZM327.266 63.2088C327.974 63.2088 328.489 63.4451 328.843 63.9177C329.197 64.3903 329.368 65.0777 329.368 65.9477C329.368 66.8177 329.186 67.4943 328.843 67.9777C328.499 68.4503 327.985 68.6758 327.266 68.6758C326.902 68.6758 326.591 68.6114 326.333 68.4932C326.065 68.3643 325.851 68.1925 325.679 67.9669C325.497 67.7414 325.368 67.4621 325.282 67.1184C325.197 66.7747 325.154 66.388 325.154 65.9477C325.154 65.5073 325.197 65.1206 325.282 64.7769C325.368 64.444 325.508 64.154 325.679 63.9177C325.851 63.6921 326.076 63.5203 326.333 63.3914C326.591 63.2732 326.912 63.2088 327.266 63.2088Z" fill="#002169"/>
<path d="M134.883 45.1324C134.883 43.951 134.926 43.1454 134.926 42.0069C134.336 42.0069 133.403 42.0499 132.813 42.0499H127.923C127.333 42.0499 126.443 42.0069 125.811 42.0069C125.811 43.1454 125.853 43.951 125.853 45.1324V54.1009C124.76 54.3157 123.408 54.3587 122.476 54.3587C121.671 54.3587 120.191 54.3157 119.098 54.1009V25.2192C120.191 25.0151 121.671 24.9722 122.476 24.9722C123.398 24.9722 124.76 25.0151 125.853 25.2192V33.2962C125.853 34.4777 125.811 35.2832 125.811 36.4325C126.443 36.4325 127.333 36.3895 127.923 36.3895H132.813C133.414 36.3895 134.336 36.4325 134.926 36.4325C134.926 35.294 134.883 34.4884 134.883 33.2962V25.2192C135.977 25.0151 137.371 24.9722 138.261 24.9722C139.151 24.9722 140.588 25.0151 141.639 25.2192V54.1009C140.502 54.3157 139.269 54.3587 138.347 54.3587C137.424 54.3587 136.02 54.3157 134.883 54.1009V45.1324Z" fill="#00945E"/>
<path d="M147.237 38.2905C147.237 36.6364 146.979 35.1649 146.218 34.0586C147.151 33.2531 148.663 32.6624 150.314 32.6624C152.974 32.6624 153.864 34.1016 153.864 36.7653V45.7338C153.864 47.6778 154.239 48.5693 155.676 48.5693C156.48 48.5693 157.703 48.1934 158.797 47.1301V33.0061C159.73 32.8449 160.952 32.7483 162.089 32.7483C163.226 32.7483 164.416 32.8449 165.381 33.0061V48.0645C165.381 49.4178 165.853 50.6423 166.561 51.1471C166.314 52.2856 165.381 53.8108 164.534 54.4445C162.175 54.3585 160.48 53.22 159.558 51.48C157.778 53.0911 155.719 54.4874 153.145 54.4874C149.296 54.4874 147.237 51.3511 147.237 46.9582V38.2905Z" fill="#00945E"/>
<path d="M175.944 45.6908C176.148 47.9785 176.963 49.7078 179.74 49.7078C181.638 49.7078 183.493 49.117 185.231 48.4404C186.207 49.4178 186.796 51.0181 186.968 52.3285C184.866 53.8537 181.649 54.7452 178.689 54.7452C171.258 54.7452 169.274 49.2889 169.274 43.7037C169.274 37.3238 172.019 32.3723 178.732 32.3723C184.308 32.3723 187.515 36.2175 187.515 41.3408C187.515 43.1989 187.386 44.2945 186.968 45.6908H175.955H175.944ZM175.901 41.126H181.477V40.6534C181.477 38.7093 180.673 37.066 178.689 37.066C176.834 37.066 176.073 38.3764 175.901 41.126Z" fill="#00945E"/>
<path d="M200.898 49.289C201.23 50.2235 201.402 51.362 201.402 52.4146C201.402 52.9194 201.402 53.4672 201.273 53.8968C200.008 54.1009 198.314 54.3157 196.716 54.3157C192.909 54.3157 191.483 52.4575 191.483 48.4405V23.2751L191.729 22.9851H194.303C196.92 22.9851 197.895 23.9947 197.895 26.9592V47.302C197.895 48.5694 198.399 49.289 199.751 49.289H200.887H200.898Z" fill="#00945E"/>
<path d="M213.681 49.289C214.024 50.2235 214.185 51.362 214.185 52.4146C214.185 52.9194 214.185 53.4672 214.056 53.8968C212.791 54.1009 211.096 54.3157 209.498 54.3157C205.702 54.3157 204.265 52.4575 204.265 48.4405V23.2751L204.523 22.9851H207.096C209.713 22.9851 210.689 23.9947 210.689 26.9592V47.302C210.689 48.5694 211.193 49.289 212.544 49.289H213.681Z" fill="#00945E"/>
<path d="M233.402 54.4444C231.246 54.4015 229.766 53.4241 228.844 52.1996C227.364 53.5959 225.423 54.7344 222.678 54.7344C218.324 54.7344 216.254 51.3511 216.254 48.3115C216.254 43.2312 220.265 40.9864 224.619 40.9864C225.38 40.9864 226.517 40.9864 227.622 41.0723V40.2775C227.622 38.4945 226.774 37.6138 224.876 37.6138C222.978 37.6138 220.866 38.2904 218.667 38.9671C217.734 37.8716 217.23 36.0134 217.059 34.3594C219.89 33.2208 223.986 32.5012 226.731 32.5012C230.399 32.5012 234.238 34.3594 234.238 39.7297V48.3222C234.238 49.5467 234.581 50.4811 235.428 51.0611C235.171 52.2104 234.238 53.8107 233.402 54.4444ZM227.622 48.6445V45.2612C226.774 45.2182 225.927 45.1752 225.337 45.1752C223.439 45.1752 222.678 46.2708 222.678 47.8819C222.678 49.0311 223.439 49.8689 224.619 49.8689C225.584 49.8689 226.646 49.45 227.622 48.6445Z" fill="#00945E"/>
<path d="M250.281 29.9558C246.656 29.9558 245.251 33.3821 245.251 39.8157C245.251 45.8198 247.364 48.8272 251.031 48.8272C253.948 48.8272 256.265 47.302 258.216 45.9057C259.525 46.7972 261.004 48.6553 261.305 50.2664C258.892 52.6294 254.463 54.7453 249.82 54.7453C240.908 54.7453 238.163 47.0442 238.163 39.7728C238.163 29.118 243.782 24.5532 250.495 24.5532C257.208 24.5532 261.348 28.3984 261.348 33.3498C261.348 36.0135 259.911 37.1091 257.509 37.1091C256.49 37.1091 255.739 36.9372 254.935 36.7332C255.021 33.221 254.013 29.9665 250.291 29.9665" fill="#002169"/>
<path d="M282.87 48.8164C282.87 50.4705 283.117 51.9527 283.921 53.0053C282.956 53.8538 281.433 54.4446 279.782 54.4446C277.122 54.4446 276.232 53.0053 276.232 50.3416V41.3409C276.232 39.4398 275.857 38.5376 274.463 38.5376C273.573 38.5376 272.393 38.9565 271.299 39.9769V54.1009C270.366 54.2727 269.23 54.3586 268.05 54.3586C266.999 54.3586 265.852 54.2727 264.886 54.1009V23.2751L265.176 22.9851H267.718C270.334 22.9851 271.31 23.9947 271.31 26.9592V34.9502C272.919 33.6399 274.731 32.6302 276.972 32.6302C280.811 32.6302 282.892 35.7558 282.892 40.1595V48.8272L282.87 48.8164Z" fill="#002169"/>
<path d="M295.406 54.1007C294.473 54.2726 293.208 54.3585 292.071 54.3585C290.934 54.3585 289.755 54.2726 288.779 54.1007V40.1056C288.779 38.7093 288.275 37.6568 286.795 37.6568H286.162C285.948 36.9371 285.905 36.2175 285.905 35.4119C285.905 34.6923 285.948 33.8116 286.162 33.049C287.481 32.9201 288.95 32.8449 289.873 32.8449H290.806C293.594 32.8449 295.406 34.789 295.406 37.8716V54.1115V54.1007ZM288.018 24.4994C288.736 24.1235 290.001 23.8228 291.138 23.8228C292.275 23.8228 293.626 24.1235 294.259 24.4994C294.602 25.262 294.763 26.1857 294.763 26.9483C294.763 27.7109 294.602 28.6453 294.259 29.4079C293.626 29.7409 292.275 30.0416 291.138 30.0416C290.001 30.0416 288.65 29.7838 288.018 29.4079C287.685 28.6453 287.513 27.7109 287.513 26.9483C287.513 26.1427 287.685 25.262 288.018 24.4994Z" fill="#002169"/>
<path d="M309.754 49.289C310.098 50.2235 310.269 51.362 310.269 52.4146C310.269 52.9194 310.269 53.4672 310.14 53.8968C308.875 54.1009 307.181 54.3157 305.583 54.3157C301.787 54.3157 300.35 52.4575 300.35 48.4405V23.2751L300.596 22.9851H303.17C305.787 22.9851 306.763 23.9947 306.763 26.9592V47.302C306.763 48.5694 307.277 49.289 308.618 49.289H309.754Z" fill="#002169"/>
<path d="M318.569 45.6908C318.784 47.9785 319.588 49.7078 322.376 49.7078C324.274 49.7078 326.13 49.117 327.867 48.4404C328.843 49.4178 329.432 51.0181 329.593 52.3285C327.481 53.8537 324.274 54.7452 321.315 54.7452C313.883 54.7452 311.899 49.2889 311.899 43.7037C311.899 37.3238 314.644 32.3723 321.357 32.3723C326.934 32.3723 330.14 36.2175 330.14 41.3408C330.14 43.1989 330.022 44.2945 329.593 45.6908H318.569ZM318.526 41.126H324.103V40.6534C324.103 38.7093 323.298 37.066 321.315 37.066C319.459 37.066 318.698 38.3764 318.526 41.126Z" fill="#002169"/>
<path d="M40.7287 0H0V90.4043H40.7287V0Z" fill="#0063AF"/>
<path d="M99.4088 0H40.7287V90.4043H99.4088V0Z" fill="#E73439"/>
<path d="M48.557 85.5817C47.9565 85.8609 47.4632 85.9898 46.9055 85.9898C45.5865 85.9898 44.9645 85.0554 44.9645 83.6591C44.9645 82.2628 45.6294 81.4036 47.0128 81.4036C47.6884 81.4036 48.1173 81.5647 48.4605 81.801L48.0959 82.4454C47.8492 82.2843 47.4739 82.1662 47.0128 82.1662C46.2192 82.1662 45.8653 82.7676 45.8653 83.6484C45.8653 84.6902 46.2407 85.2595 46.9913 85.2595C47.2809 85.2595 47.5597 85.2058 47.7634 85.0984V84.2821H47.1522L47.1093 83.6484H48.557V85.5817Z" fill="white"/>
<path d="M52.128 84.3142C52.128 85.4098 51.5811 85.9898 50.6159 85.9898C49.6508 85.9898 49.1146 85.4098 49.1146 84.3142C49.1146 83.369 49.6401 82.6494 50.6159 82.6494C51.5918 82.6494 52.128 83.369 52.128 84.3142ZM51.2486 84.3142C51.2486 83.5409 51.0234 83.2724 50.6159 83.2724C50.2084 83.2724 49.994 83.5516 49.994 84.3142C49.994 85.0768 50.1977 85.3668 50.6159 85.3668C51.0342 85.3668 51.2486 85.0876 51.2486 84.3142Z" fill="white"/>
<path d="M53.5649 83.0361C53.7044 82.8428 54.0582 82.6495 54.4121 82.6495C55.1628 82.6495 55.7097 83.1865 55.7097 84.3143C55.7097 85.4421 55.0555 85.9898 54.3049 85.9898C53.8438 85.9898 53.5757 85.8072 53.3719 85.5387L53.2111 85.9254H52.7499V81.4036H53.6078V82.5206L53.5435 83.0361H53.5649ZM53.6293 85.0339C53.758 85.2165 53.9832 85.3561 54.2084 85.3561C54.5837 85.3561 54.8518 85.0769 54.8518 84.3035C54.8518 83.5302 54.6051 83.2724 54.2191 83.2724C54.0046 83.2724 53.7687 83.3906 53.6293 83.5302V85.0339Z" fill="white"/>
<path d="M56.6212 85.9254V83.3476L56.2566 83.2724V82.7247H57.4791V85.9361H56.6319L56.6212 85.9254ZM56.5998 81.4036H57.4684V82.1876H56.5998V81.4036Z" fill="white"/>
<path d="M58.9804 84.5505C58.9804 85.0661 59.27 85.3453 59.8062 85.3453C60.1386 85.3453 60.4603 85.2057 60.7391 85.0661L60.9 85.6676C60.6319 85.8072 60.2029 85.9898 59.6989 85.9898C58.7016 85.9898 58.1118 85.3776 58.1118 84.3142C58.1118 83.3261 58.5837 82.6494 59.6131 82.6494C60.5783 82.6494 60.9643 83.369 60.9643 84.1746V84.5505H58.9697H58.9804ZM59.581 83.2724C59.152 83.2724 58.9804 83.659 58.9804 84.0457H60.1493C60.1493 83.6376 60.0206 83.2724 59.5702 83.2724" fill="white"/>
<path d="M63.4415 83.4227C63.3343 83.3905 63.1949 83.369 63.0447 83.369C62.8195 83.369 62.6158 83.4657 62.4656 83.5838V85.9146H61.6185V82.7031H62.219C62.2512 82.8535 62.2833 82.9931 62.3155 83.1327H62.337C62.4335 82.9072 62.723 82.6387 63.0983 82.6387C63.2699 82.6387 63.3986 82.6602 63.4629 82.6816C63.4629 82.9287 63.4629 83.165 63.4415 83.412" fill="white"/>
<path d="M65.9508 85.9253V84.0135C65.9508 83.5301 65.7685 83.2939 65.3717 83.2939C65.1465 83.2939 64.9535 83.3905 64.8034 83.4872V85.9146H63.9455V82.7031H64.5353L64.664 83.0683C64.8463 82.8535 65.2002 82.6387 65.6827 82.6387C66.4977 82.6387 66.8087 83.122 66.8087 83.9276V85.9146H65.9401L65.9508 85.9253Z" fill="white"/>
<path d="M70.4012 84.3142C70.4012 85.4098 69.8543 85.9898 68.8891 85.9898C67.924 85.9898 67.3878 85.4098 67.3878 84.3142C67.3878 83.369 67.9133 82.6494 68.8891 82.6494C69.865 82.6494 70.4012 83.369 70.4012 84.3142ZM69.5218 84.3142C69.5218 83.5409 69.2859 83.2724 68.8891 83.2724C68.4924 83.2724 68.2672 83.5516 68.2672 84.3142C68.2672 85.0768 68.4709 85.3668 68.8891 85.3668C69.3074 85.3668 69.5218 85.0876 69.5218 84.3142Z" fill="white"/>
<path d="M74.562 82.961C74.5084 82.7784 74.4869 82.6173 74.4869 82.3702V81.4036H75.3341V85.9254H74.637L74.5405 85.5709C74.4119 85.7643 74.1009 85.9898 73.6934 85.9898C72.9642 85.9898 72.3851 85.4635 72.3851 84.3143C72.3851 83.251 72.9856 82.6387 73.7684 82.6387C74.1116 82.6387 74.3904 82.7569 74.5727 82.9502M74.4976 83.4336C74.369 83.3584 74.1652 83.2724 73.9186 83.2724C73.5111 83.2724 73.2537 83.5517 73.2537 84.2928C73.2537 85.0339 73.5003 85.3454 73.9078 85.3454C74.1223 85.3454 74.3368 85.238 74.4976 85.0661V83.4228V83.4336Z" fill="white"/>
<path d="M76.8461 84.5505C76.8461 85.0661 77.1357 85.3453 77.6719 85.3453C78.0043 85.3453 78.326 85.2057 78.6155 85.0661L78.7764 85.6676C78.5083 85.8072 78.0794 85.9898 77.5753 85.9898C76.578 85.9898 75.9882 85.3776 75.9882 84.3142C75.9882 83.3261 76.4601 82.6494 77.4896 82.6494C78.4547 82.6494 78.8407 83.369 78.8407 84.1746V84.5505H76.8461ZM77.4467 83.2724C77.0177 83.2724 76.8461 83.659 76.8461 84.0457H78.015C78.015 83.6376 77.8863 83.2724 77.4359 83.2724" fill="white"/>
<path d="M82.7335 85.9898C81.4895 85.9898 80.8246 85.1521 80.8246 83.6806C80.8246 82.3273 81.4788 81.4036 82.7335 81.4036C83.334 81.4036 83.8809 81.5325 84.2348 81.7795L83.9023 82.4561C83.6771 82.2843 83.2696 82.1554 82.8192 82.1554C82.09 82.1554 81.7254 82.7032 81.7254 83.6698C81.7254 84.6902 82.09 85.238 82.8085 85.238C83.2375 85.238 83.6771 85.0554 83.9774 84.8298L84.2562 85.5172C83.8165 85.818 83.3233 85.9898 82.7442 85.9898" fill="white"/>
<path d="M84.846 85.9254V81.4036H85.7039V82.5958C85.7039 82.8213 85.6288 83.0361 85.6181 83.0899C85.8004 82.8643 86.0685 82.6495 86.5296 82.6495C87.4519 82.6495 87.7093 83.1328 87.7093 83.9384V85.9254H86.8406V84.0135C86.8406 83.9276 86.8299 83.8632 86.7977 83.8202C86.7763 83.455 86.5833 83.3047 86.2723 83.3047C86.0471 83.3047 85.854 83.4013 85.7039 83.498V85.9254H84.846Z" fill="white"/>
<path d="M88.6744 85.9254V83.3476L88.3098 83.2724V82.7247H89.5323V85.9361H88.6851L88.6744 85.9254ZM88.6422 81.4036H89.5108V82.1876H88.6422V81.4036Z" fill="white"/>
<path d="M90.3044 85.0769V81.4036H91.1516V85.0339C91.1516 85.3024 91.3124 85.3454 91.6663 85.3454V85.9469C91.6663 85.9469 91.4197 86.0006 91.1945 86.0006C90.5403 86.0006 90.3044 85.6569 90.3044 85.0769Z" fill="white"/>
<path d="M92.9639 84.5505C92.9639 85.0661 93.2534 85.3453 93.7896 85.3453C94.122 85.3453 94.4437 85.2057 94.7226 85.0661L94.8834 85.6676C94.6153 85.8072 94.1864 85.9898 93.6824 85.9898C92.6851 85.9898 92.0952 85.3776 92.0952 84.3142C92.0952 83.3261 92.5671 82.6494 93.5966 82.6494C94.5617 82.6494 94.9478 83.369 94.9478 84.1746V84.5505H92.9531H92.9639ZM93.5644 83.2724C93.1354 83.2724 92.9639 83.659 92.9639 84.0457H94.1328C94.1328 83.6376 94.0041 83.2724 93.5537 83.2724" fill="white"/>
<path d="M21.2115 12.4056C21.2973 12.3304 21.4903 12.1693 21.3402 11.8686C21.2651 11.7289 21.0721 11.7075 21.1579 11.6967C22.1766 11.4604 22.7236 9.96746 22.6914 9.38746C23.2168 9.87079 24.3965 10.0104 25.2436 9.28006C25.7905 8.75376 26.0586 7.34673 25.1149 6.64859C24.6324 6.29415 23.7745 6.26193 23.2383 6.67007C23.0667 6.38007 22.7772 6.176 22.4555 6.176C22.4555 6.07933 22.4662 5.40267 22.0694 4.9623C21.5547 4.40379 20.1284 4.36082 19.603 4.97304C18.5735 4.71527 17.233 5.18786 17.3081 6.8097C16.5896 6.5197 16.1714 6.5197 15.7853 6.55192C15.4207 6.58415 14.9489 6.90637 14.7773 7.13192C14.7022 7.22859 14.6164 7.36822 14.5521 7.48636C14.4341 7.72266 14.3483 8.0234 14.3805 8.3671C14.4341 8.93635 14.7129 9.43043 15.1312 9.65598C15.7102 9.96746 16.4395 9.9245 16.6968 9.88153C16.9006 9.83857 17.1151 9.76339 17.3402 9.52709C17.4046 9.46265 17.4582 9.35524 17.5547 9.3445C17.5547 9.49487 17.5011 10.2682 18.359 10.6334L18.3804 10.7623C18.6593 11.8256 19.367 11.6967 19.3778 11.7719C19.056 11.9652 19.1955 12.2445 19.2705 12.3841C19.7531 12.2337 20.1177 12.2123 20.2249 12.2123C20.3322 12.2123 20.6968 12.2337 21.1793 12.3841" fill="white"/>
<path d="M23.6351 15.6277C23.6351 14.5644 24.3536 13.7374 24.3643 13.7266C24.4393 13.6407 24.4501 13.5548 24.4501 13.5011C24.4393 13.4044 24.3643 13.34 24.3428 13.3292C24.1391 13.1896 23.678 12.9104 23.678 12.9104L23.6351 12.8781H23.5922L23.442 12.9533C23.3134 13.05 23.0774 13.2326 22.6592 13.2326C22.5841 13.2326 22.5091 13.2326 22.434 13.2111C22.2195 13.1789 21.8549 12.9963 21.8549 12.9963C21.737 12.9318 21.5868 12.8674 21.5225 12.8459H21.501C20.9005 12.5881 20.3965 12.5667 20.2571 12.5667C20.1177 12.5667 19.6137 12.5881 19.0131 12.8352H18.9917L18.8416 12.9104L18.477 13.0822C18.359 13.1359 18.1981 13.2004 18.0802 13.2111L17.855 13.2326C17.4368 13.2326 17.2008 13.05 17.0722 12.9533L16.922 12.8781H16.8898L16.8684 12.8996C16.8684 12.8996 16.3966 13.1896 16.2035 13.3292C16.1714 13.34 16.0963 13.4044 16.0856 13.5118C16.0856 13.5655 16.0856 13.6515 16.1714 13.7374C16.2035 13.7696 16.9006 14.5859 16.9006 15.66C16.922 15.7781 16.9756 16.4226 16.4287 17.3785C16.4073 17.4322 15.796 18.5277 16.4609 19.5051C16.4609 19.5051 16.9542 20.4181 18.4019 20.4181C18.5199 20.4181 19.5815 20.4396 19.9568 21.1162C19.9676 21.1377 20.1391 21.417 20.2142 21.5459L20.3 21.707L20.3751 21.5459C20.4501 21.417 20.611 21.1377 20.6431 21.1055C21.0078 20.4288 22.0694 20.4073 22.1874 20.4073C23.6136 20.4073 24.1176 19.5051 24.1176 19.5051C24.7932 18.517 24.1605 17.3785 24.1605 17.3677C23.6136 16.4226 23.6672 15.7781 23.6887 15.6385M23.1311 15.6385L21.2651 16.9703L21.9729 19.0755L20.182 17.7222L18.4019 19.0755L19.1097 16.9703L17.2437 15.6385H19.5386L20.182 13.5011L20.8255 15.6385H23.1203H23.1311Z" fill="white"/>
<path d="M36.096 24.4889C35.8601 24.2096 35.2488 24.3492 35.2488 24.3492C35.5813 23.3611 34.6698 23.0926 34.6698 23.0926C34.348 23.0067 34.1228 23.0711 33.9834 23.1678V23.1785L33.9191 23.2322C33.8333 23.3181 33.7904 23.4363 33.7904 23.5652C33.7904 23.8229 34.0049 24.0378 34.2623 24.0378C34.3695 24.0378 34.4553 24.0055 34.5411 23.9518C34.6376 23.8874 34.7019 23.78 34.7341 23.6726C34.8628 23.7585 34.9057 23.8981 34.9057 23.8981C35.1738 24.7466 34.2194 25.0474 34.2194 25.0474C32.1282 25.6811 30.8414 24.5963 30.8414 24.5963L31.206 24.4029C31.3347 24.3492 31.4419 24.3278 31.5384 24.3278V24.3922C31.5384 24.6178 31.7207 24.8004 31.9459 24.8004C32.1711 24.8004 32.3642 24.6178 32.3642 24.3922C32.3642 24.2204 32.2784 24.1344 32.2784 24.1344C32.0317 23.7692 31.1845 24.0055 31.1845 24.0055C31.4634 23.3074 31.2167 22.8133 31.2167 22.8133C30.8307 22.0078 29.9084 22.2655 29.9084 22.2655C29.5867 22.3622 29.5224 22.6522 29.5224 22.6522C29.3937 23.2859 29.9192 23.3396 29.9192 23.3396C30.2945 23.3611 30.3052 23.0496 30.3052 23.0496C30.3588 22.7489 29.9299 22.7381 29.9299 22.7381C30.2838 22.1152 31.399 23.1355 30.6698 24.0378C30.5947 24.1237 30.5304 24.07 30.5304 24.07C29.2221 23.4255 28.5787 22.9959 28.257 22.7596C28.2248 22.4052 27.9138 22.2226 27.9782 22.1259C28.0318 22.1044 28.2141 22.2011 28.3213 22.04C28.3535 21.9863 28.4393 21.417 28.5143 21.0196C29.6725 21.5459 30.6484 21.3848 30.8521 21.3204C30.9486 21.2774 31.0344 21.2022 31.0344 21.0519C31.0559 20.6115 29.9192 18.023 29.887 17.11C30.4232 17.3785 30.7556 16.5408 30.8521 16.2937C31.5706 16.6267 31.828 23.3504 32.3856 23.5759C32.6644 23.6941 32.7717 23.2322 32.8038 23.1463C33.6939 20.1496 33.7261 17.2282 33.6725 16.2508C33.5867 14.7149 33.458 13.3508 33.0934 12.0834C32.8682 11.3101 32.4285 9.72043 31.4097 9.50562C30.9272 9.40895 30.5626 9.84932 30.5733 10.2575C30.5733 10.6012 30.8199 10.773 30.7127 11.1167C30.584 11.3423 30.4553 11.5786 30.391 11.8363C30.3267 12.0834 30.5519 12.1908 30.4768 12.4486C30.1551 12.4056 29.9942 12.6849 29.4795 12.556C29.8119 12.4056 29.8119 11.4497 29.4044 11.2886L29.265 11.2026C29.265 11.2026 29.3937 11.063 29.458 10.9234C29.694 10.4401 29.694 10.0212 29.5009 9.69895C29.6725 9.70969 29.8441 9.40895 29.8655 9.15118V9.1297C29.8655 9.06525 29.8655 8.85044 29.962 8.64637L29.9084 8.47451L29.7368 8.53896C29.6403 8.75377 29.3937 8.63562 29.5009 8.42081L29.4473 8.24896L29.2865 8.3134C29.1899 8.51748 28.954 8.39933 29.0505 8.19526L28.9969 8.02341L28.8253 8.08785C28.7288 8.30266 28.4822 8.18452 28.5787 7.9697L28.5251 7.79785L28.3535 7.8623C28.2463 8.08785 28.1712 8.17377 28.0639 8.27044C27.8388 8.3134 27.9031 8.57118 27.9245 8.74303C27.4956 8.64637 27.1846 8.96859 27.1632 9.26932H27.1203C26.7664 9.26932 26.4339 9.46266 26.4554 9.78488C26.4661 9.96747 26.6806 10.193 26.7664 10.2038C26.8093 10.193 26.7449 10.0104 26.9272 9.99969C27.0881 9.99969 27.3455 10.1286 27.3669 10.2897C27.3991 10.4723 27.2597 10.9019 27.828 10.9664C27.828 10.9664 27.828 11.0523 27.8173 11.1489C27.6136 11.1382 27.5599 11.1275 27.3562 11.1489C26.9916 11.2026 26.4983 11.4067 26.3803 11.7719C26.3589 11.8363 26.3482 11.9545 26.3589 12.0404C26.3589 12.1156 26.4339 12.2015 26.4232 12.2982L26.316 12.4593C26.1659 12.6204 25.887 12.7708 25.6404 12.7815C25.3723 12.7923 25.1042 12.6204 24.997 12.47C24.6324 11.9867 25.1042 11.1382 25.0935 10.816C25.072 9.97821 24.0104 10.4723 23.5922 10.6978C23.0881 10.9556 22.6914 11.3852 22.3589 11.8041C22.1766 12.0297 21.9729 12.3197 21.8656 12.5667L21.7584 12.6204C21.9729 12.7171 22.3482 12.8567 22.6485 12.8675C22.6485 12.8675 23.2383 12.9426 23.6565 12.5989C23.6565 12.5989 23.7208 12.5452 23.7959 12.5452L23.9568 12.6097L24.0747 12.7063L24.2034 12.8138L24.2785 12.8782L24.5037 13.05L24.5466 13.0823C24.6324 13.1467 24.7074 13.2112 24.7825 13.2649C24.8683 13.3293 24.9541 13.3937 24.997 13.426L25.0291 13.4904L24.9862 13.5978C24.9862 13.5978 24.9433 13.6515 24.8683 13.7374C24.7289 13.92 24.493 14.2637 24.3106 14.6934C24.5037 15.0371 24.8361 15.4452 25.3187 15.456C25.694 15.456 25.8549 15.2734 25.9085 15.0263L25.9407 15.0586C25.9407 15.0586 26.198 16.1541 26.4768 16.4656C26.2195 16.5837 25.8227 16.9919 26.0372 18.1196C25.8227 17.9478 25.4259 17.6471 25.2436 17.4537C25.1364 17.2174 24.9112 16.6697 24.2785 16.616C24.375 16.8952 24.5037 17.2174 24.7074 17.5611C24.7074 17.5611 25.0935 18.2808 24.9755 19.097C25.2436 18.8285 25.2007 18.0767 25.2007 18.0767L25.2651 18.0552C25.3187 18.0552 25.5868 18.5708 26.0479 18.6782C26.6484 19.6985 27.3133 20.3537 27.9674 20.7619C27.9567 21.0089 27.9889 21.5996 27.828 21.5996C27.3133 21.7178 26.8414 21.3633 26.3911 21.3956L26.316 21.3633C24.375 20.4289 21.8227 22.4374 21.3938 22.8241C21.1686 23.0281 20.9112 22.7489 20.9112 22.7489C20.7611 22.5555 20.5573 22.4696 20.3643 22.4911C20.1713 22.4696 19.9675 22.5555 19.8174 22.7489C19.8174 22.7489 19.56 23.0281 19.3348 22.8241C18.9273 22.4589 16.611 20.6544 14.7236 21.2667C14.7236 21.1593 14.4663 21.1056 14.3912 21.0841C14.2411 21.0411 14.1124 20.923 14.0159 20.88C13.8121 20.7726 13.4797 20.837 13.2438 20.8156C13.158 20.8048 13.0186 20.7511 12.9435 20.7082C12.6432 20.5256 12.2894 20.2893 12.0963 20.0207L11.9784 19.8596C11.8819 19.7415 11.839 19.6556 11.7639 19.4622C11.6567 19.0863 11.8175 18.6889 11.8711 18.3022C11.914 18.023 11.9033 18.0015 11.9248 17.7008C13.1258 17.2819 13.6191 16.3797 13.8979 15.8963L13.9944 15.703H14.1553C14.6379 15.7245 14.9596 15.456 15.485 15.5204C15.485 15.5526 15.5601 15.7674 15.8925 15.9071C15.9033 16.2508 15.9247 16.5408 16.0641 16.8093L16.1499 16.9382C16.3751 16.3797 16.4394 15.95 16.4394 15.6923L16.3965 15.5848C16.2786 14.9941 16.0105 14.833 15.7531 14.6934C15.6244 14.6289 15.485 14.6074 15.3671 14.5108C15.1848 14.3819 14.981 14.2423 14.8523 14.006C14.8523 14.006 14.9167 13.9523 14.981 13.8663C15.3135 13.5119 15.485 12.9963 15.603 12.4271C15.8604 12.0726 16.5789 12.2123 16.8469 12.266L17.0936 12.3412C17.1687 12.3949 17.1901 12.513 17.2973 12.5667C17.4153 12.6097 17.5333 12.5775 17.6727 12.5667L17.7906 12.7708L17.8979 12.9104C18.2303 12.9104 18.6807 12.7278 18.863 12.6312L18.8094 12.5882C18.6593 12.3949 18.4341 12.18 18.2196 12.1478C17.9515 12.1049 17.8979 11.8686 17.6405 11.8149L17.2759 11.7934C16.7075 11.8686 16.3108 11.6538 15.7853 11.6108C15.2813 11.5786 15.2706 11.9223 15.0883 12.2015C15.0239 12.3089 14.9381 12.4378 14.8631 12.513C14.7236 12.6419 14.5628 12.6526 14.4019 12.7815L14.3269 12.5775C14.284 12.4056 14.2196 12.223 14.1017 12.0512C13.8336 11.6215 13.5226 11.2886 12.9113 11.1489C12.7934 11.106 12.7827 11.0952 12.7076 11.0308C12.6111 10.9556 12.6754 10.8589 12.7076 10.8482C12.8792 10.7515 13.1794 10.7838 13.3725 10.6978C13.855 10.4723 13.6834 10.0641 13.5011 10.0319C13.2545 9.98895 12.8148 9.8708 12.729 9.8171C12.6111 9.74192 12.4073 9.37673 12.2143 9.28007C11.9998 9.22636 12.0749 8.87192 11.8819 8.79673C11.7961 8.78599 11.6781 8.82896 11.5387 8.8934C11.5387 8.81822 11.4744 8.43155 11.2599 8.30266C11.099 8.206 11.0347 8.35637 11.0454 8.44229C11.0454 8.52822 11.2813 8.64637 11.3242 9.01155L11.2063 9.08673C11.1741 8.93636 11.1098 8.70007 10.9489 8.6034C10.788 8.50674 10.7237 8.65711 10.7344 8.75377C10.7344 8.82896 10.9382 8.93636 11.0025 9.24784L10.8631 9.36599C10.5414 9.28007 10.4556 9.05451 10.3698 9.04377C10.284 9.02229 10.1339 9.06525 10.209 9.2371C10.284 9.40895 10.5307 9.50562 10.6808 9.54858L10.595 9.65599C10.2197 9.5808 10.1232 9.33377 10.0481 9.31229C9.9516 9.29081 9.80146 9.34451 9.88725 9.50562C9.99449 9.74192 10.4234 9.83858 10.4663 9.84932C10.402 9.94599 10.3698 10.0427 10.3805 10.1071C10.091 10.0749 9.56554 10.2252 9.66206 10.5797C9.75857 10.6549 10.1017 10.3649 10.4234 10.526C10.6272 10.8482 10.9703 10.8697 11.0454 10.9234C11.1634 11.0201 11.1848 11.1812 11.2384 11.3315C11.335 11.6108 11.528 11.8363 11.6888 12.0834C11.8711 12.3519 12.0534 12.6419 12.2465 12.8782C12.2679 12.9426 12.2894 13.0071 12.2786 13.1145C12.0642 13.4582 11.4207 13.8556 11.1634 14.1026C10.8953 14.3497 8.38593 16.2722 8.06422 17.0993C7.99988 17.2819 7.95699 17.5289 7.96771 17.7759C7.81758 17.8619 7.47442 17.9908 7.36718 17.8404C7.17415 17.5719 7.54948 17.3678 7.46369 17.11C7.4208 17.0134 7.28139 16.9382 7.18488 17.0134C6.5629 17.4645 6.88461 18.2593 7.28139 18.4419C7.72106 18.6245 7.77468 18.1519 8.11784 18.3452C8.19291 18.3882 8.99719 19.1078 8.85778 19.6663L8.80416 19.7952C8.63258 20.01 8.34304 20.1819 8.13929 20.3859C7.72106 20.6437 8.53607 22.3085 8.47172 23.157C8.42883 23.4792 8.73982 23.4363 8.93284 23.9518C8.73982 23.9518 8.54679 24.0055 8.43955 24.1559C8.43955 24.1559 8.35376 24.2418 8.35376 24.4137C8.35376 24.6392 8.53607 24.8218 8.77199 24.8218C9.00791 24.8218 9.19021 24.6392 9.19021 24.4137V24.3492C9.276 24.3492 9.39396 24.3707 9.52265 24.4244L9.88725 24.6178C9.88725 24.6178 8.60041 25.7026 6.50928 25.0689C6.50928 25.0689 5.55487 24.7681 5.82297 23.9196C5.82297 23.9196 5.86586 23.78 5.99455 23.6941C6.01599 23.8122 6.09106 23.9089 6.18757 23.9733C6.26264 24.027 6.35915 24.0592 6.46639 24.0592C6.72376 24.0592 6.93823 23.8444 6.93823 23.5867C6.93823 23.4578 6.88461 23.3396 6.80955 23.2537L6.74521 23.2L6.73448 23.1892C6.59507 23.0926 6.3806 23.0281 6.04816 23.1141C6.04816 23.1141 5.13665 23.3826 5.46908 24.3707C5.46908 24.3707 4.84711 24.2311 4.62191 24.5104C4.62191 24.5104 4.54684 24.5963 4.54684 24.7466L4.61119 24.9615C4.67553 25.0581 4.78277 25.1118 4.91145 25.1118C5.01869 25.1118 5.12593 25.0581 5.19027 24.9829C5.19027 24.9829 5.28678 24.9078 5.40474 25.0152C6.7881 26.4652 9.06153 25.8637 10.3162 24.897C10.3162 24.897 11.0132 24.1989 11.7854 23.7692C12.0856 23.8981 12.4073 23.9948 12.7183 24.1129C12.6969 24.5641 12.7934 25.2085 13.2867 25.9603C13.2867 25.9603 12.9328 26.6155 12.3323 26.2611C12.3323 26.2611 11.8926 25.9174 12.2679 25.5092C12.2679 25.5092 12.5253 25.2944 12.6325 25.5629C12.5038 25.5629 12.3966 25.6811 12.3966 25.81C12.3966 25.9389 12.5038 26.057 12.6325 26.057C12.7612 26.057 12.8684 25.9496 12.8792 25.8315C12.8899 25.7348 12.9006 25.477 12.6861 25.2944C12.6861 25.2944 12.4931 25.0903 12.1392 25.1441C11.6138 25.23 11.3135 26.3363 12.3537 26.7874C12.3537 26.7874 13.1687 27.1633 13.5977 26.5511C13.5977 26.5511 13.5977 26.4652 13.7478 26.6155C14.6164 27.4533 16.5467 27.217 17.3188 26.637C17.3188 26.637 17.5118 26.5189 17.7263 26.4115C17.7263 26.7337 18.0051 27.0022 18.3268 27.0022C18.6485 27.0022 18.9273 26.7337 18.9273 26.4007C18.9273 26.1 18.7129 25.8529 18.4341 25.81C18.4233 25.81 18.0373 25.6918 17.4796 26.0355L16.922 26.347C17.1258 26.0355 17.2437 25.6059 17.3295 25.1548C18.1767 25.2515 19.0346 25.3052 19.9354 25.3266C19.9354 25.5844 19.8925 25.9066 19.7852 26.1537C19.7852 26.1537 19.4743 26.2826 19.4635 26.5081C19.4635 26.5081 19.4314 26.6692 19.7102 26.8948C19.7102 26.8948 19.9139 27.1203 19.9783 27.3029C19.9783 27.3029 19.989 27.55 20.3322 27.55H20.3965H20.4608C20.7933 27.55 20.8147 27.3029 20.8147 27.3029C20.8791 27.1311 21.0828 26.8948 21.0828 26.8948C21.3616 26.6692 21.3295 26.5081 21.3295 26.5081C21.3295 26.2826 21.0077 26.1537 21.0077 26.1537C20.9112 25.9066 20.8683 25.5952 20.8576 25.3266C21.7584 25.3052 22.6163 25.2515 23.4635 25.1548C23.5493 25.6059 23.6672 26.0355 23.871 26.347L23.3133 26.0355C22.7557 25.6918 22.3697 25.81 22.3482 25.81C22.0694 25.8637 21.8549 26.1107 21.8549 26.4007C21.8549 26.7337 22.123 27.0022 22.4554 27.0022C22.7879 27.0022 23.0452 26.7337 23.056 26.4115C23.2704 26.5081 23.4635 26.637 23.4635 26.637C24.2249 27.2063 26.1658 27.4533 27.0345 26.6155C27.1953 26.4652 27.1846 26.5511 27.1846 26.5511C27.6028 27.1633 28.4286 26.7874 28.4286 26.7874C29.4688 26.3255 29.1685 25.23 28.643 25.1441C28.2784 25.0903 28.0854 25.2944 28.0854 25.2944C27.8709 25.477 27.8709 25.724 27.8924 25.8315C27.8924 25.9603 27.9996 26.057 28.1283 26.057C28.2677 26.057 28.3749 25.9496 28.3749 25.81C28.3749 25.6703 28.2677 25.5737 28.139 25.5629C28.2463 25.3052 28.4929 25.5092 28.4929 25.5092C28.8682 25.9174 28.4286 26.2611 28.4286 26.2611C27.828 26.6263 27.4741 25.9603 27.4741 25.9603C27.9782 25.2085 28.0747 24.5641 28.0532 24.1129C28.3642 23.9948 28.6859 23.8981 28.9969 23.7692C29.769 24.1989 30.4661 24.897 30.4661 24.897C31.7207 25.8637 33.9834 26.4652 35.3775 25.0152C35.4848 24.897 35.5705 24.94 35.592 24.9722C35.6563 25.0581 35.7529 25.1118 35.8708 25.1118C35.9888 25.1118 36.096 25.0474 36.1604 24.9615L36.2247 24.7574C36.2247 24.607 36.1496 24.5104 36.1496 24.5104M10.2304 24.07C10.2304 24.07 10.1661 24.1344 10.091 24.0378C9.36179 23.1355 10.4771 22.1152 10.8309 22.7381C10.8309 22.7381 10.4127 22.7489 10.4556 23.0496C10.4556 23.0496 10.4556 23.3611 10.8417 23.3396C10.8417 23.3396 11.3671 23.2859 11.2492 22.6522C11.2492 22.6522 11.1848 22.3622 10.8631 22.2655C10.8631 22.2655 9.94087 22.0185 9.55482 22.8133C9.55482 22.8133 9.47975 23.0067 9.45831 23.2967C9.35107 23.2107 9.23311 23.1463 9.10442 23.1248C8.93284 22.9422 8.63258 21.4707 8.82561 20.7082C10.2411 20.4182 10.6701 19.2474 10.7344 18.9145C11.024 19.0111 11.1848 19.3333 11.1955 19.473C11.217 19.6663 11.1312 19.8596 11.2384 20.0207C11.3993 20.2463 11.7639 20.4611 11.9891 20.6115C12.0642 20.6652 13.1044 21.46 13.2331 21.4922C13.3832 21.5244 13.469 21.417 13.5977 21.4385L13.7156 21.5137C13.7156 21.5137 13.7907 21.5889 13.8979 21.6641C13.6298 21.8467 13.2759 22.1044 12.8041 22.5233C12.8041 22.5233 12.4502 22.9852 10.2519 24.0807M13.7156 25.0796C13.7156 25.0796 13.6298 25.4663 13.5548 25.5522C13.5548 25.5522 13.2438 24.9937 13.2223 24.2741C13.4583 24.3492 13.6834 24.4352 13.9301 24.4996C13.855 24.6822 13.78 24.8648 13.7263 25.0796M16.4931 26.4007C16.4931 26.4007 15.0239 26.9807 14.0052 25.9389C14.0052 25.9389 14.0802 25.2837 14.3483 24.607C15.1633 24.8218 16.0212 24.9722 16.9006 25.0903C16.8362 25.6489 16.7183 26.3792 16.4823 26.4115M15.0239 23.5437C15.3135 23.2644 15.6888 23.0818 16.1606 23.0711C16.1606 23.0711 16.8148 23.0711 16.9327 23.8874C16.2142 23.7907 15.5708 23.6726 15.0132 23.5437M16.4823 22.6093C16.4073 22.6307 15.4421 22.6952 14.6379 23.447C14.1982 23.3396 13.8014 23.2215 13.4904 23.1248C13.5548 22.9959 13.6191 22.8778 13.7156 22.7596C13.7156 22.7596 14.9596 21.2452 17.2008 22.0937C17.2437 22.1044 17.1043 22.4696 16.4823 22.6093ZM17.5118 23.9733C17.6083 23.0818 17.6727 22.33 17.9944 22.33C17.9944 22.33 18.2303 22.33 18.3912 22.5555C18.67 22.9422 19.4314 23.4148 19.7745 24.1237C18.9702 24.1022 18.1981 24.0592 17.5118 23.9733ZM21.0506 24.1237C21.3938 23.4148 22.1552 22.9422 22.434 22.5555C22.5949 22.3407 22.8201 22.33 22.8201 22.33C23.1418 22.33 23.2061 23.0818 23.3026 23.9733C22.6163 24.0485 21.8549 24.1022 21.0399 24.1237M23.6136 22.1044C25.8549 21.2559 27.0988 22.7704 27.0988 22.7704C27.1953 22.8885 27.2597 23.0174 27.324 23.1463C27.013 23.243 26.6162 23.3504 26.1766 23.4685C25.3723 22.7059 24.4072 22.6415 24.3321 22.6307C23.7208 22.4911 23.5707 22.1367 23.6136 22.1152M24.6538 23.0926C25.1257 23.0926 25.501 23.2859 25.7905 23.5652C25.2329 23.6941 24.5895 23.8122 23.871 23.9089C23.9889 23.0818 24.6538 23.0926 24.6538 23.0926ZM24.3321 26.4329C24.0962 26.4007 23.9782 25.6811 23.9139 25.1118C24.7932 24.9937 25.6511 24.8433 26.4661 24.6285C26.7449 25.3052 26.8093 25.9603 26.8093 25.9603C25.8012 27.0022 24.3214 26.4222 24.3214 26.4222M27.2382 25.5737C27.1739 25.4878 27.0774 25.1011 27.0774 25.1011C27.0237 24.8863 26.9487 24.7037 26.8736 24.5211C27.1095 24.4566 27.3455 24.3707 27.5707 24.2955C27.5492 25.0152 27.2382 25.5629 27.2382 25.5629" fill="white"/>
<path d="M50.1655 10.2573L50.0476 5.52063H50.0154C49.9189 6.12211 49.8116 6.55174 49.7366 6.87396L48.943 10.2573H47.3452L46.5838 6.87396C46.5087 6.55174 46.4122 6.12211 46.305 5.52063H46.2728L46.1977 10.2573H45.2004L45.4149 4.65063H47.2808C47.2808 4.65063 47.8921 7.47543 48.2138 9.27987H48.2352C48.6106 7.47543 49.3398 4.65063 49.3398 4.65063H51.1735L51.388 10.2573H50.1655Z" fill="white"/>
<path d="M52.6642 10.2573V6.97061L52.1923 6.87394V6.19728H53.7473V10.268H52.6749L52.6642 10.2573ZM52.632 4.53247H53.7258V5.52061H52.632V4.53247Z" fill="white"/>
<path d="M57.2432 10.2572V7.84058C57.2432 7.22836 57.0073 6.93836 56.514 6.93836C56.2352 6.93836 55.9885 7.06725 55.8062 7.18539V10.2572H54.7231V6.18651H55.4738L55.6346 6.64836C55.8706 6.3691 56.3102 6.10059 56.9215 6.10059C57.951 6.10059 58.3585 6.70206 58.3585 7.73317V10.2465H57.2539L57.2432 10.2572Z" fill="white"/>
<path d="M59.5595 10.2573V6.97061L59.0876 6.87394V6.19728H60.6426V10.268H59.5595V10.2573ZM59.5273 4.53247H60.6211V5.52061H59.5273V4.53247Z" fill="white"/>
<path d="M62.5621 7.26058C62.5621 7.89428 64.3208 7.70095 64.3208 9.03279C64.3208 9.7739 63.7739 10.3432 62.723 10.3432C62.2297 10.3432 61.7793 10.2035 61.5005 10.0424L61.7257 9.29057C61.9187 9.41946 62.3155 9.56983 62.6908 9.56983C63.0662 9.56983 63.2914 9.37649 63.2914 9.11872C63.2914 8.38835 61.5541 8.62465 61.5541 7.2391C61.5541 6.63762 62.0152 6.10059 63.109 6.10059C63.5273 6.10059 63.9669 6.18651 64.2565 6.29392L64.1064 7.07799C63.8275 6.9491 63.4844 6.87392 63.1305 6.87392C62.7766 6.87392 62.5729 7.01354 62.5729 7.24984" fill="white"/>
<path d="M66.6801 10.3325C65.9616 10.3325 65.4897 9.98882 65.4897 8.96845V6.9492H64.8785V6.17588H65.4897V5.46699L66.5621 5.11255V6.16514H67.6452V6.93846H66.5621V8.93623C66.5621 9.21549 66.7015 9.39808 66.9911 9.39808C67.2163 9.39808 67.4522 9.33364 67.613 9.24771L67.7739 10.0425C67.538 10.1822 67.109 10.311 66.6801 10.311" fill="white"/>
<path d="M69.1894 8.5065C69.1894 9.15094 69.554 9.51612 70.2296 9.51612C70.6478 9.51612 71.066 9.35501 71.4199 9.17242L71.6237 9.93501C71.2805 10.1176 70.7229 10.3324 70.0902 10.3324C68.8355 10.3324 68.0956 9.54834 68.0956 8.20576C68.0956 6.9491 68.6961 6.10059 70.0044 6.10059C71.2269 6.10059 71.7095 7.01354 71.7095 8.03391V8.5065H69.1787H69.1894ZM69.9508 6.8954C69.4146 6.8954 69.1894 7.38947 69.1894 7.8728H70.6693C70.6693 7.34651 70.5084 6.8954 69.9508 6.8954Z" fill="white"/>
<path d="M74.8408 7.08873C74.7121 7.04577 74.5191 7.02429 74.3368 7.02429C74.0472 7.02429 73.7899 7.15317 73.6076 7.30354V10.2572H72.5245V6.18651H73.2751L73.3931 6.73429H73.4145C73.5432 6.44429 73.9078 6.11133 74.3797 6.11133C74.5942 6.11133 74.7657 6.14355 74.8515 6.16503L74.8301 7.08873H74.8408Z" fill="white"/>
<path d="M75.8274 10.2573V6.97061L75.3555 6.87394V6.19728H76.8997V10.268H75.8274V10.2573ZM75.7952 4.53247H76.889V5.52061H75.7952V4.53247Z" fill="white"/>
<path d="M81.5431 8.20576C81.5431 9.59131 80.8461 10.3324 79.6343 10.3324C78.4225 10.3324 77.7255 9.60205 77.7255 8.20576C77.7255 7.01354 78.3903 6.10059 79.6343 6.10059C80.8782 6.10059 81.5431 7.01354 81.5431 8.20576ZM80.4278 8.20576C80.4278 7.22836 80.1383 6.88466 79.6343 6.88466C79.1303 6.88466 78.8514 7.22836 78.8514 8.20576C78.8514 9.18316 79.1088 9.5376 79.6343 9.5376C80.1597 9.5376 80.4278 9.18316 80.4278 8.20576Z" fill="white"/>
<path d="M86.7977 6.49801C86.7334 6.26172 86.7012 6.05765 86.7012 5.74617V4.52173H87.7736V10.2465H86.8943L86.7656 9.7954C86.6047 10.0424 86.2079 10.3217 85.6932 10.3217C84.771 10.3217 84.031 9.65578 84.031 8.20578C84.031 6.8632 84.7924 6.08987 85.779 6.08987C86.2187 6.08987 86.5725 6.24024 86.787 6.48727M86.6905 7.09949C86.5189 7.00283 86.2723 6.90616 85.9506 6.90616C85.4358 6.90616 85.1141 7.24986 85.1141 8.20578C85.1141 9.1617 85.4251 9.53763 85.9291 9.53763C86.2079 9.53763 86.476 9.40874 86.6798 9.19393V7.11023L86.6905 7.09949Z" fill="white"/>
<path d="M89.6824 8.5065C89.6824 9.15094 90.047 9.51612 90.7226 9.51612C91.1408 9.51612 91.5591 9.35501 91.9129 9.17242L92.1167 9.93501C91.7735 10.1176 91.2159 10.3324 90.5832 10.3324C89.3285 10.3324 88.5886 9.54834 88.5886 8.20576C88.5886 6.9491 89.1891 6.10059 90.4974 6.10059C91.7306 6.10059 92.2025 7.01354 92.2025 8.03391V8.5065H89.6717H89.6824ZM90.4438 6.8954C89.9076 6.8954 89.6824 7.38947 89.6824 7.8728H91.1623C91.1623 7.34651 91.0014 6.8954 90.4438 6.8954Z" fill="white"/>
<path d="M93.0389 9.17244V4.52173H94.1113V9.108C94.1113 9.4517 94.3151 9.49466 94.7655 9.49466V10.2573C94.7655 10.2573 94.4545 10.3217 94.1649 10.3217C93.3392 10.3217 93.0389 9.88133 93.0389 9.1617" fill="white"/>
<path d="M50.1655 18.7209L50.0476 13.9843H50.0154C49.9189 14.5857 49.8116 15.0154 49.7366 15.3376L48.943 18.7209H47.3452L46.5838 15.3376C46.5087 15.0154 46.4122 14.5857 46.305 13.9843H46.2728L46.1977 18.7209H45.2004L45.4149 13.1143H47.2808C47.2808 13.1143 47.8921 15.9391 48.2138 17.7435H48.2352C48.6106 15.9391 49.3398 13.1143 49.3398 13.1143H51.1735L51.388 18.7209H50.1655Z" fill="white"/>
<path d="M53.254 16.9704C53.254 17.6148 53.6186 17.98 54.2942 17.98C54.7124 17.98 55.1306 17.8189 55.4845 17.6363L55.6883 18.3989C55.3451 18.5815 54.7875 18.7963 54.1548 18.7963C52.9001 18.7963 52.1602 18.0122 52.1602 16.6696C52.1602 15.413 52.7607 14.5645 54.069 14.5645C55.2915 14.5645 55.774 15.4774 55.774 16.4978V16.9704H53.2433H53.254ZM54.0154 15.3593C53.4792 15.3593 53.254 15.8533 53.254 16.3367H54.7338C54.7338 15.8104 54.573 15.3593 54.0154 15.3593Z" fill="white"/>
<path d="M59.2378 14.9619C59.1735 14.7256 59.1413 14.5215 59.1413 14.21V12.9856H60.2137V18.7104H59.3343L59.2056 18.2593C59.0448 18.5063 58.648 18.7856 58.1225 18.7856C57.2003 18.7856 56.4604 18.1196 56.4604 16.6697C56.4604 15.3271 57.2217 14.5537 58.2083 14.5537C58.648 14.5537 58.9912 14.7041 59.2164 14.9511M59.1198 15.5634C58.959 15.4667 58.7016 15.3593 58.3799 15.3593C57.8652 15.3593 57.5435 15.703 57.5435 16.6589C57.5435 17.6148 57.8437 17.9908 58.3585 17.9908C58.6265 17.9908 58.9054 17.8619 59.1091 17.6363V15.5526L59.1198 15.5634Z" fill="white"/>
<path d="M61.522 18.7211V15.4345L61.0501 15.3378V14.6611H62.605V18.7319H61.5327L61.522 18.7211ZM61.4898 12.9963H62.5836V13.9845H61.4898V12.9963Z" fill="white"/>
<path d="M67.227 16.6696C67.227 18.0552 66.5299 18.7963 65.3182 18.7963C64.1064 18.7963 63.4093 18.0659 63.4093 16.6696C63.4093 15.4774 64.0742 14.5645 65.3182 14.5645C66.5621 14.5645 67.227 15.4774 67.227 16.6696ZM66.1117 16.6696C66.1117 15.6922 65.8222 15.3485 65.3182 15.3485C64.8141 15.3485 64.5353 15.6922 64.5353 16.6696C64.5353 17.647 64.7927 18.0015 65.3182 18.0015C65.8436 18.0015 66.1117 17.647 66.1117 16.6696Z" fill="white"/>
<path d="M45.9297 27.174H44.868L46.3801 21.5674H48.1924L49.6615 27.174H48.439L48.1495 25.9174H46.2299L45.9297 27.174ZM47.0449 22.5233L46.4337 25.0366H47.9564L47.3881 22.5233H47.0449Z" fill="white"/>
<path d="M53.8438 24.6607V27.174H52.7499V24.7573C52.7499 24.1451 52.5247 23.8551 52.0207 23.8551C51.7419 23.8551 51.5274 23.984 51.3344 24.1021V27.174H50.2513V23.1033H50.9805L51.1628 23.5758C51.3987 23.2966 51.7955 23.0173 52.3639 23.0173C53.0288 23.0173 53.4255 23.2107 53.6293 23.5866C53.8652 23.2966 54.2942 23.0173 54.8518 23.0173C56.0099 23.0173 56.3531 23.6188 56.3531 24.6499V27.1632H55.2486V24.7466C55.2486 24.1344 54.9912 23.8444 54.4872 23.8444C54.2191 23.8444 53.9832 23.9733 53.8009 24.0914C53.833 24.2525 53.8438 24.4458 53.8438 24.6499" fill="white"/>
<path d="M58.2405 23.5222C58.4228 23.2751 58.8625 23.0281 59.3129 23.0281C60.2673 23.0281 60.9536 23.7048 60.9536 25.1333C60.9536 26.5618 60.1279 27.2599 59.1842 27.2599C58.6051 27.2599 58.2619 27.0344 58.0046 26.6907L57.8008 27.1847H57.2217V21.46H58.3048V22.8777L58.2298 23.5329L58.2405 23.5222ZM58.3156 26.0462C58.4764 26.2718 58.766 26.4651 59.0555 26.4651C59.5273 26.4651 59.8812 26.1107 59.8812 25.1333C59.8812 24.1559 59.5702 23.8229 59.0769 23.8229C58.7981 23.8229 58.5086 23.9625 58.3263 24.1451V26.0462H58.3156Z" fill="white"/>
<path d="M62.1117 27.174V23.8874L61.6399 23.7907V23.114H63.1948V27.1847H62.1117V27.174ZM62.0796 21.4492H63.1734V22.4374H62.0796V21.4492Z" fill="white"/>
<path d="M65.1036 25.434C65.1036 26.0784 65.4683 26.4436 66.1438 26.4436C66.5621 26.4436 66.9803 26.2825 67.3342 26.0999L67.5379 26.8625C67.1948 27.0451 66.6479 27.2599 66.0044 27.2599C64.7498 27.2599 64.0098 26.4758 64.0098 25.1332C64.0098 23.8766 64.6104 23.0281 65.9187 23.0281C67.1412 23.0281 67.6237 23.941 67.6237 24.9614V25.434H65.0929H65.1036ZM65.865 23.8229C65.3288 23.8229 65.1036 24.317 65.1036 24.7895H66.5835C66.5835 24.2633 66.4227 23.8229 65.865 23.8229Z" fill="white"/>
<path d="M70.9695 27.174V24.7573C70.9695 24.1451 70.7336 23.8551 70.2403 23.8551C69.9615 23.8551 69.7149 23.984 69.5326 24.1021V27.174H68.4495V23.1033H69.2001L69.361 23.5651C69.5969 23.2859 70.0366 23.0173 70.6478 23.0173C71.6773 23.0173 72.0848 23.6188 72.0848 24.6499V27.1632H70.9803L70.9695 27.174Z" fill="white"/>
<path d="M74.4547 27.2598C73.7362 27.2598 73.2644 26.9161 73.2644 25.8957V23.8765H72.6532V23.1031H73.2644V22.3942L74.3368 22.0398V23.0924H75.4199V23.8657H74.3368V25.8635C74.3368 26.1427 74.4762 26.3253 74.7657 26.3253C74.9909 26.3253 75.2268 26.2609 75.3877 26.175L75.5486 26.9698C75.3126 27.1094 74.8837 27.2383 74.4547 27.2383" fill="white"/>
<path d="M76.9748 25.434C76.9748 26.0784 77.3394 26.4436 78.015 26.4436C78.4332 26.4436 78.8515 26.2825 79.2053 26.0999L79.4091 26.8625C79.0659 27.0451 78.5083 27.2599 77.8756 27.2599C76.6209 27.2599 75.881 26.4758 75.881 25.1332C75.881 23.8766 76.4815 23.0281 77.7898 23.0281C79.0123 23.0281 79.4949 23.941 79.4949 24.9614V25.434H76.9641H76.9748ZM77.7362 23.8229C77.2 23.8229 76.9748 24.317 76.9748 24.7895H78.4547C78.4547 24.2633 78.2938 23.8229 77.7362 23.8229Z" fill="white"/>
</g>
<defs>
<clipPath id="clip0_123_611">
<rect width="390" height="90.4043" fill="white"/>
</clipPath>
</defs>
</svg>
