<svg width="214" height="30" viewBox="0 0 214 30" fill="none" xmlns="http://www.w3.org/2000/svg">
<g clip-path="url(#clip0_123_612)">
<path d="M0.225775 25.649L2.25609 22.2115C2.60701 21.6827 3.43417 21.7548 3.73496 21.9711C3.91042 22.0432 7.01855 24.2548 9.87603 24.2548C11.6056 24.2548 12.8588 23.2211 12.8588 21.7788C12.8588 20.048 11.3549 18.7259 8.42223 17.5961C4.71252 16.1778 0.050316 13.4134 0.050316 8.4615C0.000184756 4.35092 3.33391 0.216309 9.97629 0.216309C14.463 0.216309 17.9221 2.40381 19.2004 3.31727C19.7268 3.60573 19.6266 4.35092 19.4511 4.63939L17.2453 7.8365C16.9445 8.29323 16.1675 8.65381 15.7915 8.36535C15.4155 8.149 12.2573 5.88939 9.62537 5.88939C8.07131 5.88939 6.91829 6.87496 6.91829 8.00477C6.91829 9.54323 8.2217 10.6971 11.6306 12.0192C14.9894 13.2932 20.3535 15.8173 20.3535 21.4663C20.3535 25.7211 16.5184 30.024 10.1768 30.024C4.56212 30.024 1.45399 27.7884 0.476431 26.8269C0.050316 26.4182 -0.075012 26.25 0.250841 25.673" fill="#495061"/>
<path d="M76.9013 1.41827C76.9013 1.00962 77.2522 0.625 77.7284 0.625H95.6002C96.0765 0.625 96.4274 1.00962 96.4274 1.41827V5.9375C96.4274 6.34615 96.0765 6.73077 95.6002 6.73077H83.6439V12.6923H93.4947C93.9208 12.6923 94.3219 13.0529 94.3219 13.4856V18.0048C94.3219 18.4135 93.9208 18.7981 93.4947 18.7981H83.6439V28.8462C83.6439 29.2548 83.2429 29.6394 82.8168 29.6394H77.7284C77.2522 29.6394 76.9013 29.2789 76.9013 28.8462V1.41827Z" fill="#495061"/>
<path d="M63.0651 15.0721C63.0651 6.80285 56.1219 0.216309 47.4993 0.216309C47.4993 0.216309 47.4743 0.216309 47.4492 0.216309V6.82689C47.4492 6.82689 47.4743 6.82689 47.4993 6.82689C52.2367 6.82689 56.172 10.5528 56.172 15.0721C56.172 19.5913 52.2367 23.3413 47.4993 23.3413C42.7619 23.3413 38.977 19.6875 38.9269 15.1682H32.0088C32.084 23.3894 38.9018 29.9519 47.4993 29.9519C56.0968 29.9519 63.0901 23.3173 63.0901 15.048" fill="#495061"/>
<path d="M152.524 1.41827C152.524 1.00962 152.875 0.625 153.351 0.625H171.223C171.699 0.625 172.05 1.00962 172.05 1.41827V5.9375C172.05 6.34615 171.699 6.73077 171.223 6.73077H159.267V12.6923H169.118C169.544 12.6923 169.945 13.0529 169.945 13.4856V18.0048C169.945 18.4135 169.569 18.7981 169.118 18.7981H159.267V28.8462C159.267 29.2548 158.866 29.6394 158.44 29.6394H153.351C152.875 29.6394 152.524 29.2789 152.524 28.8462V1.41827Z" fill="#495061"/>
<path d="M194.96 13.0289H194.91L187.541 28.7981C187.315 29.3029 186.839 29.7837 185.987 29.7837H181.249C180.598 29.7837 180.247 29.2548 180.522 28.702L194.033 0.865422C194.158 0.625038 194.459 0.408691 194.76 0.408691H195.186C195.487 0.408691 195.787 0.625038 195.913 0.865422L209.423 28.726C209.674 29.2548 209.348 29.8077 208.696 29.8077H203.909C203.132 29.8077 202.781 29.5673 202.405 28.7741L194.985 13.0529L194.96 13.0289Z" fill="#0074C5"/>
<path d="M123.122 0.216309V6.85092C127.86 6.85092 131.745 10.625 131.745 15.1682C131.745 19.7115 127.86 23.4134 123.122 23.4134C118.385 23.4134 114.625 19.7596 114.55 15.3125H107.632C107.707 23.5096 114.55 30.024 123.122 30.024C131.695 30.024 138.663 23.4375 138.663 15.1682C138.663 6.899 131.77 0.216309 123.122 0.216309Z" fill="#495061"/>
<path d="M213.158 3.50962C213.158 5.50481 211.529 7.06731 209.398 7.06731C207.267 7.06731 205.613 5.50481 205.613 3.50962C205.613 1.51442 207.293 0 209.398 0C211.504 0 213.158 1.5625 213.158 3.50962ZM206.566 3.50962C206.566 5.07211 207.769 6.32212 209.423 6.32212C211.077 6.32212 212.205 5.07211 212.205 3.53365C212.205 1.99519 211.027 0.697115 209.398 0.697115C207.769 0.697115 206.566 1.97115 206.566 3.50962ZM208.822 5.36058H207.969V1.85096C208.295 1.77885 208.771 1.75481 209.373 1.75481C210.075 1.75481 210.376 1.85096 210.651 2.01923C210.852 2.16346 211.002 2.45192 211.002 2.78846C211.002 3.17308 210.701 3.48558 210.25 3.60577V3.65385C210.601 3.77404 210.802 4.03846 210.927 4.51923C211.027 5.04808 211.103 5.26442 211.203 5.40865H210.275C210.175 5.28846 210.1 4.95192 209.975 4.54327C209.899 4.15865 209.674 3.99038 209.223 3.99038H208.822V5.40865V5.36058ZM208.822 3.36538H209.223C209.699 3.36538 210.075 3.22115 210.075 2.86058C210.075 2.54808 209.824 2.33173 209.298 2.33173C209.072 2.33173 208.922 2.33173 208.822 2.37981V3.38942V3.36538Z" fill="#495061"/>
</g>
<defs>
<clipPath id="clip0_123_612">
<rect width="213.158" height="30" fill="white"/>
</clipPath>
</defs>
</svg>
