<svg width="40" height="39" viewBox="0 0 40 39" fill="none" xmlns="http://www.w3.org/2000/svg">
<path d="M40 19.3174C40 29.9861 31.0457 38.6348 20 38.6348C8.9543 38.6348 0 29.9861 0 19.3174C0 8.64869 8.9543 0 20 0C31.0457 0 40 8.64869 40 19.3174Z" fill="url(#paint0_linear_250_1655)"/>
<g clip-path="url(#clip0_250_1655)">
<path d="M30.2234 8.24902H9.77187C8.79219 8.24902 8 9.02246 8 9.97871V30.5146C8 31.4709 8.79219 32.249 9.77187 32.249H30.2234C31.2031 32.249 32 31.4709 32 30.5193V9.97871C32 9.02246 31.2031 8.24902 30.2234 8.24902ZM15.1203 28.7006H11.5578V17.2443H15.1203V28.7006ZM13.3391 15.6834C12.1953 15.6834 11.2719 14.76 11.2719 13.6209C11.2719 12.4818 12.1953 11.5584 13.3391 11.5584C14.4781 11.5584 15.4016 12.4818 15.4016 13.6209C15.4016 14.7553 14.4781 15.6834 13.3391 15.6834ZM28.4516 28.7006H24.8937V23.1318C24.8937 21.8053 24.8703 20.0943 23.0422 20.0943C21.1906 20.0943 20.9094 21.5428 20.9094 23.0381V28.7006H17.3563V17.2443H20.7687V18.81H20.8156C21.2891 17.91 22.4516 16.9584 24.1813 16.9584C27.7859 16.9584 28.4516 19.3303 28.4516 22.4146V28.7006V28.7006Z" fill="white"/>
</g>
<defs>
<linearGradient id="paint0_linear_250_1655" x1="20" y1="0" x2="20" y2="38.6348" gradientUnits="userSpaceOnUse">
<stop stop-color="#0DFF6E"/>
<stop offset="1" stop-color="#00B971"/>
</linearGradient>
<clipPath id="clip0_250_1655">
<rect width="24" height="24" fill="white" transform="translate(8 8.24902)"/>
</clipPath>
</defs>
</svg>
