<svg width="79" height="75" viewBox="0 0 79 75" fill="none" xmlns="http://www.w3.org/2000/svg">
<g clip-path="url(#clip0_153_1483)">
<path d="M35.0079 66.0356C32.0171 67.914 28.5434 68.9267 24.9592 68.9267C14.5539 68.9267 6.08684 60.4817 6.08684 50.1006C6.08684 42.12 11.1553 34.9815 18.6987 32.3357C20.7066 31.6313 22.8132 31.2745 24.9592 31.2745C28.7197 31.2745 32.3605 32.3882 35.4474 34.4489C36.7158 35.295 38.4105 35.0982 39.4276 33.9649C40.6592 32.5928 40.3934 30.4481 38.8605 29.421C34.771 26.6821 29.9447 25.2025 24.9592 25.2025C23.5895 25.2025 22.2316 25.314 20.8934 25.533C19.4618 25.7678 18.0539 26.1259 16.6803 26.6073C15.9789 26.8539 15.2934 27.1307 14.625 27.4337C5.79342 31.4411 0 40.2901 0 50.1006C0 63.8292 11.1974 74.9987 24.9592 74.9987C30.2355 74.9987 35.3342 73.3393 39.5697 70.2856C38.8684 69.7806 38.1908 69.2375 37.5395 68.6564C36.6263 67.8405 35.7816 66.963 35.0079 66.0356Z" fill="white"/>
<path d="M62.7987 33.4756C65.9263 35.1179 68.5421 37.6115 70.3342 40.7059C75.5368 49.69 72.4342 61.2215 63.4158 66.412C56.4829 70.4023 47.7474 69.5956 41.6776 64.4064C40.0618 63.0251 38.6987 61.3855 37.625 59.532C35.7447 56.2854 34.8921 52.585 35.1382 48.8898C35.2395 47.3721 34.2211 46.0066 32.7276 45.6957C30.9197 45.3193 29.1895 46.6205 29.0632 48.457C28.7289 53.3563 29.8566 58.2648 32.3487 62.5686C33.0342 63.7518 33.8092 64.8681 34.6684 65.9136C35.5882 67.0325 36.6026 68.0688 37.7092 69.0145C38.2737 69.4972 38.8566 69.9511 39.4539 70.3761C47.3513 75.9969 57.9342 76.5741 66.4579 71.6682C78.3842 64.8038 82.4895 49.5523 75.6079 37.6705C72.9697 33.1148 68.979 29.543 64.2079 27.4127C64.1197 28.2706 63.9868 29.1272 63.8079 29.9798C63.5566 31.1761 63.2158 32.3435 62.7974 33.4769L62.7987 33.4756Z" fill="white"/>
<path d="M20.7882 25.5894C20.6513 22.0687 21.5092 18.5624 23.3013 15.4681C28.5039 6.48395 40.0737 3.39743 49.0908 8.58798C56.0237 12.5783 59.6908 20.5235 58.2171 28.3585C57.825 30.4442 57.0816 32.442 56.0092 34.2941C54.1289 37.5407 51.3408 40.1274 48.0079 41.7619C46.6382 42.4335 45.9618 43.9958 46.4382 45.4413C47.0145 47.1912 49.0105 48.0346 50.6697 47.2239C55.0934 45.0635 58.7921 41.6359 61.2855 37.3308C61.9711 36.1476 62.5526 34.9198 63.0316 33.6553C63.5434 32.3029 63.9368 30.9072 64.2053 29.4801C64.3421 28.7507 64.4447 28.0214 64.5158 27.2921C65.45 17.6639 60.6592 8.23774 52.1368 3.33184C40.2079 -3.53118 24.9066 0.54964 18.0263 12.4327C15.3882 16.9884 14.2803 22.2196 14.8158 27.4036C15.6053 27.0507 16.4158 26.7372 17.2461 26.4657C18.4105 26.0853 19.5947 25.7954 20.7895 25.5907L20.7882 25.5894Z" fill="white"/>
<path d="M39.7776 24.6856L24.6711 50.3131H54.2763L39.7776 24.6856Z" fill="white"/>
</g>
<defs>
<clipPath id="clip0_153_1483">
<rect width="78.9474" height="75" fill="white"/>
</clipPath>
</defs>
</svg>
