<svg width="348" height="223" viewBox="0 0 348 223" fill="none" xmlns="http://www.w3.org/2000/svg">
<g clip-path="url(#clip0_5_75)">
<path d="M165.149 131.294C159.223 135.031 152.338 137.041 145.234 137.041C124.611 137.041 107.832 120.248 107.832 99.6107C107.832 83.7449 117.878 69.5496 132.827 64.2903C136.806 62.8916 140.982 62.1802 145.234 62.1802C152.686 62.1802 159.903 64.3942 166.02 68.4906C168.534 70.1731 171.894 69.7814 173.908 67.5274C176.35 64.7979 175.822 60.5337 172.785 58.4915C164.682 53.0444 155.116 50.1031 145.234 50.1031C142.521 50.1031 139.827 50.3229 137.178 50.7625C134.341 51.23 131.552 51.9414 128.827 52.9005C127.436 53.3881 126.078 53.9396 124.755 54.5431C107.253 62.5119 95.7689 80.1041 95.7689 99.6107C95.7689 126.906 117.958 149.114 145.234 149.114C155.691 149.114 165.796 145.813 174.188 139.743C172.797 138.736 171.455 137.661 170.164 136.502C168.354 134.879 166.68 133.137 165.145 131.29L165.149 131.294Z" fill="#ffffff"/>
<path d="M220.228 66.5603C226.426 69.8254 231.612 74.7849 235.165 80.9354C245.478 98.7994 239.324 121.727 221.455 132.046C207.717 139.978 190.403 138.376 178.375 128.057C175.175 125.312 172.47 122.051 170.344 118.366C166.616 111.912 164.925 104.554 165.417 97.2048C165.617 94.1875 163.599 91.474 160.638 90.8545C157.054 90.1032 153.625 92.6929 153.377 96.3456C152.714 106.089 154.948 115.844 159.891 124.404C161.249 126.754 162.784 128.976 164.49 131.054C166.312 133.276 168.322 135.339 170.516 137.221C171.634 138.18 172.789 139.083 173.976 139.927C189.628 151.1 210.602 152.251 227.493 142.496C251.128 128.848 259.264 98.5236 245.626 74.9008C240.395 65.8409 232.487 58.7393 223.033 54.5071C222.857 56.2136 222.594 57.9161 222.238 59.6105C221.739 61.9884 221.063 64.3103 220.232 66.5643L220.228 66.5603Z" fill="#ffffff"/>
<path d="M136.97 50.8784C136.699 43.8767 138.401 36.9069 141.949 30.7564C152.262 12.8924 175.191 6.75794 193.06 17.0767C206.798 25.0096 214.067 40.8074 211.146 56.3854C210.366 60.5337 208.896 64.5022 206.77 68.1869C203.042 74.6411 197.52 79.7845 190.911 83.0335C188.197 84.3683 186.855 87.4736 187.802 90.347C188.945 93.8279 192.9 95.5024 196.189 93.8918C204.956 89.5956 212.288 82.7818 217.227 74.2214C218.586 71.8715 219.737 69.4297 220.688 66.912C221.703 64.2224 222.482 61.4489 223.013 58.6114C223.285 57.1607 223.489 55.71 223.629 54.2633C225.479 35.1205 215.985 16.3773 199.094 6.62606C175.458 -7.0217 145.134 1.09502 131.496 24.7178C126.265 33.7777 124.072 44.1764 125.135 54.4831C126.701 53.7838 128.307 53.1563 129.95 52.6168C132.259 51.8615 134.605 51.282 136.97 50.8784Z" fill="#ffffff"/>
<path d="M174.603 49.084L144.662 100.038H203.338L174.603 49.084Z" fill="#ffffff"/>
<path d="M0 201.06V200.972C0 192.208 6.54923 184.95 15.6638 184.95C20.6626 184.95 23.8513 186.589 26.7283 188.979C27.084 189.29 27.4356 189.774 27.4356 190.393C27.4356 191.324 26.5965 192.12 25.6654 192.12C25.178 192.12 24.7824 191.9 24.5146 191.72C22.1251 189.594 19.4239 188.179 15.6198 188.179C8.75894 188.179 3.62825 193.754 3.62825 200.88V200.968C3.62825 208.137 8.80689 213.756 15.6198 213.756C19.4679 213.756 22.1691 212.429 24.8223 209.996C25.086 209.732 25.4856 209.508 25.9292 209.508C26.8123 209.508 27.6114 210.303 27.6114 211.191C27.6114 211.722 27.3477 212.166 27.036 212.429C23.9832 215.219 20.6187 216.989 15.5319 216.989C6.59318 216.989 0 209.952 0 201.056L0 201.06Z" fill="#ffffff"/>
<path d="M40.9736 187.032C40.9736 186.057 41.7688 185.262 42.6998 185.262C43.6309 185.262 44.47 186.057 44.47 187.032V214.915C44.47 215.89 43.6748 216.686 42.6998 216.686C41.7248 216.686 40.9736 215.89 40.9736 214.915V187.032Z" fill="#ffffff"/>
<path d="M60.1777 187.252C60.1777 186.277 60.9729 185.482 61.9039 185.482H73.496C77.3 185.482 80.3529 186.633 82.3028 188.579C83.8093 190.086 84.6924 192.252 84.6924 194.685V194.773C84.6924 199.865 81.2399 202.826 76.4169 203.757L84.117 213.672C84.4726 214.072 84.6924 214.468 84.6924 214.955C84.6924 215.886 83.8093 216.682 82.9222 216.682C82.2149 216.682 81.6835 216.282 81.2839 215.751L72.5649 204.421H63.6701V214.911C63.6701 215.886 62.8749 216.682 61.9 216.682C60.925 216.682 60.1737 215.886 60.1737 214.911V187.252H60.1777ZM73.1883 201.283C77.8355 201.283 81.152 198.894 81.152 194.909V194.821C81.152 191.017 78.2311 188.715 73.2322 188.715H63.6741V201.283H73.1883Z" fill="#ffffff"/>
<path d="M97.4352 201.06V200.972C97.4352 192.208 103.984 184.95 113.099 184.95C118.098 184.95 121.287 186.589 124.164 188.979C124.519 189.29 124.871 189.774 124.871 190.393C124.871 191.324 124.032 192.12 123.101 192.12C122.613 192.12 122.218 191.9 121.95 191.72C119.56 189.594 116.859 188.179 113.055 188.179C106.194 188.179 101.063 193.754 101.063 200.88V200.968C101.063 208.137 106.242 213.756 113.055 213.756C116.903 213.756 119.604 212.429 122.257 209.996C122.521 209.732 122.921 209.508 123.364 209.508C124.247 209.508 125.047 210.303 125.047 211.191C125.047 211.722 124.783 212.166 124.471 212.429C121.418 215.219 118.054 216.989 112.967 216.989C104.028 216.989 97.4352 209.952 97.4352 201.056V201.06Z" fill="#ffffff"/>
<path d="M137.614 203.494V187.028C137.614 186.053 138.409 185.258 139.34 185.258C140.271 185.258 141.11 186.053 141.11 187.028V203.27C141.11 209.952 144.694 213.712 150.58 213.712C156.466 213.712 159.919 210.259 159.919 203.49V187.024C159.919 186.049 160.714 185.254 161.689 185.254C162.664 185.254 163.415 186.049 163.415 187.024V203.222C163.415 212.25 158.236 216.941 150.492 216.941C142.748 216.941 137.614 212.25 137.614 203.486V203.494Z" fill="#ffffff"/>
<path d="M178.324 187.032C178.324 186.057 179.119 185.262 180.05 185.262C180.981 185.262 181.82 186.057 181.82 187.032V213.233H197.883C198.766 213.233 199.478 213.984 199.478 214.871C199.478 215.758 198.77 216.466 197.883 216.466H180.05C179.119 216.466 178.324 215.671 178.324 214.695V187.036V187.032Z" fill="#ffffff"/>
<path d="M210.45 214.16L223.017 186.677C223.461 185.701 224.124 185.126 225.231 185.126H225.407C226.47 185.126 227.177 185.701 227.577 186.677L240.144 214.116C240.275 214.428 240.363 214.735 240.363 214.999C240.363 215.93 239.612 216.682 238.681 216.682C237.842 216.682 237.267 216.106 236.955 215.399L233.726 208.273H216.736L213.507 215.487C213.199 216.238 212.624 216.682 211.825 216.682C210.942 216.682 210.231 215.974 210.231 215.087C210.231 214.823 210.274 214.512 210.45 214.156V214.16ZM232.356 205.088L225.231 189.242L218.106 205.088H232.356Z" fill="#ffffff"/>
<path d="M253.682 187.252C253.682 186.277 254.477 185.482 255.408 185.482H267C270.804 185.482 273.857 186.633 275.807 188.579C277.313 190.086 278.196 192.252 278.196 194.685V194.773C278.196 199.865 274.744 202.826 269.921 203.757L277.621 213.672C277.976 214.072 278.196 214.468 278.196 214.955C278.196 215.886 277.313 216.682 276.426 216.682C275.719 216.682 275.187 216.282 274.788 215.751L266.069 204.421H257.174V214.911C257.174 215.886 256.379 216.682 255.404 216.682C254.429 216.682 253.678 215.886 253.678 214.911V187.252H253.682ZM266.692 201.283C271.339 201.283 274.656 198.894 274.656 194.909V194.821C274.656 191.017 271.735 188.715 266.736 188.715H257.178V201.283H266.692Z" fill="#ffffff"/>
<path d="M285.652 178.944V223H348.004V178.944H285.652ZM298.775 213.321C298.775 215.223 297.272 216.73 295.366 216.73C293.46 216.73 291.958 215.223 291.958 213.321V188.627C291.958 186.725 293.46 185.218 295.366 185.218C297.272 185.218 298.775 186.725 298.775 188.627V213.321ZM338.466 216.73C336.871 216.73 335.813 215.798 335.193 214.384L333.111 209.516H319.481L317.312 214.608C316.736 215.934 315.585 216.734 314.171 216.734C312.401 216.734 311.03 215.319 311.03 213.548C311.03 213.061 311.206 212.573 311.43 212.09L322.227 187.704C322.978 186.021 324.352 185.002 326.211 185.002H326.61C328.468 185.002 329.795 186.021 330.55 187.704L341.347 212.09C341.567 212.577 341.702 213.021 341.702 213.461C341.702 215.275 340.288 216.734 338.474 216.734L338.466 216.73Z" fill="#ffffff"/>
<path d="M322.003 203.493H330.586L326.294 193.271L322.003 203.493Z" fill="#ffffff"/>
</g>
<defs>
<clipPath id="clip0_5_75">
<rect width="348" height="223" fill="#ffffff"/>
</clipPath>
</defs>
</svg>
