<svg width="402" height="379" viewBox="0 0 402 379" fill="none" xmlns="http://www.w3.org/2000/svg">
<path d="M46.34 101.088C72.8558 52.2706 139.559 -4.71713 231.076 19.0201C322.594 42.7573 384.412 92.9735 374.282 180.341C364.152 267.709 310.909 340.301 196.197 342.426C81.4858 344.551 -11.8071 208.136 46.34 101.088Z" fill="#00B971"/>
<path opacity="0.7" d="M46.34 101.088C72.8558 52.2706 139.559 -4.71713 231.076 19.0201C322.594 42.7573 384.412 92.9735 374.282 180.341C364.152 267.709 310.909 340.301 196.197 342.426C81.4858 344.551 -11.8071 208.136 46.34 101.088Z" fill="white"/>
<mask id="mask0_30_9181" style="mask-type:luminance" maskUnits="userSpaceOnUse" x="155" y="80" width="161" height="35">
<path d="M183.85 108.752C183.85 108.752 196.381 94.3812 214.663 94.3812C214.663 94.3812 215.27 83.2302 227.746 80.8197C240.222 78.4092 242.641 89.551 242.641 89.551C242.641 89.551 251.842 84.6563 264.244 89.551C276.646 94.4456 274.107 108.706 274.107 108.706C274.107 108.706 309.823 107.547 315.951 114.089H155.448C155.448 114.089 158.687 106.084 183.85 108.752Z" fill="white"/>
</mask>
<g mask="url(#mask0_30_9181)">
<path opacity="0.5" d="M183.85 108.752C183.85 108.752 196.381 94.3812 214.663 94.3812C214.663 94.3812 215.27 83.2302 227.746 80.8197C240.222 78.4092 242.641 89.551 242.641 89.551C242.641 89.551 251.842 84.6563 264.244 89.551C276.646 94.4456 274.107 108.706 274.107 108.706C274.107 108.706 309.823 107.547 315.951 114.089H155.448C155.448 114.089 158.687 106.084 183.85 108.752Z" stroke="#001511" stroke-linecap="round" stroke-linejoin="round"/>
</g>
<path d="M183.85 108.752C183.85 108.752 196.381 94.3812 214.663 94.3812C214.663 94.3812 215.27 83.2302 227.746 80.8197C240.222 78.4092 242.641 89.551 242.641 89.551C242.641 89.551 251.842 84.6563 264.244 89.551C276.646 94.4456 274.107 108.706 274.107 108.706C274.107 108.706 309.823 107.547 315.951 114.089H155.448C155.448 114.089 158.687 106.084 183.85 108.752Z" stroke="#001511" stroke-linecap="round" stroke-linejoin="round"/>
<mask id="mask1_30_9181" style="mask-type:luminance" maskUnits="userSpaceOnUse" x="182" y="1" width="129" height="27">
<path d="M287.402 23.5468C287.402 23.5468 277.401 12.0922 262.827 12.0922C262.827 12.0922 262.34 3.1953 252.394 1.2724C242.448 -0.650498 240.507 8.23716 240.507 8.23716C240.507 8.23716 233.147 4.33616 223.284 8.23716C213.421 12.1382 215.408 23.5192 215.408 23.5192C215.408 23.5192 186.886 22.5991 182.038 27.8066H310.053C310.053 27.8066 307.468 21.4214 287.402 23.5468Z" fill="white"/>
</mask>
<g mask="url(#mask1_30_9181)">
<path opacity="0.5" d="M287.402 23.5468C287.402 23.5468 277.401 12.0922 262.827 12.0922C262.827 12.0922 262.34 3.1953 252.394 1.2724C242.448 -0.650498 240.507 8.23716 240.507 8.23716C240.507 8.23716 233.147 4.33616 223.284 8.23716C213.421 12.1382 215.408 23.5192 215.408 23.5192C215.408 23.5192 186.886 22.5991 182.038 27.8066H310.053C310.053 27.8066 307.468 21.4214 287.402 23.5468Z" stroke="#001511" stroke-linecap="round" stroke-linejoin="round"/>
</g>
<path d="M287.402 23.5468C287.402 23.5468 277.401 12.0922 262.827 12.0922C262.827 12.0922 262.34 3.1953 252.394 1.2724C242.448 -0.650498 240.507 8.23716 240.507 8.23716C240.507 8.23716 233.147 4.33616 223.284 8.23716C213.421 12.1382 215.408 23.5192 215.408 23.5192C215.408 23.5192 186.886 22.5991 182.038 27.8066H310.053C310.053 27.8066 307.468 21.4214 287.402 23.5468Z" stroke="#001511" stroke-linecap="round" stroke-linejoin="round"/>
<mask id="mask2_30_9181" style="mask-type:luminance" maskUnits="userSpaceOnUse" x="41" y="49" width="77" height="17">
<path d="M55.3381 63.3572C55.3381 63.3572 61.2724 56.5489 69.9392 56.5489C70.1024 54.9375 70.801 53.4274 71.9235 52.2599C73.046 51.0924 74.5275 50.3349 76.1311 50.1085C82.0378 48.9677 83.1879 54.2395 83.1879 54.2395C84.8028 53.5407 86.5438 53.1802 88.3034 53.1802C90.063 53.1802 91.8039 53.5407 93.4188 54.2395C99.2887 56.5581 98.1019 63.3204 98.1019 63.3204C98.1019 63.3204 115.012 62.7684 117.92 65.8689H41.8869C41.8869 65.8689 43.4142 62.0876 55.3381 63.3572Z" fill="white"/>
</mask>
<g mask="url(#mask2_30_9181)">
<path opacity="0.5" d="M55.3381 63.3572C55.3381 63.3572 61.2724 56.5489 69.9392 56.5489C70.1024 54.9375 70.801 53.4274 71.9235 52.2599C73.046 51.0924 74.5275 50.3349 76.1311 50.1085C82.0378 48.9677 83.1879 54.2395 83.1879 54.2395C84.8028 53.5407 86.5438 53.1802 88.3034 53.1802C90.063 53.1802 91.8039 53.5407 93.4188 54.2395C99.2887 56.5581 98.1019 63.3204 98.1019 63.3204C98.1019 63.3204 115.012 62.7684 117.92 65.8689H41.8869C41.8869 65.8689 43.4142 62.0876 55.3381 63.3572Z" stroke="#001511" stroke-linecap="round" stroke-linejoin="round"/>
</g>
<path d="M55.3381 63.3572C55.3381 63.3572 61.2724 56.5489 69.9392 56.5489C70.1024 54.9375 70.801 53.4274 71.9235 52.2599C73.046 51.0924 74.5275 50.3349 76.1311 50.1085C82.0378 48.9677 83.1879 54.2395 83.1879 54.2395C84.8028 53.5407 86.5438 53.1802 88.3034 53.1802C90.063 53.1802 91.8039 53.5407 93.4188 54.2395C99.2887 56.5581 98.1019 63.3204 98.1019 63.3204C98.1019 63.3204 115.012 62.7684 117.92 65.8689H41.8869C41.8869 65.8689 43.4142 62.0876 55.3381 63.3572Z" stroke="#001511" stroke-linecap="round" stroke-linejoin="round"/>
<mask id="mask3_30_9181" style="mask-type:luminance" maskUnits="userSpaceOnUse" x="132" y="207" width="77" height="17">
<path d="M146.257 220.695C146.257 220.695 152.191 213.886 160.858 213.886C161.02 212.274 161.718 210.763 162.841 209.596C163.964 208.428 165.446 207.671 167.05 207.446C172.957 206.323 174.116 211.568 174.116 211.568C175.731 210.869 177.472 210.508 179.232 210.508C180.991 210.508 182.732 210.869 184.347 211.568C190.217 213.877 189.03 220.649 189.03 220.649C189.03 220.649 205.941 220.097 208.848 223.197H132.806C132.806 223.197 134.333 219.425 146.257 220.695Z" fill="white"/>
</mask>
<g mask="url(#mask3_30_9181)">
<path opacity="0.5" d="M146.257 220.695C146.257 220.695 152.191 213.886 160.858 213.886C161.02 212.274 161.718 210.763 162.841 209.596C163.964 208.428 165.446 207.671 167.05 207.446C172.957 206.323 174.116 211.568 174.116 211.568C175.731 210.869 177.472 210.508 179.232 210.508C180.991 210.508 182.732 210.869 184.347 211.568C190.217 213.877 189.03 220.649 189.03 220.649C189.03 220.649 205.941 220.097 208.848 223.197H132.806C132.806 223.197 134.333 219.425 146.257 220.695Z" stroke="#001511" stroke-linecap="round" stroke-linejoin="round"/>
</g>
<path d="M146.257 220.695C146.257 220.695 152.191 213.886 160.858 213.886C161.02 212.274 161.718 210.763 162.841 209.596C163.964 208.428 165.446 207.671 167.05 207.446C172.957 206.323 174.116 211.568 174.116 211.568C175.731 210.869 177.472 210.508 179.232 210.508C180.991 210.508 182.732 210.869 184.347 211.568C190.217 213.877 189.03 220.649 189.03 220.649C189.03 220.649 205.941 220.097 208.848 223.197H132.806C132.806 223.197 134.333 219.425 146.257 220.695Z" stroke="#001511" stroke-linecap="round" stroke-linejoin="round"/>
<path d="M77.8884 134.394L77.7964 120.041C77.7624 119.546 77.5416 119.082 77.1787 118.743C76.8158 118.404 76.3378 118.216 75.8413 118.216C75.3448 118.216 74.8668 118.404 74.5039 118.743C74.141 119.082 73.9202 119.546 73.8862 120.041V124.743" stroke="#001511" stroke-linecap="round" stroke-linejoin="round"/>
<path d="M73.7758 138.231L73.739 143.503" stroke="#001511" stroke-linecap="round" stroke-linejoin="round"/>
<path d="M78.7073 261.885L77.9804 148.912" stroke="#001511" stroke-linecap="round" stroke-linejoin="round"/>
<path d="M73.6746 153.43L72.9846 261.885" stroke="#001511" stroke-linecap="round" stroke-linejoin="round"/>
<path d="M125.354 144.404L83.5743 135.489L81.2742 138.728L79.6089 138.553L61.9348 96.2306C61.8144 95.9399 61.5868 95.7067 61.2991 95.5795C61.0113 95.4523 60.6857 95.4408 60.3897 95.5473C60.0937 95.6539 59.8501 95.8703 59.7095 96.1517C59.5689 96.4332 59.5421 96.7579 59.6346 97.0586L71.8529 138.001L75.7999 138.452L76.4255 139.951L48.4193 176.358C48.2477 176.606 48.1739 176.908 48.212 177.208C48.25 177.507 48.3972 177.781 48.6253 177.979C48.8534 178.176 49.1464 178.282 49.448 178.277C49.7496 178.271 50.0385 178.155 50.2594 177.949L79.7561 147.036L78.192 143.355L79.2317 142.012L124.986 146.833C125.145 146.857 125.308 146.85 125.464 146.811C125.621 146.772 125.768 146.703 125.898 146.608C126.028 146.512 126.138 146.392 126.221 146.253C126.305 146.115 126.36 145.962 126.384 145.803C126.408 145.643 126.401 145.481 126.362 145.324C126.323 145.167 126.254 145.02 126.159 144.89C126.063 144.76 125.943 144.65 125.804 144.567C125.666 144.484 125.513 144.428 125.354 144.404Z" stroke="#001511" stroke-linecap="round" stroke-linejoin="round"/>
<path d="M78.7072 141.212C79.3678 141.212 79.9033 140.676 79.9033 140.016C79.9033 139.355 79.3678 138.82 78.7072 138.82C78.0467 138.82 77.5112 139.355 77.5112 140.016C77.5112 140.676 78.0467 141.212 78.7072 141.212Z" stroke="#001511" stroke-linecap="round" stroke-linejoin="round"/>
<path d="M116.356 184.012L116.282 172.65C116.282 172.24 116.119 171.847 115.829 171.557C115.539 171.267 115.146 171.104 114.736 171.104C114.326 171.104 113.933 171.267 113.643 171.557C113.354 171.847 113.191 172.24 113.191 172.65V176.376" stroke="#001511" stroke-linecap="round" stroke-linejoin="round"/>
<path d="M113.099 187.048L113.071 191.207" stroke="#001511" stroke-linecap="round" stroke-linejoin="round"/>
<path d="M117 284.859L116.429 195.495" stroke="#001511" stroke-linecap="round" stroke-linejoin="round"/>
<path d="M113.025 199.064L112.473 284.859" stroke="#001511" stroke-linecap="round" stroke-linejoin="round"/>
<path d="M153.93 191.952L120.873 184.886L119.033 187.453L117.708 187.315L103.733 153.826C103.69 153.704 103.622 153.593 103.533 153.5C103.445 153.407 103.338 153.333 103.219 153.283C103.1 153.234 102.972 153.21 102.844 153.213C102.715 153.216 102.588 153.246 102.472 153.301C102.251 153.395 102.072 153.567 101.968 153.784C101.865 154.001 101.845 154.248 101.911 154.479L111.581 186.864L114.7 187.223L115.196 188.41L93.0232 217.189C92.8561 217.384 92.7733 217.638 92.7931 217.894C92.813 218.151 92.9338 218.388 93.129 218.556C93.3242 218.723 93.5778 218.805 93.8341 218.786C94.0903 218.766 94.3281 218.645 94.4953 218.45L117.818 193.995L116.586 191.106L117.404 190.039L153.599 193.848C153.726 193.868 153.857 193.862 153.981 193.83C154.106 193.797 154.223 193.738 154.323 193.658C154.424 193.577 154.507 193.476 154.566 193.361C154.625 193.247 154.659 193.121 154.666 192.992C154.691 192.759 154.629 192.525 154.494 192.334C154.359 192.142 154.158 192.007 153.93 191.952Z" stroke="#001511" stroke-linecap="round" stroke-linejoin="round"/>
<path d="M117.993 188.456C117.993 188.638 117.939 188.816 117.838 188.967C117.737 189.119 117.593 189.237 117.425 189.306C117.257 189.376 117.072 189.394 116.894 189.359C116.715 189.323 116.551 189.235 116.423 189.107C116.294 188.978 116.206 188.814 116.171 188.636C116.135 188.457 116.154 188.272 116.223 188.104C116.293 187.936 116.411 187.792 116.562 187.691C116.713 187.59 116.891 187.536 117.073 187.536C117.317 187.536 117.551 187.633 117.724 187.806C117.896 187.978 117.993 188.212 117.993 188.456Z" stroke="#001511" stroke-linecap="round" stroke-linejoin="round"/>
<path d="M318.187 134.394L318.279 120.041C318.313 119.546 318.533 119.082 318.896 118.743C319.259 118.404 319.737 118.216 320.234 118.216C320.73 118.216 321.208 118.404 321.571 118.743C321.934 119.082 322.155 119.546 322.189 120.041V124.743" stroke="#001511" stroke-linecap="round" stroke-linejoin="round"/>
<path d="M322.299 138.231L322.336 143.503" stroke="#001511" stroke-linecap="round" stroke-linejoin="round"/>
<path d="M317.368 261.885L318.094 148.912" stroke="#001511" stroke-linecap="round" stroke-linejoin="round"/>
<path d="M322.4 153.43L323.09 261.885" stroke="#001511" stroke-linecap="round" stroke-linejoin="round"/>
<path d="M270.721 144.404L312.501 135.489L314.801 138.728L316.466 138.553L334.14 96.2306C334.26 95.9399 334.488 95.7068 334.776 95.5795C335.064 95.4523 335.389 95.4408 335.685 95.5473C335.981 95.6539 336.225 95.8703 336.365 96.1518C336.506 96.4332 336.533 96.7579 336.44 97.0586L324.222 138.001L320.275 138.452L319.649 139.951L347.683 176.339C347.855 176.587 347.929 176.89 347.891 177.189C347.853 177.488 347.705 177.763 347.477 177.96C347.249 178.158 346.956 178.264 346.655 178.258C346.353 178.253 346.064 178.136 345.843 177.931L316.346 147.017L317.911 143.337L316.871 141.994L271.117 146.815C270.807 146.846 270.496 146.759 270.249 146.569C270.002 146.38 269.836 146.103 269.785 145.796C269.735 145.488 269.803 145.173 269.977 144.914C270.151 144.656 270.417 144.473 270.721 144.404Z" stroke="#001511" stroke-linecap="round" stroke-linejoin="round"/>
<path d="M317.368 141.212C318.028 141.212 318.564 140.676 318.564 140.016C318.564 139.355 318.028 138.82 317.368 138.82C316.707 138.82 316.172 139.355 316.172 140.016C316.172 140.676 316.707 141.212 317.368 141.212Z" stroke="#001511" stroke-linecap="round" stroke-linejoin="round"/>
<path d="M279.719 184.012L279.793 172.65C279.793 172.24 279.956 171.847 280.246 171.557C280.536 171.267 280.929 171.104 281.339 171.104C281.749 171.104 282.142 171.267 282.432 171.557C282.721 171.847 282.884 172.24 282.884 172.65V176.376" stroke="#001511" stroke-linecap="round" stroke-linejoin="round"/>
<path d="M282.976 187.048L283.004 191.207" stroke="#001511" stroke-linecap="round" stroke-linejoin="round"/>
<path d="M279.075 284.859L279.646 195.495" stroke="#001511" stroke-linecap="round" stroke-linejoin="round"/>
<path d="M283.05 199.064L283.602 284.859" stroke="#001511" stroke-linecap="round" stroke-linejoin="round"/>
<path d="M242.145 191.952L275.202 184.886L277.042 187.453L278.367 187.315L292.342 153.826C292.385 153.704 292.453 153.593 292.542 153.5C292.63 153.407 292.737 153.333 292.856 153.283C292.975 153.234 293.103 153.21 293.231 153.213C293.36 153.216 293.487 153.246 293.603 153.301C293.824 153.395 294.003 153.567 294.107 153.784C294.21 154.001 294.23 154.248 294.164 154.479L284.494 186.864L281.375 187.223L280.879 188.41L303.052 217.189C303.219 217.384 303.302 217.638 303.282 217.894C303.262 218.151 303.141 218.388 302.946 218.556C302.751 218.723 302.497 218.805 302.241 218.786C301.985 218.766 301.747 218.645 301.58 218.45L278.256 193.995L279.489 191.106L278.67 190.039L242.476 193.848C242.348 193.868 242.218 193.862 242.093 193.83C241.969 193.797 241.852 193.738 241.752 193.658C241.651 193.577 241.568 193.476 241.509 193.361C241.45 193.247 241.416 193.121 241.409 192.992C241.384 192.759 241.446 192.525 241.581 192.334C241.716 192.142 241.917 192.007 242.145 191.952Z" stroke="#001511" stroke-linecap="round" stroke-linejoin="round"/>
<path d="M278.128 188.456C278.128 188.638 278.182 188.816 278.283 188.967C278.384 189.119 278.527 189.237 278.696 189.306C278.864 189.376 279.049 189.394 279.227 189.359C279.406 189.323 279.57 189.235 279.698 189.107C279.827 188.978 279.915 188.814 279.95 188.636C279.986 188.457 279.967 188.272 279.898 188.104C279.828 187.936 279.71 187.792 279.559 187.691C279.408 187.59 279.23 187.536 279.048 187.536C278.804 187.536 278.57 187.633 278.397 187.806C278.225 187.978 278.128 188.212 278.128 188.456Z" stroke="#001511" stroke-linecap="round" stroke-linejoin="round"/>
<path d="M1 248.471C1 248.471 2.78489 253.182 8.36038 260.431C15.5644 269.871 29.1811 283.607 53.5899 296.783C96.6482 320.06 123.9 358.739 123.9 358.739L148.953 278.888C148.953 278.888 137.811 278.078 122.134 266.927C111.433 259.41 98.6723 247.063 85.9204 226.988C54.3812 177.388 21.3883 166.633 21.3883 166.633" fill="white"/>
<mask id="mask4_30_9181" style="mask-type:luminance" maskUnits="userSpaceOnUse" x="1" y="166" width="148" height="193">
<path d="M1 248.471C1 248.471 2.78489 253.182 8.36038 260.431C15.5644 269.871 29.1811 283.607 53.5899 296.783C96.6482 320.06 123.9 358.739 123.9 358.739L148.953 278.888C148.953 278.888 137.811 278.078 122.134 266.927C111.433 259.41 98.6723 247.063 85.9204 226.988C54.3812 177.388 21.3883 166.633 21.3883 166.633" fill="white"/>
</mask>
<g mask="url(#mask4_30_9181)">
<path opacity="0.4" d="M8.33276 260.431C15.5643 269.871 29.181 283.608 53.5899 296.783C96.6482 320.06 123.9 358.739 123.9 358.739L148.953 278.888C148.953 278.888 137.811 278.078 122.133 266.927C109.299 266.577 82.691 275.29 69.1019 288.419C69.0559 288.438 37.6639 272.521 8.33276 260.431Z" fill="#00B971"/>
<path d="M91.1739 277.618C91.1739 277.618 106.493 290.848 115.095 291.281" stroke="#001511" stroke-linecap="round" stroke-linejoin="round"/>
<path d="M46.2295 292.955C57.1505 298.264 73.1685 304.198 78.9924 307.234" stroke="#001511" stroke-linecap="round" stroke-linejoin="round"/>
<path d="M88.1101 230.567C91.0725 236.688 94.5668 242.538 98.5527 248.048" stroke="#001511" stroke-linecap="round" stroke-linejoin="round"/>
</g>
<path d="M1 248.471C1 248.471 2.78489 253.182 8.36038 260.431C15.5644 269.871 29.1811 283.608 53.5899 296.783C96.6482 320.06 123.9 358.739 123.9 358.739L148.953 278.888C148.953 278.888 137.811 278.078 122.134 266.927C111.433 259.41 98.6723 247.063 85.9204 226.988C54.3812 177.388 21.3883 166.633 21.3883 166.633" stroke="#001511" stroke-linecap="round" stroke-linejoin="round"/>
<path d="M401 241.11C401 241.11 399.215 245.821 393.64 253.071C386.408 262.511 372.791 276.247 348.428 289.422C305.37 312.699 278.118 351.378 278.118 351.378L253.066 271.527C253.066 271.527 264.207 270.718 279.885 259.567C290.539 252.004 303.291 239.684 316.052 219.609C347.591 170.009 380.593 159.254 380.593 159.254" fill="white"/>
<mask id="mask5_30_9181" style="mask-type:luminance" maskUnits="userSpaceOnUse" x="253" y="159" width="148" height="193">
<path d="M401 241.11C401 241.11 399.215 245.821 393.64 253.071C386.408 262.511 372.791 276.247 348.428 289.422C305.37 312.699 278.118 351.378 278.118 351.378L253.066 271.527C253.066 271.527 264.207 270.718 279.885 259.567C290.539 252.004 303.291 239.684 316.052 219.609C347.591 170.009 380.593 159.254 380.593 159.254" fill="white"/>
</mask>
<g mask="url(#mask5_30_9181)">
<path opacity="0.4" d="M393.667 253.071C386.436 262.511 372.819 276.247 348.456 289.422C305.398 312.699 278.146 351.378 278.146 351.378L253.093 271.527C253.093 271.527 264.235 270.718 279.913 259.567C292.747 259.217 315.592 265.142 327.047 283.488C327.047 283.497 364.336 265.161 393.667 253.071Z" fill="#00B971"/>
<path d="M295.038 256.448C295.038 256.448 287.558 268.602 268.228 276.229" stroke="#001511" stroke-linecap="round" stroke-linejoin="round"/>
<path d="M353.084 287.499C348.484 289.422 329.42 295.412 325.05 298.475" stroke="#001511" stroke-linecap="round" stroke-linejoin="round"/>
<path d="M316.319 228.745C316.319 228.745 320.671 213.104 327.047 203.628" stroke="#001511" stroke-linecap="round" stroke-linejoin="round"/>
</g>
<path d="M401 241.11C401 241.11 399.215 245.821 393.64 253.071C386.408 262.511 372.791 276.247 348.428 289.422C305.37 312.699 278.118 351.378 278.118 351.378L253.066 271.527C253.066 271.527 264.207 270.718 279.885 259.567C290.539 252.004 303.291 239.684 316.052 219.609C347.591 170.009 380.593 159.254 380.593 159.254" stroke="#001511" stroke-linecap="round" stroke-linejoin="round"/>
<path d="M169.35 297.997L142.457 301.226C142.457 301.226 123.679 306.949 119.143 311.025C114.608 315.101 108.646 326.031 108.646 326.031C108.646 326.031 102.04 327.282 98.6539 326.031C98.274 325.926 97.9199 325.744 97.6143 325.495C97.3086 325.247 97.0579 324.937 96.8782 324.586C96.4466 323.559 96.1378 322.484 95.9582 321.385C95.4783 317.942 95.4288 314.452 95.811 310.997C95.811 310.997 91.3947 304.686 91.2107 302.1C91.0267 299.515 91.9652 288.861 94.6333 285.88C94.7412 285.752 94.8614 285.635 94.9921 285.53C97.9363 283.175 114.736 275.704 114.736 275.704C114.736 275.704 118.518 270.028 127.764 268.344C137.011 266.66 156.967 272.549 156.967 272.549L159.865 278.492L169.35 297.997Z" fill="white"/>
<path opacity="0.4" d="M95.9766 321.412C95.4967 317.969 95.4472 314.48 95.8293 311.025C95.8293 311.025 91.4131 304.713 91.2291 302.128C91.0451 299.543 91.9835 288.889 94.6517 285.908C91.5603 292.072 92.1768 301.466 96.4918 298.475C101.745 294.795 107.164 302.284 107.164 302.284C101.432 305.256 97.237 315.386 95.9766 321.412Z" fill="#00B971"/>
<path opacity="0.4" d="M169.35 297.997L142.457 301.226C142.457 301.226 123.679 306.949 119.143 311.025C114.608 315.101 108.646 326.031 108.646 326.031C108.646 326.031 102.04 327.282 98.6539 326.031C101.764 325.111 106.272 321.615 107.128 316.932C108.342 310.27 119.557 304.272 119.134 299.11C118.711 293.949 110.108 285.53 110.108 285.53C115.15 284.436 119.695 287.573 119.695 287.573C117.743 285.217 115.43 283.186 112.841 281.556C122.713 280.489 124.608 287.472 124.608 287.472C127.369 288.088 133.809 285.53 133.809 285.53C133.842 283.03 134.551 280.585 135.861 278.455L139.062 283.47C142.549 283.47 154.252 280.139 159.819 278.492L169.35 297.997Z" fill="#00B971"/>
<path d="M96.8782 324.623C98.3227 327.981 108.636 326.04 108.636 326.04C108.636 326.04 114.608 315.101 119.143 311.025C123.679 306.949 142.457 301.217 142.457 301.217L169.35 297.997L156.957 272.576C156.957 272.576 137.001 266.697 127.755 268.381C118.509 270.064 114.727 275.741 114.727 275.741C114.727 275.741 97.9271 283.203 94.9829 285.567C92.0387 287.932 90.9899 299.543 91.2015 302.128C91.4131 304.713 95.8017 311.025 95.8017 311.025C95.8017 311.025 94.7713 319.738 96.8782 324.623Z" stroke="#001511" stroke-linecap="round" stroke-linejoin="round"/>
<path d="M97.2922 322.36C97.2922 322.36 98.9759 312.911 106.962 309.479C106.962 309.479 107.799 303.849 105.701 301.254C103.604 298.66 97.5038 303.701 97.2922 309.479C97.0806 315.257 97.2922 322.36 97.2922 322.36Z" stroke="#001511" stroke-linecap="round" stroke-linejoin="round"/>
<path d="M114.727 287.499C114.727 287.499 128.739 293.792 121.416 309.442" stroke="#001511" stroke-linecap="round" stroke-linejoin="round"/>
<path d="M119.695 284.555C119.695 284.555 131.601 294.823 122.851 307.75" stroke="#001511" stroke-linecap="round" stroke-linejoin="round"/>
<path d="M135.897 282.467C135.227 287.005 135.227 291.618 135.897 296.157" stroke="#001511" stroke-linecap="round" stroke-linejoin="round"/>
<path d="M100.66 298.475C100.66 298.475 98.1387 299.681 96.455 305.983" stroke="#001511" stroke-linecap="round" stroke-linejoin="round"/>
<path d="M98.5527 287.499C98.5527 287.499 94.9829 287.987 93.0968 295.053" stroke="#001511" stroke-linecap="round" stroke-linejoin="round"/>
<path d="M305.481 297.997C302.537 299.883 300.982 303.849 300.982 303.849C300.982 303.849 301.534 311.025 300.982 312.911C300.43 314.797 296.437 318.376 293.281 316.38C290.125 314.383 288.506 307.032 280.336 303.849L229.227 283.497C230.96 281.046 233.029 278.85 235.373 276.974C239.144 273.863 243.35 271.321 247.858 269.43C261.144 263.753 277.3 260.183 285.203 262.704C289.637 264.13 294.983 269.089 299.105 273.975C302.288 277.738 304.735 281.482 305.481 283.497C307.155 288.125 308.443 296.102 305.481 297.997Z" fill="white"/>
<path opacity="0.4" d="M305.481 297.997C302.536 299.883 300.982 303.849 300.982 303.849C300.982 303.849 301.534 311.025 300.982 312.911C300.43 314.797 296.437 318.376 293.281 316.38C290.125 314.383 288.506 307.032 280.336 303.849L229.227 283.497C230.96 281.046 233.029 278.85 235.373 276.974C242.375 276.974 251.593 277.636 259.147 280.765C259.147 280.765 258.632 275.088 261.576 275.732C261.576 275.732 260.831 269.991 264.005 269.706C267.179 269.42 266.434 271.546 266.434 271.546C266.434 271.546 266.434 277.333 269.001 278.501C271.568 279.67 270.059 271.684 274.99 270.57C274.99 270.57 275.266 279.568 278.155 282.485C278.155 282.485 274.871 291.971 279.351 296.672C283.832 301.374 292.232 306.977 294.072 306.793C295.912 306.609 289.122 298.42 289.122 298.42C289.122 298.42 289.251 290.075 294.403 288.438C299.556 286.8 304.036 290.995 304.036 290.995C303.257 285.111 301.607 279.374 299.142 273.975C302.325 277.738 304.772 281.482 305.517 283.497C307.155 288.125 308.443 296.102 305.481 297.997Z" fill="#00B971"/>
<path d="M229.218 283.497C229.218 283.497 234.563 275.097 247.858 269.43C261.153 263.762 277.3 260.183 285.203 262.704C293.106 265.225 303.797 278.878 305.444 283.497C307.091 288.116 308.388 296.102 305.444 297.997C302.5 299.892 300.954 303.839 300.954 303.839C300.954 303.839 301.506 311.025 300.954 312.911C300.402 314.797 296.409 318.376 293.262 316.38C290.116 314.383 288.478 307.032 280.308 303.839" stroke="#001511" stroke-linecap="round" stroke-linejoin="round"/>
<path d="M289.122 298.42C289.122 298.42 289.757 290.223 293.722 290.646C297.688 291.069 300.706 299.681 300.991 309.442C300.982 309.442 296.657 300.941 289.122 298.42Z" stroke="#001511" stroke-linecap="round" stroke-linejoin="round"/>
<path d="M276.067 301.217C276.067 301.217 271.466 286.441 281.311 280.774" stroke="#001511" stroke-linecap="round" stroke-linejoin="round"/>
<path d="M274.981 272.576C274.981 272.576 271.172 285.254 274.981 292.357C274.981 292.357 265.983 285.604 259.156 288.539" stroke="#001511" stroke-linecap="round" stroke-linejoin="round"/>
<path d="M267.041 288.438C267.041 288.438 265.744 283.497 265.955 280.774C266.167 278.05 262.524 274.885 263.922 271.527" stroke="#001511" stroke-linecap="round" stroke-linejoin="round"/>
<path d="M261.567 277.618C261.567 277.618 264.575 284.463 266.434 285.558" stroke="#001511" stroke-linecap="round" stroke-linejoin="round"/>
<path d="M268.228 293.792C268.228 293.792 272.019 292.118 274.99 293.792" stroke="#001511" stroke-linecap="round" stroke-linejoin="round"/>
<path d="M297.495 281.593C297.495 281.593 303.585 281.077 305.057 293.424" stroke="#001511" stroke-linecap="round" stroke-linejoin="round"/>
<path d="M207.956 192.946C207.956 192.946 193.299 184.5 205.306 153.982C217.312 123.464 253.406 114.208 261.567 105.008C261.567 105.008 258.273 198.733 207.956 192.946Z" fill="#00B971"/>
<mask id="mask6_30_9181" style="mask-type:luminance" maskUnits="userSpaceOnUse" x="200" y="105" width="62" height="89">
<path d="M207.956 192.946C207.956 192.946 193.299 184.5 205.306 153.982C217.312 123.464 253.406 114.208 261.567 105.008C261.567 105.008 258.273 198.733 207.956 192.946Z" fill="white"/>
</mask>
<g mask="url(#mask6_30_9181)">
<path opacity="0.3" d="M255.172 113.767C251.051 121.596 238.363 131.478 224.424 155.252C217.608 167.143 211.934 179.653 207.477 192.615C205.26 190.977 196.289 182.697 203.079 160.413C203.346 168.325 206.152 172.769 206.152 172.769C205.269 141.994 255.172 113.767 255.172 113.767Z" fill="#001511" fill-opacity="0.7"/>
</g>
<path d="M207.956 192.946C207.956 192.946 193.299 184.5 205.306 153.982C217.312 123.464 253.406 114.208 261.567 105.008C261.567 105.008 258.273 198.733 207.956 192.946Z" stroke="#001511" stroke-linecap="round" stroke-linejoin="round"/>
<path d="M209.308 155.252C209.308 155.252 207.026 171.564 212.271 182.191L214.893 175.391C214.893 175.391 233.091 174.904 242.549 163.256" stroke="#001511" stroke-linecap="round" stroke-linejoin="round"/>
<path d="M219.263 141.423C219.263 141.423 215.132 156.705 218.048 167.387L219.263 162.051C219.263 162.051 242.071 156.144 246.92 149.106" stroke="#001511" stroke-linecap="round" stroke-linejoin="round"/>
<path d="M231.076 131.524C231.076 131.524 225.556 142.923 225.685 152.39L228.381 147.79C228.381 147.79 247.646 144.11 251.051 138.084" stroke="#001511" stroke-linecap="round" stroke-linejoin="round"/>
<path d="M242.549 121.679C238.529 127.199 233.754 139.666 233.754 139.666L238.152 134.661C238.152 134.661 249.026 131.827 253.093 126.519" stroke="#001511" stroke-linecap="round" stroke-linejoin="round"/>
<path d="M190.484 273.441C190.484 273.441 196.74 163.256 249.836 121.633C249.836 121.633 200.577 162.327 198.037 273.441H190.484Z" fill="#00B971"/>
<mask id="mask7_30_9181" style="mask-type:luminance" maskUnits="userSpaceOnUse" x="190" y="121" width="60" height="153">
<path d="M190.484 273.441C190.484 273.441 196.74 163.256 249.836 121.633C249.836 121.633 200.577 162.327 198.037 273.441H190.484Z" fill="white"/>
</mask>
<g mask="url(#mask7_30_9181)">
<path opacity="0.3" d="M190.484 273.441C190.484 273.441 196.74 163.256 249.836 121.633C249.836 121.633 200.577 162.327 198.037 273.441H190.484Z" fill="#001511" fill-opacity="0.7"/>
</g>
<path d="M190.484 273.441C190.484 273.441 196.74 163.256 249.836 121.633C249.836 121.633 200.577 162.327 198.037 273.441H190.484Z" stroke="#001511" stroke-linecap="round" stroke-linejoin="round"/>
<path d="M185.516 158.582C185.516 158.582 198.626 151.029 187.88 123.731C177.134 96.433 144.859 88.1525 137.563 79.9273C137.563 79.9273 140.507 163.725 185.516 158.582Z" fill="#00B971"/>
<mask id="mask8_30_9181" style="mask-type:luminance" maskUnits="userSpaceOnUse" x="137" y="79" width="56" height="80">
<path d="M185.516 158.582C185.516 158.582 198.626 151.029 187.88 123.731C177.134 96.433 144.859 88.1525 137.563 79.9273C137.563 79.9273 140.507 163.725 185.516 158.582Z" fill="white"/>
</mask>
<g mask="url(#mask8_30_9181)">
<path opacity="0.3" d="M187.917 123.712C187.345 122.238 186.652 120.813 185.847 119.453C184.2 116.692 188.349 124.872 188.432 131.478C188.492 133.13 188.176 134.774 187.508 136.286C186.84 137.799 185.838 139.14 184.577 140.209C183.749 135.885 183.298 131.349 181.228 127.457C170.684 107.547 146.064 89.505 142.154 86.5332C142.577 87.0669 156.056 104.014 164.032 113.767C168.311 119.02 171.154 125.644 173.969 131.744C177.539 139.5 180.741 147.385 183.915 155.334C184.356 156.448 184.835 157.552 185.249 158.656C188.819 156.429 190.769 152.289 191.597 148.158C192.959 141.101 191.34 133.805 189.085 126.997C188.727 125.884 188.349 124.789 187.917 123.712Z" fill="#001511" fill-opacity="0.7"/>
</g>
<path d="M185.516 158.582C185.516 158.582 198.626 151.029 187.88 123.731C177.134 96.433 144.859 88.1525 137.563 79.9273C137.563 79.9273 140.507 163.725 185.516 158.582Z" stroke="#001511" stroke-linecap="round" stroke-linejoin="round"/>
<path d="M184.301 124.872C184.301 124.872 186.344 139.454 181.651 148.958L179.305 142.877C179.305 142.877 163.03 142.445 154.565 132.03" stroke="#001511" stroke-linecap="round" stroke-linejoin="round"/>
<path d="M175.404 112.497C175.404 112.497 179.085 126.169 176.49 135.719L175.404 130.944C175.404 130.944 154.998 125.663 150.664 119.37" stroke="#001511" stroke-linecap="round" stroke-linejoin="round"/>
<path d="M164.833 103.6C164.833 103.6 169.764 113.803 169.654 122.268L167.243 118.137C167.243 118.137 150.011 114.88 147.002 109.461" stroke="#001511" stroke-linecap="round" stroke-linejoin="round"/>
<path d="M154.565 94.8321C158.172 99.8095 162.441 110.924 162.441 110.924L158.475 106.452C158.475 106.452 148.75 103.913 145.116 99.1655" stroke="#001511" stroke-linecap="round" stroke-linejoin="round"/>
<path d="M198.958 226.114C198.958 226.114 195.553 132.03 148.07 94.7677C148.07 94.7677 193.787 135.719 194.459 241.101C194.459 241.101 195.949 241.396 196.749 238.967" fill="#00B971"/>
<mask id="mask9_30_9181" style="mask-type:luminance" maskUnits="userSpaceOnUse" x="148" y="94" width="51" height="148">
<path d="M198.958 226.114C198.958 226.114 195.553 132.03 148.07 94.7677C148.07 94.7677 193.787 135.719 194.459 241.101C194.459 241.101 195.949 241.396 196.749 238.967" fill="white"/>
</mask>
<g mask="url(#mask9_30_9181)">
<path opacity="0.3" d="M198.958 226.114C198.958 226.114 195.553 132.03 148.07 94.7677C148.07 94.7677 193.787 135.719 194.459 241.101C194.459 241.101 195.949 241.396 196.749 238.967" fill="#001511" fill-opacity="0.7"/>
</g>
<path d="M198.958 226.114C198.958 226.114 195.553 132.03 148.07 94.7677C148.07 94.7677 193.787 135.719 194.459 241.101C194.459 241.101 195.949 241.396 196.749 238.967" stroke="#001511" stroke-linecap="round" stroke-linejoin="round"/>
<path d="M122.18 311.577C122.18 311.577 119.015 309.074 122.18 301.254C124.608 295.265 132.512 295.559 132.944 289.293C136.183 289.698 138.768 287.555 140.442 284.932C142.117 282.31 143.469 279.164 146.266 277.784C147.186 277.36 148.106 277.13 148.953 276.68C152.274 274.913 153.424 270.138 157.013 269.052C159.129 268.408 161.613 269.282 163.554 268.298C165.495 267.313 166.452 264.618 168.559 263.698C169.463 263.422 170.386 263.21 171.319 263.063C175.045 262.088 177.447 257.543 181.302 257.644C182.415 257.69 183.611 258.141 184.605 257.644C185.387 257.257 185.856 256.365 186.666 256.052C187.362 255.887 188.091 255.915 188.773 256.135C190.925 256.598 193.166 256.413 195.213 255.601C197.053 254.764 197.476 252.326 198.599 251.774C203.061 249.575 208.066 258.141 210.651 260.284C212.16 261.545 213.862 258.325 215.822 258.398C217.607 258.472 218.518 261.232 220.284 261.011C219.465 261.655 219.935 263.081 220.836 263.606C221.8 264.009 222.837 264.207 223.882 264.185C226.421 264.452 228.712 265.786 230.92 267.083C231.316 267.274 231.663 267.555 231.932 267.902C232.199 268.307 232.254 268.822 232.53 269.218C233.11 270.037 234.453 270.138 234.885 271.003C235.022 271.47 235.102 271.952 235.125 272.438C235.41 273.8 237.02 274.416 238.409 274.517C239.798 274.619 241.289 274.453 242.476 275.189C243.297 275.865 244.043 276.627 244.702 277.462C247.462 280.139 250.664 279.992 253.213 283.377C255.881 286.92 257.684 290.793 261.493 293.351C267.934 297.684 269.774 303.793 271.531 309.47C273.288 315.147 248.327 329.279 197.927 332.894C147.527 336.51 121.517 315.404 122.18 311.577Z" fill="#001511"/>
<path opacity="0.4" d="M169.203 272.291C170.326 272.585 171.963 272.512 172.101 271.371C172.078 271.112 172.096 270.851 172.157 270.598C172.451 269.917 173.5 270.442 174.227 270.276C174.769 270.147 175.101 269.614 175.496 269.227C176.003 268.761 176.657 268.488 177.344 268.454C178.032 268.421 178.709 268.629 179.259 269.043C179.894 269.558 180.317 270.35 181.044 270.718C182.406 271.398 184.642 270.635 185.148 272.061" stroke="white" stroke-linecap="round" stroke-linejoin="round"/>
<path opacity="0.4" d="M188.607 279.476C188.922 279.678 189.278 279.806 189.65 279.851C190.021 279.895 190.398 279.856 190.751 279.734C191.105 279.613 191.427 279.414 191.693 279.151C191.959 278.888 192.162 278.568 192.287 278.216C192.388 277.848 192.425 277.416 192.738 277.186C193.216 276.845 193.86 277.305 194.449 277.36C195.618 277.48 196.289 276.118 197.053 275.244C197.516 274.726 198.109 274.34 198.771 274.127C199.433 273.914 200.139 273.882 200.818 274.032C201.496 274.183 202.122 274.512 202.632 274.986C203.141 275.459 203.514 276.06 203.714 276.726L210.651 278.566" stroke="white" stroke-linecap="round" stroke-linejoin="round"/>
<path opacity="0.4" d="M200.476 264.866C201.664 264.486 202.908 264.309 204.156 264.342C203.992 263.955 203.956 263.526 204.053 263.117C204.151 262.709 204.376 262.342 204.697 262.07C205.017 261.799 205.417 261.637 205.836 261.609C206.255 261.581 206.672 261.687 207.026 261.913C207.321 261.644 207.669 261.442 208.048 261.318C208.427 261.195 208.827 261.154 209.223 261.197C209.619 261.241 210.002 261.368 210.345 261.571C210.688 261.773 210.983 262.047 211.213 262.373L211.489 263.532C213.3 264.133 214.982 265.069 216.448 266.292" stroke="white" stroke-linecap="round" stroke-linejoin="round"/>
<path opacity="0.4" d="M219.732 273.515L221.572 274.057C221.269 273.579 221.839 272.99 222.4 272.88C222.962 272.881 223.519 272.784 224.047 272.595C224.599 272.263 224.765 271.564 225.124 271.03C225.483 270.497 226.384 270.193 226.688 270.754C226.614 270.166 227.267 269.687 227.865 269.706C228.466 269.785 229.031 270.034 229.494 270.423L234.205 273.699" stroke="white" stroke-linecap="round" stroke-linejoin="round"/>
<path d="M106.815 326.031C106.815 326.031 112.142 316.619 119.143 311.025C126.145 305.431 131.187 298.245 137.351 290.627C143.515 283.009 152.477 273.349 156.957 272.576C161.438 271.803 171.522 273.248 172.644 282.467C172.644 282.467 179.498 274.186 189.095 279.983C198.691 285.779 193.925 296.737 193.925 296.737C193.925 296.737 197.421 295.338 199.592 296.737C201.764 298.135 207.946 372.282 207.946 372.282C204.407 373.17 200.938 374.32 197.568 375.723C192.25 377.958 185.525 378.244 181.007 375.723C181.007 375.723 172.607 377.894 167.004 377.508C161.401 377.121 146.276 376.845 140.958 375.437C135.1 373.744 129.396 371.555 123.909 368.896C119.907 366.614 116.61 363.275 114.378 359.245C112.703 355.84 109.621 354.727 104.855 348.986C100.089 343.245 106.815 326.031 106.815 326.031Z" fill="white"/>
<path opacity="0.4" d="M199.592 296.737C197.495 295.393 194.164 296.645 193.934 296.737C194.35 295.691 194.658 294.606 194.854 293.498L189.104 305.615C189.104 305.615 180.207 317.189 177.024 322.378C173.84 327.567 176.564 328.11 172.653 336.372C168.743 344.634 163.02 360.441 156.967 361.72C150.913 362.998 138.05 358.601 135.658 352.409C133.266 346.217 139.035 341.847 146.11 332.876C153.185 323.906 156.12 320.547 155.559 316.389C154.998 312.23 169.36 287.168 170.28 285.641C169.902 286.138 167.685 289.109 164.907 292.78C166.15 290.458 167.22 288.047 168.108 285.567L154.869 279.992C154.869 279.992 141.85 293.848 148.852 299.147C152.697 302.064 156.507 302.11 160.049 299.147C157.289 302.763 154.574 306.121 153.056 307.777C148.852 312.377 148.005 317.484 146.119 320.501C144.233 323.519 136.744 336.05 130.285 340.577C123.826 345.103 120.008 346.346 114.746 343.512C111.157 341.571 108.931 330.916 107.864 324.356C107.192 325.414 106.833 326.058 106.833 326.058C106.833 326.058 100.117 343.263 104.883 349.004C109.648 354.746 112.721 355.859 114.396 359.263C116.631 363.277 119.916 366.607 123.9 368.896C129.404 371.555 135.123 373.746 140.994 375.447C146.312 376.836 161.438 377.121 167.041 377.508C172.644 377.894 181.044 375.723 181.044 375.723C185.525 378.244 192.241 377.968 197.605 375.723C200.682 374.449 203.838 373.377 207.054 372.512C207.348 372.134 207.624 371.739 207.919 371.343C207.155 362.778 201.626 298.052 199.592 296.737Z" fill="#00B971"/>
<path opacity="0.4" d="M177.336 285.558C177.336 285.558 163.996 301.006 173.196 307.75C182.397 314.494 192.361 301.64 192.793 290.995L177.336 285.558Z" fill="#00B971"/>
<path d="M207.956 372.282L207.036 372.512C203.82 373.377 200.664 374.449 197.587 375.723C192.26 377.968 185.543 378.244 181.026 375.723C181.026 375.723 172.626 377.903 167.023 377.508C161.42 377.112 146.294 376.836 140.976 375.447C135.111 373.745 129.398 371.554 123.9 368.896C119.906 366.602 116.614 363.262 114.378 359.235C112.703 355.831 109.621 354.727 104.864 348.977C100.108 343.227 106.815 326.031 106.815 326.031C106.815 326.031 107.174 325.387 107.845 324.329C109.685 321.357 113.973 315.128 119.143 311.025C126.145 305.413 131.187 298.245 137.351 290.627C143.515 283.009 152.477 273.349 156.957 272.576C161.438 271.803 171.522 273.248 172.644 282.467C172.644 282.467 179.498 274.186 189.095 279.983C195.379 283.801 195.535 289.809 194.845 293.489C194.649 294.597 194.341 295.682 193.925 296.727C194.155 296.645 197.485 295.393 199.583 296.727C201.681 298.061 207.146 362.768 207.864 371.334C207.919 371.95 207.956 372.282 207.956 372.282Z" stroke="#001511" stroke-linecap="round" stroke-linejoin="round"/>
<path d="M172.644 282.467C169.562 284.969 152.753 316.692 149.643 320.474C146.533 324.255 137.876 335.029 134.094 338.994C131.429 342.017 129.169 345.372 127.369 348.977C124.957 351.401 122.361 353.634 119.603 355.656" stroke="#001511" stroke-linecap="round" stroke-linejoin="round"/>
<path d="M193.925 296.737C191.199 301.354 188.742 306.125 186.564 311.025C183.804 317.53 175.92 334.127 172.635 340.466C169.35 346.806 164.088 361.26 160.306 363.578C156.525 365.897 151.06 371.141 147.702 370.718" stroke="#001511" stroke-linecap="round" stroke-linejoin="round"/>
<path d="M150.655 372.576C150.655 372.576 149.735 370.515 150.655 370.037" stroke="#001511" stroke-linecap="round" stroke-linejoin="round"/>
<path d="M183.409 373.588C183.409 373.588 190.981 366.347 192.03 361.057C193.078 355.767 207.946 314.135 207.946 314.135" stroke="#001511" stroke-linecap="round" stroke-linejoin="round"/>
<path d="M154.85 279.982C154.85 279.982 163.471 279.421 168.09 285.558C168.09 285.558 161.153 302.827 152.753 298.439C144.353 294.05 154.85 279.982 154.85 279.982Z" fill="white" stroke="#001511" stroke-linecap="round" stroke-linejoin="round"/>
<path d="M177.336 285.558C177.336 285.558 185.994 285.254 192.793 290.995C192.793 290.995 188.257 310.39 177.336 307.446C166.415 304.502 173.757 291.814 177.336 285.558Z" fill="white" stroke="#001511" stroke-linecap="round" stroke-linejoin="round"/>
<path d="M196.032 302.128C196.032 302.128 191.192 309.415 191.827 314.733C192.462 320.051 199.592 319.066 199.592 319.066" stroke="#001511" stroke-linecap="round" stroke-linejoin="round"/>
<path d="M159.892 320.474C159.892 320.474 165.836 324.872 171.586 326.04" stroke="#001511" stroke-linecap="round" stroke-linejoin="round"/>
<path d="M110.108 328.46C110.108 328.46 110.955 338.58 113.053 342.113C115.15 345.646 129.273 345.472 129.273 345.472" stroke="#001511" stroke-linecap="round" stroke-linejoin="round"/>
<path d="M132.797 352.399C135.137 356.533 138.747 359.801 143.092 361.72C150.453 365.004 155.55 363.56 155.55 363.56" stroke="#001511" stroke-linecap="round" stroke-linejoin="round"/>
<path d="M168.09 367.102C168.09 367.102 179.222 372.208 185.948 368.188" stroke="#001511" stroke-linecap="round" stroke-linejoin="round"/>
<path d="M137.002 303.839C137.002 303.839 139.375 309.36 144.178 310.629" stroke="#001511" stroke-linecap="round" stroke-linejoin="round"/>
<path d="M183.409 338.994C185.768 340.942 188.713 342.04 191.772 342.113" stroke="#001511" stroke-linecap="round" stroke-linejoin="round"/>
<path d="M289.72 345.048C289.72 345.048 282.995 357.23 275.855 360.597C268.716 363.965 262.827 362.704 258.632 365.197C254.436 367.691 247.288 368.979 237.627 370.662C227.967 372.346 218.233 374.444 211.332 373.183C208.943 372.726 206.636 371.914 204.487 370.773C199.847 368.206 195.642 364.921 192.03 361.039C188.598 357.515 188.892 351.838 191.202 348.011C191.702 347.079 192.388 346.26 193.217 345.604C194.046 344.947 195.001 344.467 196.023 344.193C196.023 344.193 193.713 342.353 191.11 340.025C188.285 337.504 185.138 334.394 184.274 332.425C182.581 328.644 183.004 321.927 188.874 316.039C190.562 314.325 192.597 312.989 194.841 312.121C197.086 311.254 199.49 310.874 201.892 311.007C201.892 311.007 192.894 303.646 196.427 295.035C197.706 291.925 199.988 287.812 206.934 286.634C216.88 284.951 222.483 290.627 222.483 290.627C222.483 290.627 220.91 280.765 230.938 278.667C240.967 276.569 262.827 292.532 267.041 294.639C270.068 296.148 274.815 299.607 279.278 302.358L280.345 303.021C281.578 303.757 282.783 304.428 283.896 304.962C289.095 308.743 290.668 314.714 293.29 316.38C294.029 316.796 294.872 316.993 295.72 316.947C296.567 316.902 297.384 316.615 298.074 316.122C298.249 316.389 298.415 316.646 298.553 316.895C300.641 320.676 305.683 336.694 289.72 345.048Z" fill="white"/>
<path opacity="0.4" d="M289.72 345.048C289.72 345.048 282.995 357.23 275.855 360.597C268.716 363.965 262.827 362.704 258.632 365.197C254.436 367.691 247.288 368.979 237.627 370.662C227.967 372.346 218.233 374.444 211.332 373.183C208.943 372.726 206.636 371.914 204.487 370.773C209.704 370.377 213.687 367.764 215.528 363.845C217.837 358.987 210.973 358.619 209.326 361.692C207.68 364.765 197.817 363.661 199.556 361.692C201.294 359.723 197.817 349.649 195.986 348.296C195.204 347.698 193.226 347.753 191.165 348.011C191.666 347.079 192.352 346.26 193.181 345.604C194.01 344.947 194.964 344.467 195.986 344.193C195.986 344.193 193.676 342.353 191.073 340.025L197.513 343.843C197.513 343.843 211.314 355.804 218.849 361.692C226.384 367.58 240.672 366.182 244.426 361.692C248.18 357.202 231.15 343.217 225.832 338.967C220.68 334.863 218.407 327.991 218.279 327.567C218.729 327.991 232.668 341.488 240.36 350.495C248.217 359.695 256.405 356.935 265.302 352.786C274.199 348.636 269.222 336.768 266.379 333.943C263.536 331.119 251.014 320.244 249.045 316.941C247.076 313.638 233.404 301.972 232.484 301.236C233.404 301.843 248.539 311.641 250.71 314.116C252.882 316.591 258.558 320.557 266.986 326.574C275.413 332.591 281.808 339.574 288.037 326.574C292.315 317.631 284.494 307.685 279.195 302.34L280.262 303.002C281.495 303.738 282.7 304.41 283.814 304.943C289.012 308.725 290.585 314.696 293.207 316.361C293.947 316.778 294.789 316.975 295.637 316.929C296.484 316.883 297.301 316.597 297.991 316.104C298.166 316.37 298.332 316.628 298.47 316.876C300.641 320.676 305.683 336.694 289.72 345.048Z" fill="#00B971"/>
<path opacity="0.4" d="M204.478 306.572C205.665 303.653 207.518 301.052 209.889 298.975C212.259 296.899 215.081 295.404 218.131 294.611C218.131 294.611 228.427 301.751 228.427 307.63C228.427 313.509 224.461 318.063 217.101 315.791C209.74 313.518 204.478 306.572 204.478 306.572Z" fill="#00B971"/>
<path opacity="0.4" d="M229.218 291.704C229.218 291.704 233.432 286.239 239.936 284.564C239.936 284.564 253.489 294.86 248.392 300.316C243.295 305.771 231.316 298.844 229.218 291.704Z" fill="#00B971"/>
<path opacity="0.4" d="M190.484 332.223C190.484 332.223 195.673 324.108 203.3 321.928C203.3 321.928 219.061 330.824 211.075 337.826C203.089 344.828 192.379 336.004 190.484 332.223Z" fill="#00B971"/>
<path d="M289.72 345.048C289.72 345.048 282.995 357.23 275.855 360.597C268.716 363.964 262.827 362.704 258.632 365.197C254.436 367.691 247.288 368.979 237.627 370.662C227.967 372.346 218.233 374.444 211.332 373.183C204.432 371.923 197.927 367.083 192.011 361.039C186.84 355.721 190.125 345.462 196.004 344.193C196.004 344.193 185.93 336.207 184.255 332.425C182.581 328.644 182.985 321.927 188.855 316.039C190.544 314.325 192.578 312.989 194.823 312.121C197.068 311.254 199.471 310.874 201.874 311.007C201.874 311.007 192.876 303.646 196.409 295.035C197.688 291.925 199.97 287.812 206.916 286.634C216.862 284.951 222.465 290.627 222.465 290.627C222.465 290.627 220.891 280.765 230.92 278.667C240.948 276.569 262.827 292.532 267.041 294.639C270.307 296.277 275.598 300.159 280.345 303.021C281.578 303.757 282.783 304.428 283.896 304.962C289.095 308.743 290.668 314.714 293.29 316.38C294.029 316.796 294.872 316.993 295.72 316.947C296.567 316.902 297.384 316.615 298.074 316.122C298.249 316.389 298.415 316.646 298.553 316.895C300.641 320.676 305.683 336.694 289.72 345.048Z" stroke="#001511" stroke-linecap="round" stroke-linejoin="round"/>
<path d="M222.492 290.692C223.9 293.93 236.679 305.413 242.2 308.78C247.72 312.147 263.112 328.947 267.593 331.174C272.074 333.4 275.993 340.42 281.311 342.104" stroke="#001511" stroke-linecap="round" stroke-linejoin="round"/>
<path d="M201.911 311.025C209.612 317.465 218.297 328.386 222.492 331.468C226.688 334.551 236.219 345.196 240.424 350.513C244.629 355.831 247.426 359.475 263.95 361.72" stroke="#001511" stroke-linecap="round" stroke-linejoin="round"/>
<path d="M269.801 345.471C269.801 345.471 268.688 355.592 253.24 357.515" stroke="#001511" stroke-linecap="round" stroke-linejoin="round"/>
<path d="M288.322 316.38C288.322 316.38 292.517 328.386 281.311 332.867" stroke="#001511" stroke-linecap="round" stroke-linejoin="round"/>
<path d="M196.032 344.211C196.032 344.211 206.898 353.31 211.332 355.831C215.767 358.352 221.655 365.078 226.136 366.476C229.068 367.288 232.165 367.288 235.097 366.476" stroke="#001511" stroke-linecap="round" stroke-linejoin="round"/>
<path d="M246.708 356.76C245.552 358.698 244.019 360.385 242.2 361.72" stroke="#001511" stroke-linecap="round" stroke-linejoin="round"/>
<path d="M201.911 304.925C203.094 302.003 204.946 299.4 207.317 297.323C209.688 295.246 212.512 293.753 215.564 292.964C215.564 292.964 225.86 300.104 225.86 305.992C225.86 311.881 221.885 316.416 214.525 314.144C207.164 311.871 201.911 304.925 201.911 304.925Z" fill="white" stroke="#001511" stroke-linecap="round" stroke-linejoin="round"/>
<path d="M227.534 290.692C227.534 290.692 231.748 285.227 238.253 283.543C238.253 283.543 251.814 293.838 246.708 299.304C241.602 304.769 229.641 297.785 227.534 290.692Z" fill="white" stroke="#001511" stroke-linecap="round" stroke-linejoin="round"/>
<path d="M189.095 330.769C189.095 330.769 194.274 322.645 201.911 320.474C201.911 320.474 217.662 329.371 209.685 336.372C201.708 343.374 190.99 334.551 189.095 330.769Z" fill="white" stroke="#001511" stroke-linecap="round" stroke-linejoin="round"/>
<path d="M192.793 357.119C192.793 357.119 200.098 355.638 201.892 348.977C201.892 348.977 209.363 354.746 205.057 359.235C198.728 365.851 192.793 357.119 192.793 357.119Z" fill="white" stroke="#001511" stroke-linecap="round" stroke-linejoin="round"/>
<path d="M256.736 312.911C258.017 312.202 259.118 311.209 259.956 310.008C260.793 308.807 261.344 307.43 261.567 305.983" stroke="#001511" stroke-linecap="round" stroke-linejoin="round"/>
<path d="M243.506 320.474C243.506 320.474 241.878 329.674 232.926 331.183" stroke="#001511" stroke-linecap="round" stroke-linejoin="round"/>
<path d="M221.039 342.113C221.039 342.113 217.358 347.44 211.949 348.977" stroke="#001511" stroke-linecap="round" stroke-linejoin="round"/>
<path d="M224.351 365.694C222.838 367.889 220.741 369.616 218.297 370.681" stroke="#001511" stroke-linecap="round" stroke-linejoin="round"/>
<path d="M230.957 367.102C231.052 367.73 231.019 368.37 230.861 368.985C230.703 369.6 230.422 370.177 230.037 370.681" stroke="#001511" stroke-linecap="round" stroke-linejoin="round"/>
<path d="M204.855 368.896C206.666 368.745 208.418 368.185 209.981 367.259C211.545 366.333 212.878 365.065 213.881 363.55" stroke="#001511" stroke-linecap="round" stroke-linejoin="round"/>
</svg>
