<svg width="40" height="39" viewBox="0 0 40 39" fill="none" xmlns="http://www.w3.org/2000/svg">
<ellipse cx="20" cy="19.3174" rx="20" ry="19.3174" fill="white"/>
<path d="M24.1343 21.2554C24.7587 21.4518 25.3571 21.7233 25.9162 22.0638L25.8804 22.043C26.4913 22.3144 27.0191 22.6319 27.5006 23.0049L27.4833 22.9922C27.5064 23.0627 27.5202 23.1424 27.5202 23.2267L27.5191 23.2636V23.2625C27.5018 23.7579 27.3921 24.2233 27.2061 24.6471L27.2154 24.6229C26.9486 25.1576 26.504 25.5698 25.9601 25.7892L25.9439 25.795C25.3811 26.0893 24.7587 26.2516 24.1239 26.2697H24.117C22.9052 26.1139 21.7342 25.729 20.6663 25.1356L20.716 25.161C19.5817 24.6472 18.5502 23.9315 17.6719 23.0488L17.6707 23.0477C16.7126 22.0501 15.8439 20.9705 15.0746 19.8211L15.0204 19.7356C14.2569 18.7377 13.814 17.5317 13.75 16.2769L13.7489 16.2619V16.1187C13.7658 15.5827 13.8917 15.0557 14.1188 14.5699C14.3459 14.0841 14.6696 13.6496 15.07 13.2928L15.0735 13.2894C15.3208 13.0429 15.654 12.9018 16.0031 12.8956H16.0043C16.1209 12.899 16.2329 12.9083 16.3415 12.9244L16.3265 12.9221C16.4269 12.9371 16.5436 12.9464 16.6637 12.9487H16.6671C16.8353 12.9323 17.004 12.9739 17.1452 13.0665L17.1429 13.0653C17.2665 13.2016 17.3612 13.3667 17.4178 13.548L17.4201 13.5573C17.5156 13.7959 17.7127 14.321 18.0114 15.1325C18.1673 15.4951 18.3197 15.942 18.4421 16.4016L18.4583 16.4744C18.375 16.8763 18.158 17.2382 17.8428 17.501L17.8393 17.5033C17.4274 17.9391 17.2215 18.2163 17.2215 18.3348C17.2259 18.432 17.2584 18.5259 17.315 18.605L17.3139 18.6039C17.7605 19.5272 18.3781 20.3576 19.1339 21.051L19.1396 21.0568C19.9309 21.7695 20.8179 22.3681 21.775 22.8352L21.8431 22.8652C21.9601 22.9412 22.0952 22.9846 22.2346 22.9911H22.2369C22.4163 22.9911 22.7389 22.7016 23.2046 22.1227C23.6704 21.5437 23.9799 21.2542 24.1331 21.2542L24.1343 21.2554ZM20.5 30.7435H20.5254C22.0418 30.7456 23.542 30.4314 24.93 29.8208L24.8595 29.8485C27.5803 28.7006 29.7017 26.5791 30.8219 23.9311L30.8496 23.8584C31.4155 22.573 31.7446 21.0741 31.7446 19.4989C31.7446 17.9237 31.4155 16.4247 30.8219 15.0678L30.8496 15.1394C29.7017 12.4186 27.5803 10.2972 24.9323 9.17702L24.8595 9.1493C23.5742 8.58343 22.0752 8.25431 20.5 8.25431C18.9248 8.25431 17.4259 8.58343 16.0689 9.17702L16.1405 9.1493C13.4198 10.2972 11.2983 12.4186 10.1782 15.0666L10.1504 15.1394C9.555 16.5203 9.25034 18.009 9.25544 19.5127C9.25171 21.8903 10.0124 24.2061 11.4254 26.1184L11.4034 26.0883L10.7481 28.4247L9.98876 30.2607L11.9982 29.4325L14.3217 28.8819C16.1317 30.101 18.2657 30.7494 20.4481 30.7435H20.5023H20.5ZM20.5 6.00008H20.5381C22.4182 6.00008 24.2059 6.39503 25.8215 7.10756L25.7372 7.07407C28.9996 8.4564 31.5437 11.0005 32.8925 14.1751L32.926 14.2629C33.6051 15.8069 34 17.6073 34 19.5C34 21.3928 33.605 23.1932 32.8925 24.8227L32.926 24.7372C31.5437 27.9996 28.9996 30.5437 25.825 31.8925L25.7372 31.926C24.2047 32.605 22.417 33 20.537 33H20.4977H20.5H20.4388C18.061 33 15.8287 32.3752 13.8979 31.2816L13.9637 31.3163L7.7478 32.4561L8.93324 26.4648C7.6619 24.3735 6.99291 21.9717 7.00006 19.5243C7.00006 17.6234 7.39501 15.815 8.10754 14.1763L8.07405 14.2629C9.45638 11.0005 12.0005 8.4564 15.1751 7.10756L15.2629 7.07407C16.9031 6.35957 18.674 5.99384 20.4631 6.00008H20.5012H20.4989H20.5Z" fill="url(#paint0_linear_250_1657)"/>
<defs>
<linearGradient id="paint0_linear_250_1657" x1="20.5" y1="6" x2="20.5" y2="33" gradientUnits="userSpaceOnUse">
<stop stop-color="#007E4E"/>
<stop offset="1" stop-color="#00B971"/>
</linearGradient>
</defs>
</svg>
