<svg width="40" height="39" viewBox="0 0 40 39" fill="none" xmlns="http://www.w3.org/2000/svg">
<ellipse cx="20" cy="19.3174" rx="20" ry="19.3174" fill="url(#paint0_linear_250_1657)"/>
<path d="M23.1343 20.5044C23.7587 20.7009 24.3571 20.9723 24.9162 21.3128L24.8804 21.292C25.4913 21.5634 26.019 21.881 26.5006 22.254L26.4833 22.2413C26.5064 22.3117 26.5202 22.3914 26.5202 22.4757L26.5191 22.5127V22.5115C26.5018 23.0069 26.3921 23.4723 26.2061 23.8961L26.2154 23.8719C25.9486 24.4066 25.504 24.8188 24.9601 25.0383L24.9439 25.044C24.3811 25.3383 23.7587 25.5006 23.1239 25.5187H23.117C21.9052 25.3629 20.7342 24.978 19.6663 24.3846L19.716 24.41C18.5817 23.8962 17.5502 23.1805 16.6719 22.2979L16.6707 22.2967C15.7126 21.2992 14.8439 20.2195 14.0746 19.0701L14.0204 18.9846C13.2569 17.9867 12.814 16.7808 12.75 15.5259L12.7489 15.5109V15.3677C12.7658 14.8317 12.8917 14.3047 13.1188 13.8189C13.3459 13.3331 13.6696 12.8986 14.07 12.5419L14.0735 12.5384C14.3208 12.2919 14.654 12.1508 15.0031 12.1446H15.0043C15.1209 12.1481 15.2329 12.1573 15.3415 12.1735L15.3265 12.1712C15.4269 12.1862 15.5436 12.1954 15.6637 12.1977H15.6671C15.8353 12.1814 16.004 12.2229 16.1452 12.3155L16.1429 12.3144C16.2665 12.4506 16.3612 12.6158 16.4178 12.7971L16.4201 12.8063C16.5156 13.045 16.7127 13.57 17.0114 14.3815C17.1673 14.7441 17.3197 15.191 17.4421 15.6507L17.4583 15.7234C17.375 16.1253 17.158 16.4872 16.8428 16.7501L16.8393 16.7524C16.4274 17.1881 16.2215 17.4653 16.2215 17.5838C16.2259 17.6811 16.2584 17.7749 16.315 17.8541L16.3139 17.8529C16.7605 18.7763 17.3781 19.6066 18.1339 20.3L18.1396 20.3058C18.9309 21.0185 19.8179 21.6172 20.775 22.0842L20.8431 22.1142C20.9601 22.1902 21.0952 22.2336 21.2346 22.2401H21.2369C21.4163 22.2401 21.7389 21.9506 22.2046 21.3717C22.6704 20.7927 22.9799 20.5032 23.1331 20.5032L23.1343 20.5044ZM19.5 29.9925H19.5254C21.0418 29.9947 22.542 29.6804 23.93 29.0698L23.8595 29.0975C26.5803 27.9496 28.7017 25.8282 29.8219 23.1801L29.8496 23.1074C30.4155 21.8221 30.7446 20.3231 30.7446 18.7479C30.7446 17.1727 30.4155 15.6738 29.8219 14.3168L29.8496 14.3884C28.7017 11.6676 26.5803 9.54622 23.9323 8.42604L23.8595 8.39832C22.5742 7.83246 21.0752 7.50333 19.5 7.50333C17.9248 7.50333 16.4259 7.83246 15.0689 8.42604L15.1405 8.39832C12.4198 9.54622 10.2983 11.6676 9.17815 14.3157L9.15044 14.3884C8.555 15.7693 8.25034 17.258 8.25544 18.7618C8.25171 21.1394 9.01245 23.4552 10.4254 25.3674L10.4034 25.3374L9.74806 27.6737L8.98876 29.5098L10.9982 28.6816L13.3217 28.1309C15.1317 29.35 17.2657 29.9985 19.4481 29.9925H19.5023H19.5ZM19.5 5.2491H19.5381C21.4182 5.2491 23.2059 5.64405 24.8215 6.35658L24.7372 6.32309C27.9996 7.70543 30.5437 10.2495 31.8925 13.4241L31.926 13.5119C32.6051 15.0559 33 16.8563 33 18.7491C33 20.6418 32.605 22.4422 31.8925 24.0717L31.926 23.9862C30.5437 27.2486 27.9996 29.7927 24.825 31.1415L24.7372 31.175C23.2047 31.8541 21.417 32.249 19.537 32.249H19.4977H19.5H19.4388C17.061 32.249 14.8287 31.6243 12.8979 30.5306L12.9637 30.5653L6.7478 31.7051L7.93324 25.7138C6.6619 23.6225 5.99291 21.2207 6.00006 18.7733C6.00006 16.8725 6.39501 15.064 7.10754 13.4253L7.07405 13.5119C8.45638 10.2495 11.0005 7.70543 14.1751 6.35658L14.2629 6.32309C15.9031 5.6086 17.674 5.24286 19.4631 5.2491H19.5012H19.4989H19.5Z" fill="#FFFBFB"/>
<defs>
<linearGradient id="paint0_linear_250_1657" x1="20" y1="0" x2="20" y2="38.6348" gradientUnits="userSpaceOnUse">
<stop stop-color="#0DFF6E"/>
<stop offset="1" stop-color="#00B971"/>
</linearGradient>
</defs>
</svg>
